<svg width="1046" height="1463" xmlns="http://www.w3.org/2000/svg" xmlns:xlink="http://www.w3.org/1999/xlink" xml:space="preserve" overflow="hidden"><defs><clipPath id="clip0"><rect x="1514" y="496" width="1046" height="1463"/></clipPath></defs><g clip-path="url(#clip0)" transform="translate(-1514 -496)"><rect x="1789.5" y="1659.5" width="497" height="297" stroke="#2F528F" stroke-width="4.58333" stroke-miterlimit="8" fill="#4472C4"/><text fill="#FFFFFF" font-family="Calibri,Calibri_MSFontService,sans-serif" font-weight="400" font-size="83" transform="matrix(1 0 0 1 1855.17 1835)">YUV Image</text><path d="M1746.5 670.5C1746.5 575.507 1877.23 498.5 2038.5 498.5 2199.77 498.5 2330.5 575.507 2330.5 670.5 2330.5 765.493 2199.77 842.5 2038.5 842.5 1877.23 842.5 1746.5 765.493 1746.5 670.5Z" stroke="#2F528F" stroke-width="4.58333" stroke-miterlimit="8" fill="#00B050" fill-rule="evenodd"/><text fill="#FFFFFF" font-family="Calibri,Calibri_MSFontService,sans-serif" font-weight="400" font-size="83" transform="matrix(1 0 0 1 1880.67 697)">Process Y</text><path d="M3.43756 41.25 3.4378 219.11-3.4372 219.11-3.43744 41.25ZM-22.9166 45.8334 0 0 22.9167 45.8333ZM22.917 214.526 0.000360892 260.36-22.9164 214.526Z" fill="#4472C4" transform="matrix(1 0 0 -1 2038.5 1659.86)"/><rect x="1789.5" y="1102.5" width="497" height="297" stroke="#2F528F" stroke-width="4.58333" stroke-miterlimit="8" fill="#4472C4"/><text fill="#FFFFFF" font-family="Calibri,Calibri_MSFontService,sans-serif" font-weight="400" font-size="83" transform="matrix(1 0 0 1 1843.43 1229)">Image from <tspan font-size="83" x="32.0833" y="99">channel Y</tspan></text><path d="M3.43756 41.25 3.4378 219.109-3.4372 219.109-3.43744 41.25ZM-22.9166 45.8334 0 0 22.9167 45.8333ZM22.917 214.526 0.000360892 260.359-22.9164 214.526Z" fill="#4472C4" transform="matrix(1 0 0 -1 2038.5 1102.86)"/><path d="M1514.5 1804.06 1747.95 1804.06 1747.95 1810.94 1514.5 1810.94ZM1743.37 1784.58 1789.2 1807.5 1743.37 1830.42Z" fill="#4472C4"/><path d="M2286.5 1804.06 2472.6 1804.06 2472.6 1810.94 2286.5 1810.94ZM2468.02 1784.58 2513.85 1807.5 2468.02 1830.42Z" fill="#4472C4"/></g></svg>