<!DOCTYPE svg PUBLIC "-//W3C//DTD SVG 1.1//EN"
 "http://www.w3.org/Graphics/SVG/1.1/DTD/svg11.dtd">
<svg version="1.1"
 width="600px" height="488px"
 viewBox="0 0 600 488"
 xmlns="http://www.w3.org/2000/svg" shape-rendering="crispEdges"
 stroke-width="1" text-rendering="geometricPrecision">
<polygon fill="white" points="83,7 115,7 115,16 83,16"/>
<text x="100" y="16" textLength="31" font-family="Helvetica" font-size="12" fill="black" text-anchor="middle">

Client
</text>
<polygon fill="white" points="252,7 346,7 346,16 252,16"/>
<text x="300" y="16" textLength="92" font-family="Helvetica" font-size="12" fill="black" text-anchor="middle">

UserKernel Code
</text>
<polygon fill="white" points="476,7 522,7 522,16 476,16"/>
<text x="500" y="16" textLength="45" font-family="Helvetica" font-size="12" fill="black" text-anchor="middle">

OpenVX
</text>
<line x1="100" y1="22" x2="100" y2="50" stroke="black"/>
<line x1="300" y1="22" x2="300" y2="50" stroke="black"/>
<line x1="500" y1="22" x2="500" y2="50" stroke="black"/>
<line x1="100" y1="33" x2="500" y2="33" stroke="black"/>
<polygon fill="black" points="500,33 490,39 490,27"/>
<polygon fill="white" points="211,23 387,23 387,32 211,32"/>
<text x="212" y="32" textLength="174" font-family="Helvetica" font-size="12" fill="blue">
vxLoadKernels(context, &quot;string&quot;);
</text>
<line x1="100" y1="50" x2="100" y2="78" stroke="black"/>
<line x1="300" y1="50" x2="300" y2="78" stroke="black"/>
<line x1="500" y1="50" x2="500" y2="78" stroke="black"/>
<polygon fill="white" points="208,50 592,50 592,72 208,72"/>
<line x1="208" y1="50" x2="592" y2="50" stroke="black"/>
<line x1="208" y1="72" x2="592" y2="72" stroke="black"/>
<line x1="208" y1="50" x2="208" y2="72" stroke="black"/>
<line x1="592" y1="50" x2="592" y2="72" stroke="black"/>
<polygon fill="white" points="309,57 490,57 490,66 309,66"/>
<text x="310" y="66" textLength="179" font-family="Helvetica" font-size="12" fill="black">
OS Specific Behavior (e.g. dlsym)
</text>
<line x1="100" y1="78" x2="100" y2="106" stroke="black"/>
<line x1="300" y1="78" x2="300" y2="106" stroke="black"/>
<line x1="500" y1="78" x2="500" y2="106" stroke="black"/>
<line x1="500" y1="89" x2="300" y2="89" stroke="black"/>
<line x1="300" y1="89" x2="310" y2="95" stroke="black"/>
<polygon fill="white" points="317,79 481,79 481,88 317,88"/>
<text x="318" y="88" textLength="162" font-family="Helvetica" font-size="12" fill="blue">
vx_publish_kernels_f(context);
</text>
<line x1="100" y1="106" x2="100" y2="123" stroke="black"/>
<line x1="300" y1="106" x2="300" y2="123" stroke="black"/>
<line x1="500" y1="106" x2="500" y2="123" stroke="black"/>
<line x1="50" y1="111" x2="550" y2="111" stroke="black" stroke-dasharray="2,2"/>
<polygon fill="white" points="252,107 347,107 347,116 252,116"/>
<text x="253" y="116" textLength="93" font-family="Helvetica" font-size="12" fill="black">
// for each kernel:
</text>
<line x1="100" y1="123" x2="100" y2="151" stroke="black"/>
<line x1="300" y1="123" x2="300" y2="151" stroke="black"/>
<line x1="500" y1="123" x2="500" y2="151" stroke="black"/>
<line x1="300" y1="134" x2="500" y2="134" stroke="black"/>
<polygon fill="black" points="500,134 490,140 490,128"/>
<polygon fill="white" points="352,124 447,124 447,133 352,133"/>
<text x="353" y="133" textLength="93" font-family="Helvetica" font-size="12" fill="blue">
vxAddUserKernel
</text>
<line x1="100" y1="151" x2="100" y2="179" stroke="black"/>
<line x1="300" y1="151" x2="300" y2="179" stroke="black"/>
<line x1="500" y1="151" x2="500" y2="179" stroke="black"/>
<line x1="500" y1="162" x2="300" y2="162" stroke="black" stroke-dasharray="2,2"/>
<polygon fill="black" points="300,162 310,168 310,156"/>
<polygon fill="white" points="373,152 426,152 426,161 373,161"/>
<text x="374" y="161" textLength="51" font-family="Helvetica" font-size="12" fill="blue">
vx_kernel
</text>
<line x1="100" y1="179" x2="100" y2="196" stroke="black"/>
<line x1="300" y1="179" x2="300" y2="196" stroke="black"/>
<line x1="500" y1="179" x2="500" y2="196" stroke="black"/>
<line x1="50" y1="184" x2="550" y2="184" stroke="black" stroke-dasharray="2,2"/>
<polygon fill="white" points="241,180 358,180 358,189 241,189"/>
<text x="242" y="189" textLength="115" font-family="Helvetica" font-size="12" fill="black">
// for each parameter:
</text>
<line x1="100" y1="196" x2="100" y2="224" stroke="black"/>
<line x1="300" y1="196" x2="300" y2="224" stroke="black"/>
<line x1="500" y1="196" x2="500" y2="224" stroke="black"/>
<line x1="300" y1="207" x2="500" y2="207" stroke="black"/>
<polygon fill="black" points="500,207 490,213 490,201"/>
<polygon fill="white" points="301,197 498,197 498,206 301,206"/>
<text x="302" y="206" textLength="195" font-family="Helvetica" font-size="12" fill="blue">
vxAddParameterToKernel(kernel, ...)
</text>
<line x1="100" y1="224" x2="100" y2="252" stroke="black"/>
<line x1="300" y1="224" x2="300" y2="252" stroke="black"/>
<line x1="500" y1="224" x2="500" y2="252" stroke="black"/>
<line x1="500" y1="235" x2="300" y2="235" stroke="black" stroke-dasharray="2,2"/>
<polygon fill="black" points="300,235 310,241 310,229"/>
<polygon fill="white" points="373,225 426,225 426,234 373,234"/>
<text x="374" y="234" textLength="51" font-family="Helvetica" font-size="12" fill="blue">
vx_status
</text>
<line x1="100" y1="252" x2="100" y2="269" stroke="black" stroke-dasharray="2,2"/>
<line x1="300" y1="252" x2="300" y2="269" stroke="black" stroke-dasharray="2,2"/>
<line x1="500" y1="252" x2="500" y2="269" stroke="black" stroke-dasharray="2,2"/>
<line x1="100" y1="269" x2="100" y2="286" stroke="black"/>
<line x1="300" y1="269" x2="300" y2="286" stroke="black"/>
<line x1="500" y1="269" x2="500" y2="286" stroke="black"/>
<line x1="50" y1="274" x2="550" y2="274" stroke="black" stroke-dasharray="2,2"/>
<polygon fill="white" points="269,270 330,270 330,279 269,279"/>
<text x="270" y="279" textLength="59" font-family="Helvetica" font-size="12" fill="black">
// [optional]
</text>
<line x1="100" y1="286" x2="100" y2="314" stroke="black"/>
<line x1="300" y1="286" x2="300" y2="314" stroke="black"/>
<line x1="500" y1="286" x2="500" y2="314" stroke="black"/>
<line x1="300" y1="297" x2="500" y2="297" stroke="black"/>
<polygon fill="black" points="500,297 490,303 490,291"/>
<polygon fill="white" points="303,287 496,287 496,296 303,296"/>
<text x="304" y="296" textLength="191" font-family="Helvetica" font-size="12" fill="blue">
vxSetKernelAttribute(kernel, attr, ...)
</text>
<line x1="100" y1="314" x2="100" y2="331" stroke="black" stroke-dasharray="2,2"/>
<line x1="300" y1="314" x2="300" y2="331" stroke="black" stroke-dasharray="2,2"/>
<line x1="500" y1="314" x2="500" y2="331" stroke="black" stroke-dasharray="2,2"/>
<line x1="100" y1="331" x2="100" y2="359" stroke="black"/>
<line x1="300" y1="331" x2="300" y2="359" stroke="black"/>
<line x1="500" y1="331" x2="500" y2="359" stroke="black"/>
<line x1="300" y1="342" x2="500" y2="342" stroke="black"/>
<polygon fill="black" points="500,342 490,348 490,336"/>
<polygon fill="white" points="334,332 465,332 465,341 334,341"/>
<text x="335" y="341" textLength="129" font-family="Helvetica" font-size="12" fill="blue">
vxFinalizeKernel(kernel)
</text>
<line x1="100" y1="359" x2="100" y2="387" stroke="black"/>
<line x1="300" y1="359" x2="300" y2="387" stroke="black"/>
<line x1="500" y1="359" x2="500" y2="387" stroke="black"/>
<line x1="500" y1="370" x2="300" y2="370" stroke="black" stroke-dasharray="2,2"/>
<polygon fill="black" points="300,370 310,376 310,364"/>
<polygon fill="white" points="373,360 426,360 426,369 373,369"/>
<text x="374" y="369" textLength="51" font-family="Helvetica" font-size="12" fill="blue">
vx_status
</text>
<line x1="100" y1="387" x2="100" y2="404" stroke="black" stroke-dasharray="2,2"/>
<line x1="300" y1="387" x2="300" y2="404" stroke="black" stroke-dasharray="2,2"/>
<line x1="500" y1="387" x2="500" y2="404" stroke="black" stroke-dasharray="2,2"/>
<line x1="100" y1="404" x2="100" y2="432" stroke="black"/>
<line x1="300" y1="404" x2="300" y2="432" stroke="black"/>
<line x1="500" y1="404" x2="500" y2="432" stroke="black"/>
<line x1="500" y1="415" x2="100" y2="415" stroke="black" stroke-dasharray="2,2"/>
<polygon fill="black" points="100,415 110,421 110,409"/>
<polygon fill="white" points="273,405 326,405 326,414 273,414"/>
<text x="274" y="414" textLength="51" font-family="Helvetica" font-size="12" fill="blue">
vx_status
</text>
<line x1="100" y1="432" x2="100" y2="460" stroke="black"/>
<line x1="300" y1="432" x2="300" y2="460" stroke="black"/>
<line x1="500" y1="432" x2="500" y2="460" stroke="black"/>
<polygon fill="white" points="8,432 592,432 592,454 8,454"/>
<line x1="8" y1="432" x2="592" y2="432" stroke="black"/>
<line x1="8" y1="454" x2="592" y2="454" stroke="black"/>
<line x1="8" y1="432" x2="8" y2="454" stroke="black"/>
<line x1="592" y1="432" x2="592" y2="454" stroke="black"/>
<polygon fill="white" points="255,439 344,439 344,448 255,448"/>
<text x="256" y="448" textLength="87" font-family="Helvetica" font-size="12" fill="black">
Graph Executed
</text>
<line x1="100" y1="460" x2="100" y2="488" stroke="black"/>
<line x1="300" y1="460" x2="300" y2="488" stroke="black"/>
<line x1="500" y1="460" x2="500" y2="488" stroke="black"/>
<polygon fill="white" points="8,460 592,460 592,482 8,482"/>
<line x1="8" y1="460" x2="592" y2="460" stroke="black"/>
<line x1="8" y1="482" x2="592" y2="482" stroke="black"/>
<line x1="8" y1="460" x2="8" y2="482" stroke="black"/>
<line x1="592" y1="460" x2="592" y2="482" stroke="black"/>
<polygon fill="white" points="255,467 344,467 344,476 255,476"/>
<text x="256" y="476" textLength="87" font-family="Helvetica" font-size="12" fill="black">
Graph Released
</text>
<line x1="100" y1="482" x2="100" y2="488" stroke="black"/>
<line x1="300" y1="482" x2="300" y2="488" stroke="black"/>
<line x1="500" y1="482" x2="500" y2="488" stroke="black"/>
</svg>
