<svg width="2705" height="1432" xmlns="http://www.w3.org/2000/svg" xmlns:xlink="http://www.w3.org/1999/xlink" xml:space="preserve" overflow="hidden"><defs><clipPath id="clip0"><rect x="848" y="522" width="2705" height="1432"/></clipPath></defs><g clip-path="url(#clip0)" transform="translate(-848 -522)"><rect x="850.5" y="1040.5" width="498" height="296" stroke="#2F528F" stroke-width="4.58333" stroke-miterlimit="8" fill="#4472C4"/><text fill="#FFFFFF" font-family="Calibri,Calibri_MSFontService,sans-serif" font-weight="400" font-size="83" transform="matrix(1 0 0 1 958.346 1216)">Object 1</text><path d="M1163.5 696.5C1163.5 601.507 1294.23 524.5 1455.5 524.5 1616.77 524.5 1747.5 601.507 1747.5 696.5 1747.5 791.493 1616.77 868.5 1455.5 868.5 1294.23 868.5 1163.5 791.493 1163.5 696.5Z" stroke="#A6A6A6" stroke-width="4.58333" stroke-miterlimit="8" fill="#A6A6A6" fill-rule="evenodd"/><text fill="#FFFFFF" font-family="Calibri,Calibri_MSFontService,sans-serif" font-weight="400" font-size="83" transform="matrix(1 0 0 1 1330.97 723)">Node A</text><path d="M1163.5 1779.5C1163.5 1684.51 1294.23 1607.5 1455.5 1607.5 1616.77 1607.5 1747.5 1684.51 1747.5 1779.5 1747.5 1874.49 1616.77 1951.5 1455.5 1951.5 1294.23 1951.5 1163.5 1874.49 1163.5 1779.5Z" stroke="#A6A6A6" stroke-width="4.58333" stroke-miterlimit="8" fill="#A6A6A6" fill-rule="evenodd"/><text fill="#FFFFFF" font-family="Calibri,Calibri_MSFontService,sans-serif" font-weight="400" font-size="83" transform="matrix(1 0 0 1 1332.4 1807)">Node B</text><path d="M1102.62 1335.05 1234.43 1618.58 1228.2 1621.48 1096.38 1337.95ZM1250.16 1606.21 1248.7 1657.44 1208.6 1625.54Z" fill="#4472C4"/><path d="M25.8322 32.3431 129.082 186.281 123.372 190.111 20.1226 36.1727ZM6.49829 50.8295 0 0 44.5626 25.2991ZM142.706 171.625 149.204 222.454 104.642 197.155Z" fill="#4472C4" transform="matrix(1 0 0 -1 1099.5 1040.95)"/><rect x="1546.5" y="1050.5" width="497" height="297" stroke="#2F528F" stroke-width="4.58333" stroke-miterlimit="8" fill="#4472C4"/><text fill="#FFFFFF" font-family="Calibri,Calibri_MSFontService,sans-serif" font-weight="400" font-size="83" transform="matrix(1 0 0 1 1653.53 1226)">Object 2</text><path d="M19.391 36.5701 119.877 271.352 113.556 274.057 13.0705 39.2752ZM-3.03397 51.1533 0 0 39.1023 33.1192ZM135.981 259.474 132.947 310.627 93.8451 277.508Z" fill="#4472C4" transform="matrix(1 0 0 -1 1662.5 1658.13)"/><path d="M1792.46 1052.97 1679.97 856.024 1685.94 852.614 1798.43 1049.56ZM1665.33 869.665 1662.5 818.5 1705.13 846.933Z" fill="#4472C4"/><path d="M1571.75 973.5 1675.65 1081.25 1621.78 1081.25C1604.12 1324.82 1531.23 1474.04 1458.97 1414.53 1451.47 1408.35 1444.14 1400.01 1437.06 1389.6 1475.59 1332.93 1504.05 1218.88 1514.03 1081.25L1460.15 1081.25Z" fill="#FF0000" fill-rule="evenodd"/><path d="M1383.19 1427.5C1308.8 1427.5 1248.5 1224.24 1248.5 973.5L1356.25 973.5C1356.25 1224.24 1416.55 1427.5 1490.94 1427.5Z" fill="#CD0000" fill-rule="evenodd"/><path d="M1437.06 1389.6C1475.59 1332.93 1504.05 1218.88 1514.03 1081.25L1460.15 1081.25 1571.75 973.5 1675.65 1081.25 1621.78 1081.25C1607.04 1284.51 1553.01 1427.5 1490.94 1427.5L1383.19 1427.5C1308.8 1427.5 1248.5 1224.24 1248.5 973.5L1356.25 973.5C1356.25 1224.24 1416.55 1427.5 1490.94 1427.5" stroke="#FF0000" stroke-width="4.58333" stroke-miterlimit="8" fill="none" fill-rule="evenodd"/><rect x="2357.5" y="1040.5" width="497" height="296" stroke="#2F528F" stroke-width="4.58333" stroke-miterlimit="8" fill="#4472C4"/><text fill="#FFFFFF" font-family="Calibri,Calibri_MSFontService,sans-serif" font-weight="400" font-size="83" transform="matrix(1 0 0 1 2464.59 1216)">Object 1</text><path d="M2669.5 696.5C2669.5 601.507 2800.23 524.5 2961.5 524.5 3122.77 524.5 3253.5 601.507 3253.5 696.5 3253.5 791.493 3122.77 868.5 2961.5 868.5 2800.23 868.5 2669.5 791.493 2669.5 696.5Z" stroke="#A6A6A6" stroke-width="4.58333" stroke-miterlimit="8" fill="#A6A6A6" fill-rule="evenodd"/><text fill="#FFFFFF" font-family="Calibri,Calibri_MSFontService,sans-serif" font-weight="400" font-size="83" transform="matrix(1 0 0 1 2837.22 723)">Node A</text><path d="M2669.5 1779.5C2669.5 1684.51 2800.23 1607.5 2961.5 1607.5 3122.77 1607.5 3253.5 1684.51 3253.5 1779.5 3253.5 1874.49 3122.77 1951.5 2961.5 1951.5 2800.23 1951.5 2669.5 1874.49 2669.5 1779.5Z" stroke="#A6A6A6" stroke-width="4.58333" stroke-miterlimit="8" fill="#A6A6A6" fill-rule="evenodd"/><text fill="#FFFFFF" font-family="Calibri,Calibri_MSFontService,sans-serif" font-weight="400" font-size="83" transform="matrix(1 0 0 1 2838.65 1807)">Node B</text><path d="M2.85482-1.91478 129.081 186.281 123.372 190.111-2.85482 1.91478ZM142.706 171.625 149.204 222.454 104.642 197.155Z" fill="#4472C4" transform="matrix(1 0 0 -1 2606.5 1040.95)"/><path d="M2735.2 1621.48 2620.77 1375.35 2627.01 1372.46 2741.43 1618.58ZM2757.16 1606.21 2755.7 1657.44 2715.6 1625.54ZM2605.04 1387.72 2606.5 1336.5 2646.6 1368.4Z" fill="#4472C4"/><rect x="3052.5" y="1050.5" width="498" height="297" stroke="#2F528F" stroke-width="4.58333" stroke-miterlimit="8" fill="#4472C4"/><text fill="#FFFFFF" font-family="Calibri,Calibri_MSFontService,sans-serif" font-weight="400" font-size="83" transform="matrix(1 0 0 1 3159.78 1226)">Object 2</text><path d="M3171.48 816.795 3283.97 1013.74 3278 1017.15 3165.51 820.205ZM3298.61 1000.1 3301.45 1051.26 3258.82 1022.83Z" fill="#4472C4"/><path d="M336 0 443.673 112 387.673 112C368.599 354.988 292.393 501.824 217.463 439.969 210.121 433.908 202.944 425.925 196 416.098 235.608 360.042 265.012 247.81 275.673 112L219.673 112Z" fill="#FF0000" fill-rule="evenodd" transform="matrix(-1 0 0 1 3147.5 960.5)"/><path d="M140 454C62.68 454-2.89001e-14 250.737 0 2.89001e-14L112 0C112 250.737 174.68 454 252 454Z" fill="#CD0000" fill-rule="evenodd" transform="matrix(-1 0 0 1 3147.5 960.5)"/><path d="M196 416.098C235.607 360.041 265.012 247.809 275.673 112L219.673 112 336 0 443.673 112 387.673 112C371.88 313.184 316.018 454 252 454L140 454C62.68 454-2.89001e-14 250.737 0 2.89001e-14L112 0C112 250.737 174.68 454 252 454" stroke="#FF0000" stroke-width="4.58333" stroke-miterlimit="8" fill="none" fill-rule="evenodd" transform="matrix(-1 0 0 1 3147.5 960.5)"/><path d="M3.16022-1.35256 119.877 271.352 113.556 274.057-3.16022 1.35256ZM135.981 259.474 132.947 310.627 93.8451 277.508Z" fill="#4472C4" transform="matrix(-1 0 0 1 3301.45 1347.5)"/></g></svg>