<svg width="2347" height="1613" xmlns="http://www.w3.org/2000/svg" xmlns:xlink="http://www.w3.org/1999/xlink" xml:space="preserve" overflow="hidden"><defs><clipPath id="clip0"><rect x="1027" y="438" width="2347" height="1613"/></clipPath></defs><g clip-path="url(#clip0)" transform="translate(-1027 -438)"><rect x="1930.5" y="1231.5" width="497" height="297" stroke="#2F528F" stroke-width="4.58333" stroke-miterlimit="8" fill="#4472C4"/><text fill="#FFFFFF" font-family="Calibri,Calibri_MSFontService,sans-serif" font-weight="400" font-size="83" transform="matrix(1 0 0 1 1983.59 1357)">Non<tspan font-size="83" x="140.365" y="0">-</tspan><tspan font-size="83" x="165.573" y="0">Virtual</tspan><tspan font-size="83" x="84.2189" y="99">Object</tspan></text><path d="M1029.5 1059.5C1029.5 964.507 1160.23 887.5 1321.5 887.5 1482.77 887.5 1613.5 964.507 1613.5 1059.5 1613.5 1154.49 1482.77 1231.5 1321.5 1231.5 1160.23 1231.5 1029.5 1154.49 1029.5 1059.5Z" stroke="#2F528F" stroke-width="4.58333" stroke-miterlimit="8" fill="#4472C4" fill-rule="evenodd"/><text fill="#FFFFFF" font-family="Calibri,Calibri_MSFontService,sans-serif" font-weight="400" font-size="83" transform="matrix(1 0 0 1 1175.79 1037)">Optional<tspan font-size="83" x="54.1521" y="99">Node</tspan></text><path d="M1886.5 788.5C1886.5 693.507 2017.23 616.5 2178.5 616.5 2339.77 616.5 2470.5 693.507 2470.5 788.5 2470.5 883.493 2339.77 960.5 2178.5 960.5 2017.23 960.5 1886.5 883.493 1886.5 788.5Z" stroke="#00B050" stroke-width="4.58333" stroke-miterlimit="8" fill="#00B050" fill-rule="evenodd"/><text fill="#FFFFFF" font-family="Calibri,Calibri_MSFontService,sans-serif" font-weight="400" font-size="83" transform="matrix(1 0 0 1 2087.57 815)">Node</text><path d="M2787.5 1059.5C2787.5 964.507 2918.23 887.5 3079.5 887.5 3240.77 887.5 3371.5 964.507 3371.5 1059.5 3371.5 1154.49 3240.77 1231.5 3079.5 1231.5 2918.23 1231.5 2787.5 1154.49 2787.5 1059.5Z" stroke="#2F528F" stroke-width="4.58333" stroke-miterlimit="8" fill="#4472C4" fill-rule="evenodd"/><text fill="#FFFFFF" font-family="Calibri,Calibri_MSFontService,sans-serif" font-weight="400" font-size="83" transform="matrix(1 0 0 1 2934.32 1037)">Optional<tspan font-size="83" x="54.1521" y="99">Node</tspan></text><path d="M2787.5 1700.5C2787.5 1605.51 2918.23 1528.5 3079.5 1528.5 3240.77 1528.5 3371.5 1605.51 3371.5 1700.5 3371.5 1795.49 3240.77 1872.5 3079.5 1872.5 2918.23 1872.5 2787.5 1795.49 2787.5 1700.5Z" stroke="#2F528F" stroke-width="4.58333" stroke-miterlimit="8" fill="#4472C4" fill-rule="evenodd"/><text fill="#FFFFFF" font-family="Calibri,Calibri_MSFontService,sans-serif" font-weight="400" font-size="83" transform="matrix(1 0 0 1 2934.32 1678)">Optional<tspan font-size="83" x="54.1521" y="99">Node</tspan></text><path d="M1529.02 1178.42 1894.34 1358.79 1891.3 1364.95 1525.98 1184.58ZM1898.85 1339.29 1929.81 1380.13 1878.56 1380.39Z" fill="#4472C4"/><path d="M2428.9 1376.36 2836.76 1558.19 2833.97 1564.47 2426.1 1382.64ZM2840.51 1538.54 2873.04 1578.13 2821.85 1580.4Z" fill="#4472C4"/><path d="M1.3997-3.13962 409.265 178.694 406.466 184.974-1.3997 3.13962ZM413.01 159.037 445.541 198.63 394.348 200.899Z" fill="#4472C4" transform="matrix(1 0 0 -1 2427.5 1380.13)"/><path d="M2175.06 1190.62 2175.06 1001.75 2181.94 1001.75 2181.94 1190.62ZM2201.42 1186.04 2178.5 1231.87 2155.58 1186.04ZM2155.58 1006.33 2178.5 960.5 2201.42 1006.33Z" fill="#4472C4"/><path d="M1245.5 716.5 1270.83 716.5 1270.83 716.5 1308.83 716.5 1397.5 716.5 1397.5 799.917 1397.5 799.917 1397.5 835.667 1397.5 859.5 1308.83 859.5 1313.48 887.469 1270.83 859.5 1245.5 859.5 1245.5 835.667 1245.5 799.917 1245.5 799.917Z" stroke="#2F528F" stroke-width="4.58333" stroke-miterlimit="8" fill="none" fill-rule="evenodd"/><text font-family="Calibri,Calibri_MSFontService,sans-serif" font-weight="400" font-size="83" transform="matrix(1 0 0 1 1299.82 815)">1</text><path d="M2103.5 441.5 2128.67 441.5 2128.67 441.5 2166.42 441.5 2254.5 441.5 2254.5 524.917 2254.5 524.917 2254.5 560.667 2254.5 584.5 2166.42 584.5 2171.03 612.469 2128.67 584.5 2103.5 584.5 2103.5 560.667 2103.5 524.917 2103.5 524.917Z" stroke="#2F528F" stroke-width="4.58333" stroke-miterlimit="8" fill="none" fill-rule="evenodd"/><text font-family="Calibri,Calibri_MSFontService,sans-serif" font-weight="400" font-size="83" transform="matrix(1 0 0 1 2157.47 540)">2</text><path d="M3003.5 716.5 3028.83 716.5 3028.83 716.5 3066.83 716.5 3155.5 716.5 3155.5 799.917 3155.5 799.917 3155.5 835.667 3155.5 859.5 3066.83 859.5 3071.48 887.47 3028.83 859.5 3003.5 859.5 3003.5 835.667 3003.5 799.917 3003.5 799.917Z" stroke="#2F528F" stroke-width="4.58333" stroke-miterlimit="8" fill="none" fill-rule="evenodd"/><text font-family="Calibri,Calibri_MSFontService,sans-serif" font-weight="400" font-size="83" transform="matrix(1 0 0 1 3058.35 815)">3</text><path d="M3003.5 1352.5 3028.83 1352.5 3028.83 1352.5 3066.83 1352.5 3155.5 1352.5 3155.5 1435.92 3155.5 1435.92 3155.5 1471.67 3155.5 1495.5 3066.83 1495.5 3071.48 1523.47 3028.83 1495.5 3003.5 1495.5 3003.5 1471.67 3003.5 1435.92 3003.5 1435.92Z" stroke="#2F528F" stroke-width="4.58333" stroke-miterlimit="8" fill="none" fill-rule="evenodd"/><text font-family="Calibri,Calibri_MSFontService,sans-serif" font-weight="400" font-size="83" transform="matrix(1 0 0 1 3058.35 1451)">3</text><rect x="1995.5" y="1836.5" width="702" height="198" stroke="#2F528F" stroke-width="4.58333" stroke-miterlimit="8" fill="none"/><path d="M2347.95 1836.88 2345.88 1786.74 2183.3 1529.75" stroke="#2F528F" stroke-width="4.58333" stroke-miterlimit="8" fill="none" fill-rule="evenodd"/><text font-family="Calibri,Calibri_MSFontService,sans-serif" font-weight="400" font-size="64" transform="matrix(1 0 0 1 2055.98 1918)">Available for Dequeue<tspan font-size="64" x="118.021" y="77">(if Pipelining)</tspan></text><path d="M2052.5 1656.5 2077.67 1656.5 2077.67 1656.5 2115.42 1656.5 2203.5 1656.5 2203.5 1739.92 2203.5 1739.92 2203.5 1775.67 2203.5 1799.5 2115.42 1799.5 2120.03 1827.47 2077.67 1799.5 2052.5 1799.5 2052.5 1775.67 2052.5 1739.92 2052.5 1739.92Z" stroke="#2F528F" stroke-width="4.58333" stroke-miterlimit="8" fill="none" fill-rule="evenodd"/><text font-family="Calibri,Calibri_MSFontService,sans-serif" font-weight="400" font-size="83" transform="matrix(1 0 0 1 2106.45 1755)">4</text></g></svg>