<?xml version="1.0" encoding="UTF-8" standalone="no"?>
<!-- Created with Inkscape (http://www.inkscape.org/) -->

<svg
   xmlns:dc="http://purl.org/dc/elements/1.1/"
   xmlns:cc="http://creativecommons.org/ns#"
   xmlns:rdf="http://www.w3.org/1999/02/22-rdf-syntax-ns#"
   xmlns:svg="http://www.w3.org/2000/svg"
   xmlns="http://www.w3.org/2000/svg"
   xmlns:sodipodi="http://sodipodi.sourceforge.net/DTD/sodipodi-0.dtd"
   xmlns:inkscape="http://www.inkscape.org/namespaces/inkscape"
   version="1.1"
   id="svg10"
   xml:space="preserve"
   width="162.528mm"
   height="97.461662mm"
   viewBox="0 0 614.27909 368.35903"
   sodipodi:docname="Feature-set-Venn-diagram.svg"
   inkscape:version="0.92.1 r15371"><metadata
     id="metadata16"><rdf:RDF><cc:Work
         rdf:about=""><dc:format>image/svg+xml</dc:format><dc:type
           rdf:resource="http://purl.org/dc/dcmitype/StillImage" /><dc:title></dc:title></cc:Work></rdf:RDF></metadata><defs
     id="defs14"><clipPath
       clipPathUnits="userSpaceOnUse"
       id="clipPath26"><path
         d="M 0,1.2207e-4 H 960 V 540.00012 H 0 Z"
         id="path24"
         inkscape:connector-curvature="0"
         style="clip-rule:evenodd" /></clipPath><clipPath
       clipPathUnits="userSpaceOnUse"
       id="clipPath40"><path
         d="M 1.4305e-5,0 H 960.00001 V 540 H 1.4305e-5 Z"
         id="path38"
         inkscape:connector-curvature="0"
         style="clip-rule:evenodd" /></clipPath><clipPath
       clipPathUnits="userSpaceOnUse"
       id="clipPath52"><path
         d="M 1.4305e-5,0 H 960.00001 V 540 H 1.4305e-5 Z"
         id="path50"
         inkscape:connector-curvature="0"
         style="clip-rule:evenodd" /></clipPath><clipPath
       clipPathUnits="userSpaceOnUse"
       id="clipPath66"><path
         d="M 1.4305e-5,0 H 960.00001 V 540 H 1.4305e-5 Z"
         id="path64"
         inkscape:connector-curvature="0"
         style="clip-rule:evenodd" /></clipPath><clipPath
       clipPathUnits="userSpaceOnUse"
       id="clipPath78"><path
         d="M 1.4305e-5,0 H 960.00001 V 540 H 1.4305e-5 Z"
         id="path76"
         inkscape:connector-curvature="0"
         style="clip-rule:evenodd" /></clipPath><clipPath
       clipPathUnits="userSpaceOnUse"
       id="clipPath90"><path
         d="M 1.4305e-5,0 H 960.00001 V 540 H 1.4305e-5 Z"
         id="path88"
         inkscape:connector-curvature="0"
         style="clip-rule:evenodd" /></clipPath><clipPath
       clipPathUnits="userSpaceOnUse"
       id="clipPath102"><path
         d="M 1.4305e-5,0 H 960.00001 V 540 H 1.4305e-5 Z"
         id="path100"
         inkscape:connector-curvature="0"
         style="clip-rule:evenodd" /></clipPath><clipPath
       clipPathUnits="userSpaceOnUse"
       id="clipPath114"><path
         d="M 1.4305e-5,0 H 960.00001 V 540 H 1.4305e-5 Z"
         id="path112"
         inkscape:connector-curvature="0"
         style="clip-rule:evenodd" /></clipPath><clipPath
       clipPathUnits="userSpaceOnUse"
       id="clipPath126"><path
         d="M 1.4305e-5,0 H 960.00001 V 540 H 1.4305e-5 Z"
         id="path124"
         inkscape:connector-curvature="0"
         style="clip-rule:evenodd" /></clipPath><clipPath
       clipPathUnits="userSpaceOnUse"
       id="clipPath138"><path
         d="M 1.4305e-5,0 H 960.00001 V 540 H 1.4305e-5 Z"
         id="path136"
         inkscape:connector-curvature="0"
         style="clip-rule:evenodd" /></clipPath><clipPath
       clipPathUnits="userSpaceOnUse"
       id="clipPath150"><path
         d="M 5.626e-6,540 H 960 V 1.8311e-4 L -5.064e-6,1.2207e-4"
         id="path148"
         inkscape:connector-curvature="0"
         style="clip-rule:evenodd" /></clipPath><clipPath
       clipPathUnits="userSpaceOnUse"
       id="clipPath162"><path
         d="M 1.4305e-5,0 H 960.00001 V 540 H 1.4305e-5 Z"
         id="path160"
         inkscape:connector-curvature="0"
         style="clip-rule:evenodd" /></clipPath><clipPath
       clipPathUnits="userSpaceOnUse"
       id="clipPath174"><path
         d="M 1.4305e-5,0 H 960.00001 V 540 H 1.4305e-5 Z"
         id="path172"
         inkscape:connector-curvature="0"
         style="clip-rule:evenodd" /></clipPath><clipPath
       clipPathUnits="userSpaceOnUse"
       id="clipPath186"><path
         d="M 1.4305e-5,0 H 960.00001 V 540 H 1.4305e-5 Z"
         id="path184"
         inkscape:connector-curvature="0"
         style="clip-rule:evenodd" /></clipPath><clipPath
       clipPathUnits="userSpaceOnUse"
       id="clipPath198"><path
         d="M 1.4305e-5,0 H 960.00001 V 540 H 1.4305e-5 Z"
         id="path196"
         inkscape:connector-curvature="0"
         style="clip-rule:evenodd" /></clipPath></defs><sodipodi:namedview
     pagecolor="#ffffff"
     bordercolor="#666666"
     borderopacity="1"
     objecttolerance="10"
     gridtolerance="10"
     guidetolerance="10"
     inkscape:pageopacity="0"
     inkscape:pageshadow="2"
     inkscape:window-width="999"
     inkscape:window-height="806"
     id="namedview12"
     showgrid="false"
     inkscape:zoom="1.1375"
     inkscape:cx="336.89953"
     inkscape:cy="187.93968"
     inkscape:window-x="341"
     inkscape:window-y="1199"
     inkscape:window-maximized="0"
     inkscape:current-layer="g18"
     fit-margin-top="1"
     fit-margin-left="1"
     fit-margin-right="1"
     fit-margin-bottom="1"
     units="mm" /><g
     id="g18"
     inkscape:groupmode="layer"
     inkscape:label="Feature-set-Venn-diagram"
     transform="matrix(1.3333333,0,0,-1.3333333,-303.10046,540.41951)"><path
       d="m 427.8,234.84 c 0,19.88 25.3,36 56.52,36 31.22,0 56.52,-16.12 56.52,-36 0,-19.88 -25.3,-36 -56.52,-36 -31.22,0 -56.52,16.12 -56.52,36 z"
       style="fill:#ffffff;fill-opacity:1;fill-rule:evenodd;stroke:none"
       id="path30"
       inkscape:connector-curvature="0" /><path
       d="m 427.8,234.84 c 0,19.88 25.3,36 56.52,36 31.22,0 56.52,-16.12 56.52,-36 0,-19.88 -25.3,-36 -56.52,-36 -31.22,0 -56.52,16.12 -56.52,36 z"
       style="fill:none;stroke:#c00000;stroke-width:0.95999998;stroke-linecap:butt;stroke-linejoin:miter;stroke-miterlimit:10;stroke-dasharray:none;stroke-opacity:1"
       id="path32"
       inkscape:connector-curvature="0" /><g
       id="g34"><g
         id="g36"
         clip-path="url(#clipPath40)"><text
           transform="matrix(1,0,0,-1,452.21,239.54)"
           style="font-variant:normal;font-weight:normal;font-size:18px;font-family:Calibri;-inkscape-font-specification:Calibri;writing-mode:lr-tb;fill:#000000;fill-opacity:1;fill-rule:nonzero;stroke:none"
           id="text44"><tspan
             x="0 4.086 18.468 27.09 35.568001 44.532001 48.599998 58.085999"
             y="0"
             sodipodi:role="line"
             id="tspan42">image or</tspan></text>
</g></g><g
       id="g46"><g
         id="g48"
         clip-path="url(#clipPath52)"><text
           transform="matrix(1,0,0,-1,460.85,217.94)"
           style="font-variant:normal;font-weight:normal;font-size:18px;font-family:Calibri;-inkscape-font-specification:Calibri;writing-mode:lr-tb;fill:#000000;fill-opacity:1;fill-rule:nonzero;stroke:none"
           id="text56"><tspan
             x="0 5.7600002 14.724 24.228001 31.266001 40.751999"
             y="0"
             sodipodi:role="line"
             id="tspan54">tensor</tspan></text>
</g></g><path
       d="m 265.74,267.18 c 0,74.09 93.64,134.16 209.16,134.16 115.52,0 209.16,-60.07 209.16,-134.16 0,-74.09 -93.64,-134.16 -209.16,-134.16 -115.52,0 -209.16,60.07 -209.16,134.16 z"
       style="fill:none;stroke:#00b050;stroke-width:2.27999997;stroke-linecap:butt;stroke-linejoin:miter;stroke-miterlimit:10;stroke-dasharray:none;stroke-opacity:1"
       id="path58"
       inkscape:connector-curvature="0" /><g
       id="g60"><g
         id="g62"
         clip-path="url(#clipPath66)"><text
           transform="matrix(1,0,0,-1,405.05,347.4)"
           style="font-variant:normal;font-weight:bold;font-size:27.95999908px;font-family:Calibri;-inkscape-font-specification:Calibri-Bold;writing-mode:lr-tb;fill:#000000;fill-opacity:1;fill-rule:nonzero;stroke:none"
           id="text70"><tspan
             x="0 17.614799 31.566839 44.540279 58.60416 65.482323 80.412956 95.427483 118.15896 132.22284 147.01369"
             y="0"
             sodipodi:role="line"
             id="tspan68">Development</tspan></text>
</g></g><g
       id="g72"><g
         id="g74"
         clip-path="url(#clipPath78)"><text
           transform="matrix(1,0,0,-1,592.25,297.62)"
           style="font-variant:normal;font-weight:normal;font-size:18px;font-family:Calibri;-inkscape-font-specification:Calibri;writing-mode:lr-tb;fill:#000000;fill-opacity:1;fill-rule:nonzero;stroke:none"
           id="text82"><tspan
             x="0 7.5599999 16.524 22.806 32.256001 41.256001"
             y="0"
             sodipodi:role="line"
             id="tspan80">kernel</tspan></text>
</g></g><g
       id="g84"><g
         id="g86"
         clip-path="url(#clipPath90)"><text
           transform="matrix(1,0,0,-1,596.21,276.02)"
           style="font-variant:normal;font-weight:normal;font-size:18px;font-family:Calibri;-inkscape-font-specification:Calibri;writing-mode:lr-tb;fill:#000000;fill-opacity:1;fill-rule:nonzero;stroke:none"
           id="text94"><tspan
             x="0 9.4499998 18.936001 28.386"
             y="0"
             sodipodi:role="line"
             id="tspan92">node</tspan></text>
</g></g><g
       id="g96"><g
         id="g98"
         clip-path="url(#clipPath102)"><text
           transform="matrix(1,0,0,-1,576.41,254.42)"
           style="font-variant:normal;font-weight:normal;font-size:18px;font-family:Calibri;-inkscape-font-specification:Calibri;writing-mode:lr-tb;fill:#000000;fill-opacity:1;fill-rule:nonzero;stroke:none"
           id="text106"><tspan
             x="0 9.4499998 18.072001 23.993999 32.616001 46.998001 55.962002 61.667999 70.632004"
             y="0"
             sodipodi:role="line"
             id="tspan104">parameter</tspan></text>
</g></g><g
       id="g108"><g
         id="g110"
         clip-path="url(#clipPath114)"><text
           transform="matrix(1,0,0,-1,568.37,232.82)"
           style="font-variant:normal;font-weight:normal;font-size:18px;font-family:Calibri;-inkscape-font-specification:Calibri;writing-mode:lr-tb;fill:#000000;fill-opacity:1;fill-rule:nonzero;stroke:none"
           id="text118"><tspan
             x="0 14.382 23.274 29.034"
             y="0"
             sodipodi:role="line"
             id="tspan116">meta</tspan></text>
</g></g><g
       id="g120"><g
         id="g122"
         clip-path="url(#clipPath126)"><text
           transform="matrix(1,0,0,-1,606.05,232.82)"
           style="font-variant:normal;font-weight:normal;font-size:18px;font-family:Calibri;-inkscape-font-specification:Calibri;writing-mode:lr-tb;fill:#000000;fill-opacity:1;fill-rule:nonzero;stroke:none"
           id="text130"><tspan
             x="0"
             y="0"
             id="tspan128">-</tspan></text>
</g></g><g
       id="g132"><g
         id="g134"
         clip-path="url(#clipPath138)"><text
           transform="matrix(1,0,0,-1,611.59,232.82)"
           style="font-variant:normal;font-weight:normal;font-size:18px;font-family:Calibri;-inkscape-font-specification:Calibri;writing-mode:lr-tb;fill:#000000;fill-opacity:1;fill-rule:nonzero;stroke:none"
           id="text142"><tspan
             x="0 5.1659999 14.652 20.934 35.316002 43.812"
             y="0"
             sodipodi:role="line"
             id="tspan140">format</tspan></text>
</g></g><g
       id="g144"><g
         id="g146"
         clip-path="url(#clipPath150)"><path
           d="m 247.48,236.05 c -0.04,-0.02 -0.08,-0.03 -0.12,-0.02 -0.04,0.01 -0.08,0.03 -0.12,0.07 -0.05,0.03 -0.09,0.09 -0.15,0.17 -0.05,0.08 -0.1,0.19 -0.17,0.32 -0.06,0.12 -0.11,0.23 -0.14,0.32 -0.03,0.09 -0.04,0.17 -0.05,0.23 0,0.06 0.01,0.1 0.03,0.14 0.02,0.03 0.05,0.05 0.09,0.08 l 7.13,3.44 c 0.03,0.01 0.07,0.02 0.11,0.02 0.04,-0.01 0.09,-0.03 0.13,-0.07 0.05,-0.04 0.1,-0.1 0.15,-0.18 0.05,-0.08 0.1,-0.18 0.17,-0.3 0.06,-0.14 0.11,-0.25 0.14,-0.34 0.03,-0.09 0.04,-0.16 0.04,-0.22 0.01,-0.06 0,-0.1 -0.03,-0.14 -0.02,-0.04 -0.05,-0.06 -0.08,-0.08 z m 9.61,4.45 c -0.31,-0.15 -0.55,-0.19 -0.71,-0.13 -0.17,0.07 -0.33,0.25 -0.48,0.56 -0.15,0.31 -0.19,0.55 -0.14,0.71 0.05,0.17 0.23,0.32 0.53,0.47 0.31,0.15 0.54,0.19 0.71,0.13 0.17,-0.07 0.32,-0.25 0.48,-0.56 0.14,-0.31 0.19,-0.55 0.14,-0.71 -0.06,-0.17 -0.23,-0.32 -0.53,-0.47 z m -3.36,-17.38 c -0.04,-0.02 -0.08,-0.03 -0.12,-0.02 -0.04,0 -0.08,0.03 -0.13,0.06 -0.04,0.04 -0.09,0.1 -0.14,0.18 -0.05,0.08 -0.11,0.18 -0.17,0.31 -0.06,0.13 -0.11,0.24 -0.14,0.33 -0.03,0.09 -0.05,0.16 -0.05,0.22 0,0.06 0.01,0.11 0.03,0.15 0.01,0.03 0.04,0.06 0.09,0.08 l 4.33,2.09 c 0.3,0.15 0.56,0.3 0.78,0.48 0.22,0.17 0.4,0.36 0.52,0.56 0.12,0.2 0.19,0.42 0.2,0.64 0.01,0.23 -0.05,0.46 -0.17,0.7 -0.14,0.3 -0.4,0.55 -0.78,0.74 -0.38,0.19 -0.88,0.36 -1.51,0.51 l -4.97,-2.4 c -0.05,-0.02 -0.09,-0.03 -0.13,-0.02 -0.04,0 -0.08,0.03 -0.12,0.07 -0.05,0.04 -0.1,0.1 -0.15,0.17 -0.05,0.08 -0.11,0.19 -0.17,0.31 -0.06,0.13 -0.1,0.23 -0.13,0.32 -0.03,0.1 -0.05,0.17 -0.05,0.23 -0.01,0.06 0,0.11 0.02,0.14 0.02,0.03 0.05,0.06 0.09,0.08 l 4.33,2.09 c 0.3,0.15 0.56,0.31 0.78,0.49 0.22,0.17 0.4,0.37 0.52,0.57 0.12,0.2 0.19,0.41 0.2,0.64 0.01,0.22 -0.05,0.45 -0.16,0.69 -0.15,0.3 -0.41,0.55 -0.79,0.75 -0.38,0.19 -0.88,0.36 -1.5,0.5 l -4.98,-2.4 c -0.04,-0.03 -0.08,-0.03 -0.12,-0.02 -0.04,0 -0.08,0.02 -0.13,0.06 -0.04,0.04 -0.09,0.1 -0.14,0.18 -0.05,0.08 -0.11,0.18 -0.17,0.31 -0.06,0.13 -0.11,0.24 -0.14,0.33 -0.03,0.09 -0.05,0.16 -0.05,0.22 0,0.06 0,0.11 0.02,0.14 0.02,0.03 0.06,0.06 0.1,0.08 l 7.12,3.44 c 0.04,0.02 0.08,0.03 0.12,0.03 0.04,0 0.08,-0.02 0.12,-0.06 0.05,-0.03 0.1,-0.09 0.14,-0.16 0.04,-0.07 0.09,-0.16 0.15,-0.28 0.06,-0.12 0.1,-0.22 0.13,-0.3 0.03,-0.08 0.04,-0.15 0.04,-0.2 0,-0.05 -0.02,-0.1 -0.04,-0.13 -0.02,-0.03 -0.05,-0.06 -0.09,-0.08 l -0.94,-0.45 c 0.64,-0.19 1.16,-0.42 1.55,-0.69 0.39,-0.28 0.68,-0.61 0.86,-1 0.15,-0.29 0.24,-0.57 0.28,-0.84 0.05,-0.27 0.05,-0.52 0.02,-0.76 -0.04,-0.24 -0.12,-0.47 -0.23,-0.68 -0.11,-0.2 -0.25,-0.4 -0.42,-0.59 0.38,-0.11 0.7,-0.23 0.99,-0.36 0.28,-0.13 0.52,-0.26 0.73,-0.41 0.21,-0.14 0.38,-0.29 0.52,-0.46 0.14,-0.16 0.26,-0.34 0.35,-0.53 0.22,-0.46 0.33,-0.88 0.32,-1.27 -0.01,-0.39 -0.11,-0.74 -0.28,-1.07 -0.18,-0.32 -0.43,-0.61 -0.75,-0.86 -0.32,-0.26 -0.68,-0.49 -1.09,-0.68 z m 8,-7.18 c -0.62,-0.31 -1.22,-0.51 -1.78,-0.61 -0.56,-0.11 -1.07,-0.11 -1.55,-0.02 -0.47,0.09 -0.89,0.29 -1.26,0.58 -0.38,0.3 -0.68,0.69 -0.92,1.19 -0.1,0.21 -0.18,0.42 -0.22,0.62 -0.05,0.2 -0.07,0.4 -0.06,0.62 0.01,0.21 0.04,0.44 0.1,0.67 0.05,0.24 0.13,0.5 0.22,0.77 l -3.56,-1.72 c -0.05,-0.02 -0.09,-0.02 -0.13,-0.02 -0.04,0.01 -0.08,0.03 -0.13,0.07 -0.04,0.03 -0.09,0.09 -0.14,0.17 -0.05,0.08 -0.11,0.19 -0.17,0.32 -0.06,0.13 -0.11,0.23 -0.14,0.32 -0.03,0.09 -0.05,0.17 -0.05,0.23 0,0.06 0.01,0.1 0.03,0.14 0.02,0.03 0.05,0.06 0.1,0.08 l 9.94,4.81 c 0.05,0.02 0.09,0.03 0.13,0.03 0.04,-0.01 0.08,-0.02 0.12,-0.06 0.05,-0.04 0.09,-0.09 0.13,-0.16 0.05,-0.07 0.09,-0.16 0.14,-0.27 0.06,-0.11 0.1,-0.2 0.12,-0.28 0.03,-0.07 0.05,-0.14 0.05,-0.19 0,-0.06 -0.01,-0.11 -0.03,-0.14 -0.02,-0.03 -0.05,-0.06 -0.1,-0.08 l -0.96,-0.47 c 0.33,-0.1 0.62,-0.22 0.88,-0.34 0.26,-0.12 0.49,-0.26 0.7,-0.41 0.21,-0.15 0.39,-0.32 0.55,-0.51 0.16,-0.18 0.29,-0.4 0.41,-0.63 0.25,-0.52 0.36,-1.01 0.34,-1.47 -0.03,-0.46 -0.16,-0.89 -0.4,-1.29 -0.23,-0.4 -0.56,-0.76 -0.97,-1.09 -0.41,-0.33 -0.87,-0.61 -1.39,-0.86 z m -0.81,1.28 c 0.37,0.17 0.71,0.37 1.02,0.59 0.31,0.22 0.57,0.46 0.77,0.72 0.2,0.27 0.32,0.55 0.37,0.86 0.05,0.3 -0.01,0.62 -0.18,0.96 -0.08,0.17 -0.18,0.33 -0.31,0.47 -0.13,0.14 -0.29,0.27 -0.48,0.38 -0.19,0.12 -0.42,0.23 -0.69,0.33 -0.26,0.1 -0.58,0.19 -0.94,0.28 l -2.83,-1.37 c -0.26,-0.58 -0.43,-1.08 -0.51,-1.52 -0.07,-0.43 -0.03,-0.83 0.15,-1.18 0.16,-0.33 0.37,-0.58 0.64,-0.74 0.28,-0.16 0.58,-0.25 0.91,-0.26 0.34,-0.02 0.68,0.01 1.05,0.1 0.36,0.09 0.7,0.22 1.03,0.38 z m 4.93,-9.91 c -0.58,-0.28 -1.15,-0.46 -1.71,-0.54 -0.56,-0.08 -1.09,-0.06 -1.59,0.07 -0.5,0.14 -0.96,0.38 -1.38,0.74 -0.42,0.36 -0.77,0.84 -1.06,1.45 -0.29,0.58 -0.44,1.13 -0.48,1.65 -0.04,0.52 0.04,1.01 0.23,1.46 0.2,0.45 0.49,0.86 0.9,1.23 0.41,0.37 0.91,0.71 1.51,1 0.58,0.28 1.15,0.46 1.71,0.54 0.56,0.09 1.09,0.07 1.59,-0.07 0.5,-0.13 0.96,-0.37 1.38,-0.73 0.41,-0.36 0.76,-0.85 1.06,-1.45 0.28,-0.59 0.44,-1.14 0.48,-1.66 0.03,-0.52 -0.05,-1.01 -0.24,-1.46 -0.19,-0.45 -0.49,-0.86 -0.89,-1.23 -0.41,-0.38 -0.91,-0.71 -1.51,-1 z m -0.74,1.31 c 0.39,0.19 0.74,0.4 1.04,0.64 0.31,0.24 0.56,0.5 0.73,0.79 0.18,0.29 0.28,0.61 0.29,0.97 0.02,0.35 -0.08,0.74 -0.28,1.16 -0.19,0.39 -0.42,0.69 -0.69,0.9 -0.27,0.22 -0.58,0.35 -0.91,0.41 -0.34,0.06 -0.7,0.05 -1.09,-0.02 -0.39,-0.08 -0.78,-0.22 -1.19,-0.41 -0.39,-0.19 -0.74,-0.41 -1.05,-0.64 -0.3,-0.24 -0.55,-0.51 -0.72,-0.8 -0.18,-0.29 -0.27,-0.61 -0.28,-0.97 -0.02,-0.35 0.08,-0.74 0.28,-1.16 0.19,-0.38 0.41,-0.68 0.69,-0.9 0.27,-0.21 0.58,-0.35 0.91,-0.41 0.34,-0.07 0.7,-0.06 1.08,0.02 0.38,0.09 0.78,0.22 1.19,0.42 z m 6.69,-5.93 c -0.11,-0.05 -0.21,-0.1 -0.29,-0.13 -0.08,-0.03 -0.15,-0.05 -0.2,-0.06 -0.06,0 -0.1,0 -0.14,0.01 -0.03,0.01 -0.06,0.04 -0.08,0.08 -0.02,0.05 -0.03,0.1 -0.04,0.18 0,0.07 -0.01,0.15 -0.03,0.24 -0.01,0.08 -0.03,0.18 -0.05,0.28 -0.03,0.11 -0.07,0.22 -0.12,0.33 -0.06,0.13 -0.15,0.25 -0.27,0.35 -0.11,0.1 -0.26,0.19 -0.45,0.27 -0.19,0.08 -0.42,0.15 -0.7,0.21 -0.27,0.05 -0.6,0.1 -0.98,0.15 l -4.68,-2.26 c -0.04,-0.02 -0.08,-0.03 -0.12,-0.02 -0.04,0 -0.08,0.03 -0.13,0.06 -0.04,0.04 -0.09,0.1 -0.14,0.18 -0.05,0.08 -0.11,0.18 -0.17,0.31 -0.07,0.13 -0.11,0.24 -0.14,0.33 -0.03,0.09 -0.05,0.16 -0.05,0.22 0,0.06 0,0.11 0.02,0.14 0.02,0.04 0.06,0.06 0.1,0.08 l 7.12,3.44 c 0.04,0.02 0.08,0.03 0.12,0.03 0.04,0 0.08,-0.02 0.12,-0.06 0.05,-0.03 0.1,-0.09 0.14,-0.16 0.04,-0.07 0.09,-0.16 0.15,-0.28 0.06,-0.12 0.1,-0.22 0.13,-0.3 0.03,-0.08 0.04,-0.14 0.04,-0.2 0,-0.05 -0.02,-0.1 -0.04,-0.13 -0.02,-0.03 -0.05,-0.06 -0.09,-0.08 l -1.04,-0.5 c 0.38,-0.06 0.7,-0.13 0.97,-0.21 0.26,-0.09 0.48,-0.18 0.65,-0.28 0.18,-0.11 0.33,-0.22 0.44,-0.36 0.11,-0.13 0.2,-0.27 0.28,-0.42 0.03,-0.07 0.06,-0.15 0.1,-0.24 0.03,-0.09 0.06,-0.19 0.09,-0.3 0.02,-0.1 0.04,-0.2 0.05,-0.29 0.01,-0.09 0.01,-0.15 0,-0.2 -0.01,-0.04 -0.03,-0.07 -0.05,-0.1 -0.02,-0.02 -0.04,-0.04 -0.07,-0.07 -0.04,-0.02 -0.09,-0.06 -0.16,-0.09 -0.07,-0.04 -0.16,-0.09 -0.29,-0.15 z m -3.64,-8.12 c -0.15,-0.07 -0.28,-0.12 -0.38,-0.14 -0.1,-0.02 -0.18,-0.03 -0.24,0 -0.06,0.02 -0.13,0.06 -0.21,0.13 -0.08,0.07 -0.15,0.15 -0.23,0.24 -0.08,0.1 -0.15,0.21 -0.23,0.32 -0.07,0.11 -0.14,0.23 -0.2,0.35 -0.17,0.37 -0.28,0.71 -0.31,1.02 -0.03,0.31 0.02,0.6 0.13,0.87 0.12,0.26 0.31,0.5 0.58,0.73 0.26,0.22 0.6,0.43 1.01,0.63 l 4.17,2.01 -0.49,1 c -0.03,0.08 -0.02,0.16 0.04,0.25 0.06,0.09 0.19,0.18 0.38,0.27 0.1,0.05 0.18,0.08 0.26,0.1 0.07,0.02 0.14,0.03 0.19,0.03 0.06,0 0.1,-0.01 0.14,-0.04 0.03,-0.02 0.06,-0.05 0.08,-0.1 l 0.48,-0.99 1.69,0.82 c 0.04,0.02 0.08,0.03 0.12,0.02 0.04,0 0.08,-0.02 0.13,-0.06 0.05,-0.04 0.1,-0.1 0.15,-0.18 0.05,-0.07 0.11,-0.18 0.17,-0.3 0.06,-0.14 0.11,-0.25 0.14,-0.34 0.03,-0.09 0.05,-0.16 0.04,-0.22 0,-0.06 -0.01,-0.11 -0.03,-0.14 -0.02,-0.04 -0.05,-0.07 -0.09,-0.08 l -1.69,-0.82 0.88,-1.83 c 0.02,-0.04 0.03,-0.08 0.03,-0.12 0,-0.04 -0.02,-0.09 -0.06,-0.13 -0.03,-0.05 -0.08,-0.09 -0.14,-0.14 -0.06,-0.04 -0.15,-0.09 -0.25,-0.13 -0.19,-0.1 -0.34,-0.14 -0.44,-0.13 -0.11,0 -0.18,0.05 -0.22,0.13 l -0.88,1.82 -3.98,-1.91 c -0.49,-0.24 -0.82,-0.49 -1,-0.76 -0.18,-0.27 -0.18,-0.59 0,-0.96 0.06,-0.12 0.12,-0.22 0.19,-0.31 0.07,-0.08 0.13,-0.15 0.2,-0.21 0.06,-0.07 0.11,-0.12 0.16,-0.16 0.05,-0.04 0.09,-0.08 0.11,-0.12 0.01,-0.03 0.02,-0.06 0.01,-0.09 0,-0.03 -0.01,-0.06 -0.04,-0.09 -0.03,-0.03 -0.08,-0.07 -0.14,-0.11 -0.06,-0.04 -0.13,-0.08 -0.23,-0.13 z"
           style="fill:#000000;fill-opacity:1;fill-rule:nonzero;stroke:none"
           id="path152"
           inkscape:connector-curvature="0" /></g></g><path
       d="m 231.3,235.02 c 0,49.11 71.67,88.92 160.08,88.92 88.41,0 160.08,-39.81 160.08,-88.92 0,-49.11 -71.67,-88.92 -160.08,-88.92 -88.41,0 -160.08,39.81 -160.08,88.92 z"
       style="fill:none;stroke:#0070c0;stroke-width:2.27999997;stroke-linecap:butt;stroke-linejoin:miter;stroke-miterlimit:10;stroke-dasharray:none;stroke-opacity:1"
       id="path154"
       inkscape:connector-curvature="0" /><g
       id="g156"><g
         id="g158"
         clip-path="url(#clipPath162)"><text
           transform="matrix(1,0,0,-1,315.55,276.02)"
           style="font-variant:normal;font-weight:bold;font-size:27.95999908px;font-family:Calibri;-inkscape-font-specification:Calibri-Bold;writing-mode:lr-tb;fill:#000000;fill-opacity:1;fill-rule:nonzero;stroke:none"
           id="text166"><tspan
             x="0 17.614799 31.67868 46.693199 53.571362 68.39016 81.643204 104.37468 118.43856 133.20145"
             y="0"
             sodipodi:role="line"
             id="tspan164">Deployment</tspan></text>
</g></g><g
       id="g168"><g
         id="g170"
         clip-path="url(#clipPath174)"><text
           transform="matrix(1,0,0,-1,360.53,234.29)"
           style="font-variant:normal;font-weight:normal;font-size:18px;font-family:Calibri;-inkscape-font-specification:Calibri;writing-mode:lr-tb;fill:#000000;fill-opacity:1;fill-rule:nonzero;stroke:none"
           id="text178"><tspan
             x="0 7.434 16.92 26.280001 32.040001 40.806 48.599998"
             y="0"
             sodipodi:role="line"
             id="tspan176">context</tspan></text>
</g></g><g
       id="g180"><g
         id="g182"
         clip-path="url(#clipPath186)"><text
           transform="matrix(1,0,0,-1,366.89,212.69)"
           style="font-variant:normal;font-weight:normal;font-size:18px;font-family:Calibri;-inkscape-font-specification:Calibri;writing-mode:lr-tb;fill:#000000;fill-opacity:1;fill-rule:nonzero;stroke:none"
           id="text190"><tspan
             x="0 8.4779997 14.4 23.021999 32.472"
             y="0"
             sodipodi:role="line"
             id="tspan188">graph</tspan></text>
</g></g><g
       id="g192"><g
         id="g194"
         clip-path="url(#clipPath198)"><text
           transform="matrix(1,0,0,-1,352.85,191.09)"
           style="font-variant:normal;font-weight:normal;font-size:18px;font-family:Calibri;-inkscape-font-specification:Calibri;writing-mode:lr-tb;fill:#000000;fill-opacity:1;fill-rule:nonzero;stroke:none"
           id="text202"><tspan
             x="0 5.994 14.868 19.908001 28.872 34.902 43.866001 53.369999 60.93"
             y="0"
             sodipodi:role="line"
             id="tspan200">reference</tspan></text>
</g></g></g></svg>