<?xml version="1.0" encoding="UTF-8" standalone="no"?>
<svg
   xmlns:dc="http://purl.org/dc/elements/1.1/"
   xmlns:cc="http://creativecommons.org/ns#"
   xmlns:rdf="http://www.w3.org/1999/02/22-rdf-syntax-ns#"
   xmlns:svg="http://www.w3.org/2000/svg"
   xmlns="http://www.w3.org/2000/svg"
   viewBox="0 0 956.35515 295.87526"
   height="7.8283663cm"
   width="25.303564cm"
   xml:space="preserve"
   id="svg10"
   version="1.1"><metadata
     id="metadata16"><rdf:RDF><cc:Work
         rdf:about=""><dc:format>image/svg+xml</dc:format><dc:type
           rdf:resource="http://purl.org/dc/dcmitype/StillImage" /><dc:title></dc:title></cc:Work></rdf:RDF></metadata><defs
     id="defs14"><clipPath
       id="clipPath26"
       clipPathUnits="userSpaceOnUse"><path
         style="clip-rule:evenodd"
         id="path24"
         d="M 0,1.2207e-4 H 720 V 540.00012 H 0 Z" /></clipPath><clipPath
       id="clipPath44"
       clipPathUnits="userSpaceOnUse"><path
         style="clip-rule:evenodd"
         id="path42"
         d="M 1.0729e-5,0 H 720.00001 V 540 H 1.0729e-5 Z" /></clipPath><clipPath
       id="clipPath60"
       clipPathUnits="userSpaceOnUse"><path
         style="clip-rule:evenodd"
         id="path58"
         d="M 1.0729e-5,0 H 720.00001 V 540 H 1.0729e-5 Z" /></clipPath><clipPath
       id="clipPath76"
       clipPathUnits="userSpaceOnUse"><path
         style="clip-rule:evenodd"
         id="path74"
         d="M 1.0729e-5,0 H 720.00001 V 540 H 1.0729e-5 Z" /></clipPath><clipPath
       id="clipPath90"
       clipPathUnits="userSpaceOnUse"><path
         style="clip-rule:evenodd"
         id="path88"
         d="M 1.0729e-5,0 H 720.00001 V 540 H 1.0729e-5 Z" /></clipPath><clipPath
       id="clipPath104"
       clipPathUnits="userSpaceOnUse"><path
         style="clip-rule:evenodd"
         id="path102"
         d="M 1.0729e-5,0 H 720.00001 V 540 H 1.0729e-5 Z" /></clipPath><clipPath
       id="clipPath118"
       clipPathUnits="userSpaceOnUse"><path
         style="clip-rule:evenodd"
         id="path116"
         d="M 1.0729e-5,0 H 720.00001 V 540 H 1.0729e-5 Z" /></clipPath><clipPath
       id="clipPath132"
       clipPathUnits="userSpaceOnUse"><path
         style="clip-rule:evenodd"
         id="path130"
         d="M 1.0729e-5,0 H 720.00001 V 540 H 1.0729e-5 Z" /></clipPath><clipPath
       id="clipPath144"
       clipPathUnits="userSpaceOnUse"><path
         style="clip-rule:evenodd"
         id="path142"
         d="M -7.204e-6,540 H 720 V 0 H -4.6575e-5" /></clipPath><clipPath
       id="clipPath154"
       clipPathUnits="userSpaceOnUse"><path
         style="clip-rule:evenodd"
         id="path152"
         d="M 1.9502e-5,540 H 720 V 1.2207e-4 H -1.9868e-5" /></clipPath><clipPath
       id="clipPath164"
       clipPathUnits="userSpaceOnUse"><path
         style="clip-rule:evenodd"
         id="path162"
         d="M 7.881e-6,540 H 720 V 0 H -3.1489e-5" /></clipPath><clipPath
       id="clipPath174"
       clipPathUnits="userSpaceOnUse"><path
         style="clip-rule:evenodd"
         id="path172"
         d="M -2.6298e-5,540 H 720 V 1.2207e-4 H -6.5669e-5" /></clipPath><clipPath
       id="clipPath184"
       clipPathUnits="userSpaceOnUse"><path
         style="clip-rule:evenodd"
         id="path182"
         d="M 6.903e-6,540 H 720 V 0 L -3.2467e-5,6.1035e-5" /></clipPath><clipPath
       id="clipPath194"
       clipPathUnits="userSpaceOnUse"><path
         style="clip-rule:evenodd"
         id="path192"
         d="M -1.2424e-5,540 H 720 V 1.2207e-4 H -5.1794e-5" /></clipPath><clipPath
       id="clipPath204"
       clipPathUnits="userSpaceOnUse"><path
         style="clip-rule:evenodd"
         id="path202"
         d="M 1.0729e-5,0 H 720.00001 V 540 H 1.0729e-5 Z" /></clipPath><clipPath
       id="clipPath224"
       clipPathUnits="userSpaceOnUse"><path
         style="clip-rule:evenodd"
         id="path222"
         d="M 1.0729e-5,0 H 720.00001 V 540 H 1.0729e-5 Z" /></clipPath><clipPath
       id="clipPath236"
       clipPathUnits="userSpaceOnUse"><path
         style="clip-rule:evenodd"
         id="path234"
         d="M 1.0729e-5,0 H 720.00001 V 540 H 1.0729e-5 Z" /></clipPath><clipPath
       id="clipPath252"
       clipPathUnits="userSpaceOnUse"><path
         style="clip-rule:evenodd"
         id="path250"
         d="M 1.0729e-5,0 H 720.00001 V 540 H 1.0729e-5 Z" /></clipPath><clipPath
       id="clipPath264"
       clipPathUnits="userSpaceOnUse"><path
         style="clip-rule:evenodd"
         id="path262"
         d="M 1.0729e-5,0 H 720.00001 V 540 H 1.0729e-5 Z" /></clipPath><clipPath
       id="clipPath280"
       clipPathUnits="userSpaceOnUse"><path
         style="clip-rule:evenodd"
         id="path278"
         d="M 1.0729e-5,0 H 720.00001 V 540 H 1.0729e-5 Z" /></clipPath><clipPath
       id="clipPath292"
       clipPathUnits="userSpaceOnUse"><path
         style="clip-rule:evenodd"
         id="path290"
         d="M 1.0729e-5,0 H 720.00001 V 540 H 1.0729e-5 Z" /></clipPath><clipPath
       id="clipPath306"
       clipPathUnits="userSpaceOnUse"><path
         style="clip-rule:evenodd"
         id="path304"
         d="M 1.0729e-5,0 H 720.00001 V 540 H 1.0729e-5 Z" /></clipPath><clipPath
       id="clipPath334"
       clipPathUnits="userSpaceOnUse"><path
         style="clip-rule:evenodd"
         id="path332"
         d="M 1.0729e-5,0 H 720.00001 V 540 H 1.0729e-5 Z" /></clipPath></defs><g
     transform="matrix(1.3333333,0,0,-1.3333333,8.9241794,721.51093)"
     id="g18"><path
       id="path34"
       style="fill:#e6e6e6;fill-opacity:1;fill-rule:evenodd;stroke:none"
       d="m 364.42005,478.29998 h 91.44 v 47.64 h -91.44 z" /><path
       id="path36"
       style="fill:none;stroke:#a30000;stroke-width:2.03999996;stroke-linecap:butt;stroke-linejoin:round;stroke-miterlimit:10;stroke-dasharray:none;stroke-opacity:1"
       d="m 364.42005,478.29998 h 91.44 v 47.64 h -91.44 z" /><g
       transform="translate(-13.999949,57.999978)"
       id="g38"><g
         clip-path="url(#clipPath44)"
         id="g40"><text
           id="text48"
           style="font-variant:normal;font-weight:normal;font-size:18.02400017px;font-family:Arial;-inkscape-font-specification:ArialMT;writing-mode:lr-tb;fill:#000000;fill-opacity:1;fill-rule:nonzero;stroke:none"
           transform="matrix(1,0,0,-1,395.14,437.42)"><tspan
             id="tspan46"
             y="0"
             x="0 13.013328 22.926529 32.893799 42.861073 47.997913">Node 0</tspan></text>
</g></g><path
       id="path50"
       style="fill:#b3b3b3;fill-opacity:1;fill-rule:evenodd;stroke:none"
       d="m 482.02005,478.29998 h 91.32 v 47.64 h -91.32 z" /><path
       id="path52"
       style="fill:none;stroke:#a30000;stroke-width:2.03999996;stroke-linecap:butt;stroke-linejoin:round;stroke-miterlimit:10;stroke-dasharray:none;stroke-opacity:1"
       d="m 482.02005,478.29998 h 91.32 v 47.64 h -91.32 z" /><g
       transform="translate(-13.999949,57.999978)"
       id="g54"><g
         clip-path="url(#clipPath60)"
         id="g56"><text
           id="text64"
           style="font-variant:normal;font-weight:normal;font-size:18.02400017px;font-family:Arial;-inkscape-font-specification:ArialMT;writing-mode:lr-tb;fill:#000000;fill-opacity:1;fill-rule:nonzero;stroke:none"
           transform="matrix(1,0,0,-1,512.69,437.42)"><tspan
             id="tspan62"
             y="0"
             x="0 13.013328 22.962576 32.983921 42.933167 48.070007">Node 1</tspan></text>
</g></g><path
       id="path66"
       style="fill:#ffc5c5;fill-opacity:1;fill-rule:evenodd;stroke:none"
       d="m 593.86005,478.29998 h 91.44 v 47.64 h -91.44 z" /><path
       id="path68"
       style="fill:none;stroke:#a30000;stroke-width:2.03999996;stroke-linecap:butt;stroke-linejoin:round;stroke-miterlimit:10;stroke-dasharray:none;stroke-opacity:1"
       d="m 593.86005,478.29998 h 91.44 v 47.64 h -91.44 z" /><g
       transform="translate(-13.999949,57.999978)"
       id="g70"><g
         clip-path="url(#clipPath76)"
         id="g72"><text
           id="text80"
           style="font-variant:normal;font-weight:normal;font-size:18.02400017px;font-family:Arial;-inkscape-font-specification:ArialMT;writing-mode:lr-tb;fill:#000000;fill-opacity:1;fill-rule:nonzero;stroke:none"
           transform="matrix(1,0,0,-1,624.58,437.42)"><tspan
             id="tspan78"
             y="0"
             x="0 13.013328 22.926529 32.893799 42.861073 47.997913">Node 2</tspan></text>
</g></g><path
       id="path82"
       style="fill:none;stroke:#a30000;stroke-width:2.03999996;stroke-linecap:butt;stroke-linejoin:round;stroke-miterlimit:10;stroke-dasharray:none;stroke-opacity:1"
       d="m 319.30005,431.37998 h 59.76 v 28.32 h -59.76 z" /><g
       transform="translate(-13.999949,57.999978)"
       id="g84"><g
         clip-path="url(#clipPath90)"
         id="g86"><text
           id="text94"
           style="font-variant:normal;font-weight:normal;font-size:15.96000004px;font-family:Arial;-inkscape-font-specification:ArialMT;writing-mode:lr-tb;fill:#000000;fill-opacity:1;fill-rule:nonzero;stroke:none"
           transform="matrix(1,0,0,-1,340.87,381.55)"><tspan
             id="tspan92"
             y="0"
             x="0 4.4368801 17.73156 26.60532 35.47908">Image</tspan></text>
</g></g><path
       id="path96"
       style="fill:none;stroke:#a30000;stroke-width:2.03999996;stroke-linecap:butt;stroke-linejoin:round;stroke-miterlimit:10;stroke-dasharray:none;stroke-opacity:1"
       d="m 438.94005,431.37998 h 59.76 v 28.32 h -59.76 z" /><g
       transform="translate(-13.999949,57.999978)"
       id="g98"><g
         clip-path="url(#clipPath104)"
         id="g100"><text
           id="text108"
           style="font-variant:normal;font-weight:normal;font-size:15.96000004px;font-family:Arial;-inkscape-font-specification:ArialMT;writing-mode:lr-tb;fill:#000000;fill-opacity:1;fill-rule:nonzero;stroke:none"
           transform="matrix(1,0,0,-1,460.61,381.55)"><tspan
             id="tspan106"
             y="0"
             x="0 4.4368801 17.73156 26.60532 35.47908">Image</tspan></text>
</g></g><path
       id="path110"
       style="fill:none;stroke:#a30000;stroke-width:2.03999996;stroke-linecap:butt;stroke-linejoin:round;stroke-miterlimit:10;stroke-dasharray:none;stroke-opacity:1"
       d="m 548.14005,431.37998 h 59.76 v 28.32 h -59.76 z" /><g
       transform="translate(-13.999949,57.999978)"
       id="g112"><g
         clip-path="url(#clipPath118)"
         id="g114"><text
           id="text122"
           style="font-variant:normal;font-weight:normal;font-size:15.96000004px;font-family:Arial;-inkscape-font-specification:ArialMT;writing-mode:lr-tb;fill:#000000;fill-opacity:1;fill-rule:nonzero;stroke:none"
           transform="matrix(1,0,0,-1,573.05,381.55)"><tspan
             id="tspan120"
             y="0"
             x="0 10.64532 15.96 21.274679 30.148439">Array</tspan></text>
</g></g><path
       id="path124"
       style="fill:none;stroke:#a30000;stroke-width:2.03999996;stroke-linecap:butt;stroke-linejoin:round;stroke-miterlimit:10;stroke-dasharray:none;stroke-opacity:1"
       d="m 635.62005,431.97998 h 59.76 v 28.32 h -59.76 z" /><g
       transform="translate(-13.999949,57.999978)"
       id="g126"><g
         clip-path="url(#clipPath132)"
         id="g128"><text
           id="text136"
           style="font-variant:normal;font-weight:normal;font-size:15.96000004px;font-family:Arial;-inkscape-font-specification:ArialMT;writing-mode:lr-tb;fill:#000000;fill-opacity:1;fill-rule:nonzero;stroke:none"
           transform="matrix(1,0,0,-1,660.55,382.18)"><tspan
             id="tspan134"
             y="0"
             x="0 10.64532 15.96 21.274679 30.148439">Array</tspan></text>
</g></g><g
       transform="translate(-13.999949,57.999978)"
       id="g138"><g
         clip-path="url(#clipPath144)"
         id="g140"><path
           id="path146"
           style="fill:#de0000;fill-opacity:1;fill-rule:nonzero;stroke:none"
           d="m 362.62,401.73 v 42.39 c 0,0.28 0.22,0.5 0.5,0.5 h 14.32 v -1 h -14.32 l 0.5,0.5 v -42.39 z m 9.07,46.32 6.74,-3.93 -6.74,-3.93 c -0.24,-0.14 -0.54,-0.06 -0.68,0.18 -0.14,0.24 -0.06,0.54 0.18,0.68 l 6,3.5 v -0.86 l -6,3.5 c -0.24,0.14 -0.32,0.44 -0.18,0.68 0.14,0.24 0.44,0.32 0.68,0.18 z" /></g></g><g
       transform="translate(-13.999949,57.999978)"
       id="g148"><g
         clip-path="url(#clipPath154)"
         id="g150"><path
           id="path156"
           style="fill:#de0000;fill-opacity:1;fill-rule:nonzero;stroke:none"
           d="m 423.58,420.36 v -32.73 c 0,-0.27 0.22,-0.5 0.5,-0.5 h 27.84 v 1 h -27.84 l 0.5,-0.5 v 32.73 z m 22.59,-36.66 6.74,3.93 -6.74,3.93 c -0.24,0.14 -0.54,0.06 -0.68,-0.18 -0.14,-0.23 -0.06,-0.54 0.18,-0.68 l 6,-3.5 v 0.86 l -6,-3.5 c -0.24,-0.13 -0.32,-0.44 -0.18,-0.68 0.14,-0.24 0.44,-0.32 0.68,-0.18 z" /></g></g><g
       transform="translate(-13.999949,57.999978)"
       id="g158"><g
         clip-path="url(#clipPath164)"
         id="g160"><path
           id="path166"
           style="fill:#de0000;fill-opacity:1;fill-rule:nonzero;stroke:none"
           d="m 482.26,401.73 v 42.39 c 0,0.28 0.22,0.5 0.5,0.5 h 12.14 v -1 h -12.14 l 0.5,0.5 v -42.39 z m 6.89,46.32 6.74,-3.93 -6.74,-3.93 c -0.24,-0.14 -0.54,-0.06 -0.68,0.18 -0.14,0.24 -0.06,0.54 0.18,0.68 l 6,3.5 v -0.86 l -6,3.5 c -0.24,0.14 -0.32,0.44 -0.18,0.68 0.14,0.24 0.44,0.32 0.68,0.18 z" /></g></g><g
       transform="translate(-13.999949,57.999978)"
       id="g168"><g
         clip-path="url(#clipPath174)"
         id="g170"><path
           id="path176"
           style="fill:#de0000;fill-opacity:1;fill-rule:nonzero;stroke:none"
           d="m 541.18,420.36 v -32.73 c 0,-0.27 0.22,-0.5 0.5,-0.5 h 19.46 v 1 h -19.46 l 0.5,-0.5 v 32.73 z m 14.22,-36.66 6.74,3.93 -6.74,3.93 c -0.24,0.14 -0.55,0.06 -0.69,-0.18 -0.14,-0.23 -0.06,-0.54 0.18,-0.68 l 6,-3.5 v 0.86 l -6,-3.5 c -0.24,-0.13 -0.32,-0.44 -0.18,-0.68 0.14,-0.24 0.45,-0.32 0.69,-0.18 z" /></g></g><g
       transform="translate(-13.999949,57.999978)"
       id="g178"><g
         clip-path="url(#clipPath184)"
         id="g180"><path
           id="path186"
           style="fill:#de0000;fill-opacity:1;fill-rule:nonzero;stroke:none"
           d="m 591.46,401.73 v 42.39 c 0,0.28 0.22,0.5 0.5,0.5 h 14.83 v -1 h -14.83 l 0.5,0.5 v -42.39 z m 9.58,46.32 6.74,-3.93 -6.74,-3.93 c -0.24,-0.14 -0.54,-0.06 -0.68,0.18 -0.14,0.24 -0.06,0.54 0.18,0.68 l 6,3.5 v -0.86 l -6,3.5 c -0.24,0.14 -0.32,0.44 -0.18,0.68 0.14,0.24 0.44,0.32 0.68,0.18 z" /></g></g><g
       transform="translate(-13.999949,57.999978)"
       id="g188"><g
         clip-path="url(#clipPath194)"
         id="g190"><path
           id="path196"
           style="fill:#de0000;fill-opacity:1;fill-rule:nonzero;stroke:none"
           d="m 653.02,420.36 v -8.96 c 0,-0.28 0.22,-0.5 0.5,-0.5 h 25.99 l -0.5,0.5 v -7.97 h 1 v 7.97 c 0,0.28 -0.23,0.5 -0.5,0.5 h -25.99 l 0.5,-0.5 v 8.96 z m 22.55,-11.18 3.94,-6.74 3.93,6.74 c 0.14,0.23 0.06,0.54 -0.18,0.68 -0.24,0.14 -0.55,0.06 -0.69,-0.18 l -3.5,-6 h 0.87 l -3.5,6 c -0.14,0.24 -0.45,0.32 -0.69,0.18 -0.23,-0.14 -0.31,-0.45 -0.18,-0.68 z" /></g></g><g
       transform="translate(-13.999949,57.999978)"
       id="g198"><g
         clip-path="url(#clipPath204)"
         id="g200"><text
           id="text208"
           style="font-variant:normal;font-weight:normal;font-size:18px;font-family:Arial;-inkscape-font-specification:ArialMT;writing-mode:lr-tb;fill:#000000;fill-opacity:1;fill-rule:nonzero;stroke:none"
           transform="matrix(1,0,0,-1,468.14,332.64)"><tspan
             id="tspan206"
             y="0"
             x="0 14.004 24.011999 33.966 43.973999 55.925999 67.806 72.954002 86.958 92.952003 102.96 112.914">OpenVX Graph</tspan></text>
</g></g><path
       id="path210"
       style="fill:#de0000;fill-opacity:1;fill-rule:evenodd;stroke:none"
       d="m 8.5000517,425.43998 20.1000003,20.1 v -10.05 H 282.04005 v 10.05 l 20.1,-20.1 -20.1,-20.1 v 10.05 H 28.600052 v -10.05 z" /><path
       id="path212"
       style="fill:none;stroke:#a30000;stroke-width:2.03999996;stroke-linecap:butt;stroke-linejoin:round;stroke-miterlimit:10;stroke-dasharray:none;stroke-opacity:1"
       d="m 8.5000517,425.43998 20.1000003,20.1 v -10.05 H 282.04005 v 10.05 l 20.1,-20.1 -20.1,-20.1 v 10.05 H 28.600052 v -10.05 z" /><path
       id="path214"
       style="fill:#e6e6e6;fill-opacity:1;fill-rule:evenodd;stroke:none"
       d="m 44.020052,478.29998 h 65.519998 v 47.64 H 44.020052 Z" /><path
       id="path216"
       style="fill:none;stroke:#a30000;stroke-width:2.03999996;stroke-linecap:butt;stroke-linejoin:round;stroke-miterlimit:10;stroke-dasharray:none;stroke-opacity:1"
       d="m 44.020052,478.29998 h 65.519998 v 47.64 H 44.020052 Z" /><g
       transform="translate(-13.999949,57.999978)"
       id="g218"><g
         clip-path="url(#clipPath224)"
         id="g220"><text
           id="text228"
           style="font-variant:normal;font-weight:normal;font-size:18px;font-family:Arial;-inkscape-font-specification:ArialMT;writing-mode:lr-tb;fill:#000000;fill-opacity:1;fill-rule:nonzero;stroke:none"
           transform="matrix(1,0,0,-1,76.128,448.22)"><tspan
             id="tspan226"
             y="0"
             x="0 5.0040002 17.01">ISP</tspan></text>
</g></g><g
       transform="translate(-13.999949,57.999978)"
       id="g230"><g
         clip-path="url(#clipPath236)"
         id="g232"><text
           id="text240"
           style="font-variant:normal;font-weight:normal;font-size:18px;font-family:Arial;-inkscape-font-specification:ArialMT;writing-mode:lr-tb;fill:#000000;fill-opacity:1;fill-rule:nonzero;stroke:none"
           transform="matrix(1,0,0,-1,70.008,426.6)"><tspan
             id="tspan238"
             y="0"
             x="0 12.996 29.285999">HWA</tspan></text>
</g></g><path
       id="path242"
       style="fill:#b3b3b3;fill-opacity:1;fill-rule:evenodd;stroke:none"
       d="m 126.58005,478.29998 h 65.52 v 47.64 h -65.52 z" /><path
       id="path244"
       style="fill:none;stroke:#a30000;stroke-width:2.03999996;stroke-linecap:butt;stroke-linejoin:round;stroke-miterlimit:10;stroke-dasharray:none;stroke-opacity:1"
       d="m 126.58005,478.29998 h 65.52 v 47.64 h -65.52 z" /><g
       transform="translate(-13.999949,57.999978)"
       id="g246"><g
         clip-path="url(#clipPath252)"
         id="g248"><text
           id="text256"
           style="font-variant:normal;font-weight:normal;font-size:18px;font-family:Arial;-inkscape-font-specification:ArialMT;writing-mode:lr-tb;fill:#000000;fill-opacity:1;fill-rule:nonzero;stroke:none"
           transform="matrix(1,0,0,-1,154.8,448.22)"><tspan
             id="tspan254"
             y="0"
             x="0 12.996 25.002001">DSP</tspan></text>
</g></g><g
       transform="translate(-13.999949,57.999978)"
       id="g258"><g
         clip-path="url(#clipPath264)"
         id="g260"><text
           id="text268"
           style="font-variant:normal;font-weight:normal;font-size:18px;font-family:Arial;-inkscape-font-specification:ArialMT;writing-mode:lr-tb;fill:#000000;fill-opacity:1;fill-rule:nonzero;stroke:none"
           transform="matrix(1,0,0,-1,154.32,426.6)"><tspan
             id="tspan266"
             y="0"
             x="0 12.996 25.002001">CPU</tspan></text>
</g></g><path
       id="path270"
       style="fill:#ffc5c5;fill-opacity:1;fill-rule:evenodd;stroke:none"
       d="m 209.98005,478.29998 h 65.4 v 47.64 h -65.4 z" /><path
       id="path272"
       style="fill:none;stroke:#a30000;stroke-width:2.03999996;stroke-linecap:butt;stroke-linejoin:round;stroke-miterlimit:10;stroke-dasharray:none;stroke-opacity:1"
       d="m 209.98005,478.29998 h 65.4 v 47.64 h -65.4 z" /><g
       transform="translate(-13.999949,57.999978)"
       id="g274"><g
         clip-path="url(#clipPath280)"
         id="g276"><text
           id="text284"
           style="font-variant:normal;font-weight:normal;font-size:18px;font-family:Arial;-inkscape-font-specification:ArialMT;writing-mode:lr-tb;fill:#000000;fill-opacity:1;fill-rule:nonzero;stroke:none"
           transform="matrix(1,0,0,-1,237.62,448.22)"><tspan
             id="tspan282"
             y="0"
             x="0 12.996 25.002001">CPU</tspan></text>
</g></g><g
       transform="translate(-13.999949,57.999978)"
       id="g286"><g
         clip-path="url(#clipPath292)"
         id="g288"><text
           id="text296"
           style="font-variant:normal;font-weight:normal;font-size:18.02400017px;font-family:Arial;-inkscape-font-specification:ArialMT;writing-mode:lr-tb;fill:#000000;fill-opacity:1;fill-rule:nonzero;stroke:none"
           transform="matrix(1,0,0,-1,237.62,426.62)"><tspan
             id="tspan294"
             y="0"
             x="0 13.013328 24.96324">CPU</tspan></text>
</g></g><path
       id="path298"
       style="fill:none;stroke:#a30000;stroke-width:2.03999996;stroke-linecap:butt;stroke-linejoin:round;stroke-miterlimit:10;stroke-dasharray:none;stroke-opacity:1"
       d="m 80.980052,334.41998 h 88.919998 v 47.64 H 80.980052 Z" /><g
       transform="translate(-13.999949,57.999978)"
       id="g300"><g
         clip-path="url(#clipPath306)"
         id="g302"><text
           id="text310"
           style="font-variant:normal;font-weight:normal;font-size:18px;font-family:Arial;-inkscape-font-specification:ArialMT;writing-mode:lr-tb;fill:#000000;fill-opacity:1;fill-rule:nonzero;stroke:none"
           transform="matrix(1,0,0,-1,107.09,293.54)"><tspan
             id="tspan308"
             y="0"
             x="0 14.994 25.002001 39.995998 49.914001 55.908001">Memory</tspan></text>
</g></g><path
       id="path312"
       style="fill:#de0000;fill-opacity:1;fill-rule:evenodd;stroke:none"
       d="m 68.380052,465.69998 12.6,12.6 12.599998,-12.6 h -6.3 v -15.96 h 6.3 l -12.599998,-12.6 -12.6,12.6 h 6.3 v 15.96 z" /><path
       id="path314"
       style="fill:none;stroke:#a30000;stroke-width:2.03999996;stroke-linecap:butt;stroke-linejoin:miter;stroke-miterlimit:8;stroke-dasharray:none;stroke-opacity:1"
       d="m 68.380052,465.69998 12.6,12.6 12.599998,-12.6 h -6.3 v -15.96 h 6.3 l -12.599998,-12.6 -12.6,12.6 h 6.3 v 15.96 z" /><path
       id="path316"
       style="fill:#de0000;fill-opacity:1;fill-rule:evenodd;stroke:none"
       d="m 148.06005,465.69998 12.6,12.6 12.6,-12.6 h -6.3 v -15.96 h 6.3 l -12.6,-12.6 -12.6,12.6 h 6.3 v 15.96 z" /><path
       id="path318"
       style="fill:none;stroke:#a30000;stroke-width:2.03999996;stroke-linecap:butt;stroke-linejoin:miter;stroke-miterlimit:8;stroke-dasharray:none;stroke-opacity:1"
       d="m 148.06005,465.69998 12.6,12.6 12.6,-12.6 h -6.3 v -15.96 h 6.3 l -12.6,-12.6 -12.6,12.6 h 6.3 v 15.96 z" /><path
       id="path320"
       style="fill:#de0000;fill-opacity:1;fill-rule:evenodd;stroke:none"
       d="m 234.22005,465.63998 12.66,12.66 12.66,-12.66 h -6.33 v -15.84 h 6.33 l -12.66,-12.66 -12.66,12.66 h 6.33 v 15.84 z" /><path
       id="path322"
       style="fill:none;stroke:#a30000;stroke-width:2.03999996;stroke-linecap:butt;stroke-linejoin:miter;stroke-miterlimit:8;stroke-dasharray:none;stroke-opacity:1"
       d="m 234.22005,465.63998 12.66,12.66 12.66,-12.66 h -6.33 v -15.84 h 6.33 l -12.66,-12.66 -12.66,12.66 h 6.33 v 15.84 z" /><path
       id="path324"
       style="fill:#de0000;fill-opacity:1;fill-rule:evenodd;stroke:none"
       d="m 113.98005,405.15998 12.66,12.66 12.66,-12.66 h -6.33 v -15.84 h 6.33 l -12.66,-12.66 -12.66,12.66 h 6.33 v 15.84 z" /><path
       id="path326"
       style="fill:none;stroke:#a30000;stroke-width:2.03999996;stroke-linecap:butt;stroke-linejoin:miter;stroke-miterlimit:8;stroke-dasharray:none;stroke-opacity:1"
       d="m 113.98005,405.15998 12.66,12.66 12.66,-12.66 h -6.33 v -15.84 h 6.33 l -12.66,-12.66 -12.66,12.66 h 6.33 v 15.84 z" /><g
       transform="translate(-13.999949,57.999978)"
       id="g328"><g
         clip-path="url(#clipPath334)"
         id="g330"><text
           id="text338"
           style="font-variant:normal;font-weight:normal;font-size:18px;font-family:Arial;-inkscape-font-specification:ArialMT;writing-mode:lr-tb;fill:#000000;fill-opacity:1;fill-rule:nonzero;stroke:none"
           transform="matrix(1,0,0,-1,218.21,303.55)"><tspan
             id="tspan336"
             y="0"
             x="0 12.006 21.959999">SoC</tspan></text>
</g></g></g></svg>