<?xml version="1.0" encoding="UTF-8" standalone="no"?>
<svg
   xmlns:dc="http://purl.org/dc/elements/1.1/"
   xmlns:cc="http://creativecommons.org/ns#"
   xmlns:rdf="http://www.w3.org/1999/02/22-rdf-syntax-ns#"
   xmlns:svg="http://www.w3.org/2000/svg"
   xmlns="http://www.w3.org/2000/svg"
   viewBox="0 0 901.23431 267.71526"
   height="7.0832996cm"
   width="23.845158cm"
   xml:space="preserve"
   id="svg4011"
   version="1.1"><metadata
     id="metadata4017"><rdf:RDF><cc:Work
         rdf:about=""><dc:format>image/svg+xml</dc:format><dc:type
           rdf:resource="http://purl.org/dc/dcmitype/StillImage" /><dc:title></dc:title></cc:Work></rdf:RDF></metadata><defs
     id="defs4015"><clipPath
       id="clipPath4027"
       clipPathUnits="userSpaceOnUse"><path
         style="clip-rule:evenodd"
         id="path4025"
         d="M 0,1.2207e-4 H 720 V 540.00012 H 0 Z" /></clipPath><clipPath
       id="clipPath4045"
       clipPathUnits="userSpaceOnUse"><path
         style="clip-rule:evenodd"
         id="path4043"
         d="M 1.0729e-5,0 H 720.00001 V 540 H 1.0729e-5 Z" /></clipPath><clipPath
       id="clipPath4061"
       clipPathUnits="userSpaceOnUse"><path
         style="clip-rule:evenodd"
         id="path4059"
         d="M 1.0729e-5,0 H 720.00001 V 540 H 1.0729e-5 Z" /></clipPath><clipPath
       id="clipPath4077"
       clipPathUnits="userSpaceOnUse"><path
         style="clip-rule:evenodd"
         id="path4075"
         d="M 1.0729e-5,0 H 720.00001 V 540 H 1.0729e-5 Z" /></clipPath><clipPath
       id="clipPath4097"
       clipPathUnits="userSpaceOnUse"><path
         style="clip-rule:evenodd"
         id="path4095"
         d="M 1.0729e-5,0 H 720.00001 V 540 H 1.0729e-5 Z" /></clipPath><clipPath
       id="clipPath4113"
       clipPathUnits="userSpaceOnUse"><path
         style="clip-rule:evenodd"
         id="path4111"
         d="M 1.0729e-5,0 H 720.00001 V 540 H 1.0729e-5 Z" /></clipPath><clipPath
       id="clipPath4133"
       clipPathUnits="userSpaceOnUse"><path
         style="clip-rule:evenodd"
         id="path4131"
         d="M -2.09e-6,540 H 720 V 0 L -1.1933e-5,6.1035e-5" /></clipPath><clipPath
       id="clipPath4143"
       clipPathUnits="userSpaceOnUse"><path
         style="clip-rule:evenodd"
         id="path4141"
         d="M 1.0729e-5,0 H 720.00001 V 540 H 1.0729e-5 Z" /></clipPath><clipPath
       id="clipPath4155"
       clipPathUnits="userSpaceOnUse"><path
         style="clip-rule:evenodd"
         id="path4153"
         d="M 1.0729e-5,0 H 720.00001 V 540 H 1.0729e-5 Z" /></clipPath><clipPath
       id="clipPath4167"
       clipPathUnits="userSpaceOnUse"><path
         style="clip-rule:evenodd"
         id="path4165"
         d="M 1.0729e-5,0 H 720.00001 V 540 H 1.0729e-5 Z" /></clipPath><clipPath
       id="clipPath4179"
       clipPathUnits="userSpaceOnUse"><path
         style="clip-rule:evenodd"
         id="path4177"
         d="M 1.0729e-5,0 H 720.00001 V 540 H 1.0729e-5 Z" /></clipPath><clipPath
       id="clipPath4191"
       clipPathUnits="userSpaceOnUse"><path
         style="clip-rule:evenodd"
         id="path4189"
         d="M 1.0729e-5,0 H 720.00001 V 540 H 1.0729e-5 Z" /></clipPath></defs><g
     transform="matrix(1.3333333,0,0,-1.3333333,-3.6839149,715.23217)"
     id="g4019"><path
       id="path4035"
       style="fill:#d9d9d9;fill-opacity:1;fill-rule:evenodd;stroke:none"
       d="m 74.525454,472.27091 h 93.599996 v 28.08 H 74.525454 Z" /><path
       id="path4037"
       style="fill:none;stroke:#a30000;stroke-width:2.03999996;stroke-linecap:butt;stroke-linejoin:round;stroke-miterlimit:10;stroke-dasharray:none;stroke-opacity:1"
       d="m 74.525454,472.27091 h 93.599996 v 28.08 H 74.525454 Z" /><g
       transform="translate(-20.454546,139.09091)"
       id="g4039"><g
         clip-path="url(#clipPath4045)"
         id="g4041"><text
           id="text4049"
           style="font-variant:normal;font-weight:normal;font-size:18px;font-family:Arial;-inkscape-font-specification:ArialMT;writing-mode:lr-tb;fill:#000000;fill-opacity:1;fill-rule:nonzero;stroke:none"
           transform="matrix(1,0,0,-1,108.24,340.54)"><tspan
             id="tspan4047"
             y="0"
             x="0 10.998 16.992001 27 41.993999 52.001999 57.006001">Frame 1</tspan></text>
</g></g><path
       id="path4051"
       style="fill:#7f7f7f;fill-opacity:1;fill-rule:evenodd;stroke:none"
       d="m 177.24545,432.19091 h 93.48 v 28.08 h -93.48 z" /><path
       id="path4053"
       style="fill:none;stroke:#a30000;stroke-width:2.03999996;stroke-linecap:butt;stroke-linejoin:round;stroke-miterlimit:10;stroke-dasharray:none;stroke-opacity:1"
       d="m 177.24545,432.19091 h 93.48 v 28.08 h -93.48 z" /><g
       transform="translate(-20.454546,139.09091)"
       id="g4055"><g
         clip-path="url(#clipPath4061)"
         id="g4057"><text
           id="text4065"
           style="font-variant:normal;font-weight:normal;font-size:18px;font-family:Arial;-inkscape-font-specification:ArialMT;writing-mode:lr-tb;fill:#000000;fill-opacity:1;fill-rule:nonzero;stroke:none"
           transform="matrix(1,0,0,-1,210.96,300.48)"><tspan
             id="tspan4063"
             y="0"
             x="0 10.998 16.992001 27 41.993999 52.001999 57.006001">Frame 1</tspan></text>
</g></g><path
       id="path4067"
       style="fill:#ffc5c5;fill-opacity:1;fill-rule:evenodd;stroke:none"
       d="m 282.72545,394.87091 h 93.6 v 28.08 h -93.6 z" /><path
       id="path4069"
       style="fill:none;stroke:#a30000;stroke-width:2.03999996;stroke-linecap:butt;stroke-linejoin:round;stroke-miterlimit:10;stroke-dasharray:none;stroke-opacity:1"
       d="m 282.72545,394.87091 h 93.6 v 28.08 h -93.6 z" /><g
       transform="translate(-20.454546,139.09091)"
       id="g4071"><g
         clip-path="url(#clipPath4077)"
         id="g4073"><text
           id="text4081"
           style="font-variant:normal;font-weight:normal;font-size:18px;font-family:Arial;-inkscape-font-specification:ArialMT;writing-mode:lr-tb;fill:#000000;fill-opacity:1;fill-rule:nonzero;stroke:none"
           transform="matrix(1,0,0,-1,316.49,263.06)"><tspan
             id="tspan4079"
             y="0"
             x="0 10.998 16.992001 27 41.993999 52.001999 57.006001">Frame 1</tspan></text>
</g></g><path
       id="path4083"
       style="fill:none;stroke:#de0000;stroke-width:0.72000003;stroke-linecap:butt;stroke-linejoin:round;stroke-miterlimit:10;stroke-dasharray:none;stroke-opacity:1"
       d="m 74.465454,520.93091 v -171.12" /><path
       id="path4085"
       style="fill:none;stroke:#de0000;stroke-width:0.72000003;stroke-linecap:butt;stroke-linejoin:round;stroke-miterlimit:10;stroke-dasharray:none;stroke-opacity:1"
       d="M 30.545454,394.45091 H 664.51545" /><path
       id="path4087"
       style="fill:#d9d9d9;fill-opacity:1;fill-rule:evenodd;stroke:none"
       d="m 390.84545,472.51091 h 93.48 v 27.96 h -93.48 z" /><path
       id="path4089"
       style="fill:none;stroke:#a30000;stroke-width:2.03999996;stroke-linecap:butt;stroke-linejoin:round;stroke-miterlimit:10;stroke-dasharray:none;stroke-opacity:1"
       d="m 390.84545,472.51091 h 93.48 v 27.96 h -93.48 z" /><g
       transform="translate(-20.454546,139.09091)"
       id="g4091"><g
         clip-path="url(#clipPath4097)"
         id="g4093"><text
           id="text4101"
           style="font-variant:normal;font-weight:normal;font-size:18px;font-family:Arial;-inkscape-font-specification:ArialMT;writing-mode:lr-tb;fill:#000000;fill-opacity:1;fill-rule:nonzero;stroke:none"
           transform="matrix(1,0,0,-1,424.58,340.68)"><tspan
             id="tspan4099"
             y="0"
             x="0 10.998 16.992001 27 41.993999 52.001999 57.006001">Frame 2</tspan></text>
</g></g><path
       id="path4103"
       style="fill:#7f7f7f;fill-opacity:1;fill-rule:evenodd;stroke:none"
       d="m 496.32545,432.55091 h 93.6 v 28.08 h -93.6 z" /><path
       id="path4105"
       style="fill:none;stroke:#a30000;stroke-width:2.03999996;stroke-linecap:butt;stroke-linejoin:round;stroke-miterlimit:10;stroke-dasharray:none;stroke-opacity:1"
       d="m 496.32545,432.55091 h 93.6 v 28.08 h -93.6 z" /><g
       transform="translate(-20.454546,139.09091)"
       id="g4107"><g
         clip-path="url(#clipPath4113)"
         id="g4109"><text
           id="text4117"
           style="font-variant:normal;font-weight:normal;font-size:18px;font-family:Arial;-inkscape-font-specification:ArialMT;writing-mode:lr-tb;fill:#000000;fill-opacity:1;fill-rule:nonzero;stroke:none"
           transform="matrix(1,0,0,-1,530.09,300.79)"><tspan
             id="tspan4115"
             y="0"
             x="0 10.998 16.992001 27 41.993999 52.001999 57.006001">Frame 2</tspan></text>
</g></g><path
       id="path4119"
       style="fill:none;stroke:#de0000;stroke-width:0.72000003;stroke-linecap:butt;stroke-linejoin:round;stroke-miterlimit:10;stroke-dasharray:none;stroke-opacity:1"
       d="m 176.94545,518.17091 v -123.74" /><path
       id="path4121"
       style="fill:none;stroke:#de0000;stroke-width:0.72000003;stroke-linecap:butt;stroke-linejoin:round;stroke-miterlimit:10;stroke-dasharray:none;stroke-opacity:1"
       d="m 282.66545,514.69091 v -123.74" /><path
       id="path4123"
       style="fill:none;stroke:#de0000;stroke-width:0.72000003;stroke-linecap:butt;stroke-linejoin:round;stroke-miterlimit:10;stroke-dasharray:none;stroke-opacity:1"
       d="m 389.22545,518.65091 v -123.74" /><path
       id="path4125"
       style="fill:none;stroke:#de0000;stroke-width:0.72000003;stroke-linecap:butt;stroke-linejoin:round;stroke-miterlimit:10;stroke-dasharray:none;stroke-opacity:1"
       d="m 496.26545,522.25091 v -123.74" /><g
       transform="translate(-20.454546,139.09091)"
       id="g4127"><g
         clip-path="url(#clipPath4133)"
         id="g4129"><path
           id="path4135"
           style="fill:none;stroke:#de0000;stroke-width:0.72000003;stroke-linecap:butt;stroke-linejoin:round;stroke-miterlimit:10;stroke-dasharray:none;stroke-opacity:1"
           d="m 198.84,255.84 c 0,-7.89 -1.07,-14.28 -2.38,-14.28 h -47.2 c -1.31,0 -2.38,-6.39 -2.38,-14.28 0,7.89 -1.07,14.28 -2.38,14.28 H 97.3 c -1.314,0 -2.38,6.39 -2.38,14.28" /></g></g><g
       transform="translate(-20.454546,139.09091)"
       id="g4137"><g
         clip-path="url(#clipPath4143)"
         id="g4139"><text
           id="text4147"
           style="font-variant:normal;font-weight:normal;font-size:15.96000004px;font-family:Arial;-inkscape-font-specification:ArialMT;writing-mode:lr-tb;fill:#000000;fill-opacity:1;fill-rule:nonzero;stroke:none"
           transform="matrix(1,0,0,-1,155.74,218.09)"><tspan
             id="tspan4145"
             y="0"
             x="0 8.8737602 17.74752 31.0422">33ms</tspan></text>
</g></g><g
       transform="translate(-20.454546,139.09091)"
       id="g4149"><g
         clip-path="url(#clipPath4155)"
         id="g4151"><text
           id="text4159"
           style="font-variant:normal;font-weight:normal;font-size:18px;font-family:Arial;-inkscape-font-specification:ArialMT;writing-mode:lr-tb;fill:#000000;fill-opacity:1;fill-rule:nonzero;stroke:none"
           transform="matrix(1,0,0,-1,35.712,340.01)"><tspan
             id="tspan4157"
             y="0"
             x="0 5.0040002 17.01">ISP</tspan></text>
</g></g><g
       transform="translate(-20.454546,139.09091)"
       id="g4161"><g
         clip-path="url(#clipPath4167)"
         id="g4163"><text
           id="text4171"
           style="font-variant:normal;font-weight:normal;font-size:18px;font-family:Arial;-inkscape-font-specification:ArialMT;writing-mode:lr-tb;fill:#000000;fill-opacity:1;fill-rule:nonzero;stroke:none"
           transform="matrix(1,0,0,-1,36.312,300.1)"><tspan
             id="tspan4169"
             y="0"
             x="0 12.996 25.002001">DSP</tspan></text>
</g></g><g
       transform="translate(-20.454546,139.09091)"
       id="g4173"><g
         clip-path="url(#clipPath4179)"
         id="g4175"><text
           id="text4183"
           style="font-variant:normal;font-weight:normal;font-size:18px;font-family:Arial;-inkscape-font-specification:ArialMT;writing-mode:lr-tb;fill:#000000;fill-opacity:1;fill-rule:nonzero;stroke:none"
           transform="matrix(1,0,0,-1,38.256,262.73)"><tspan
             id="tspan4181"
             y="0"
             x="0 12.996 25.002001">CPU</tspan></text>
</g></g><g
       transform="translate(-20.454546,139.09091)"
       id="g4185"><g
         clip-path="url(#clipPath4191)"
         id="g4187"><text
           id="text4195"
           style="font-variant:normal;font-weight:normal;font-size:15.96000004px;font-family:Arial;-inkscape-font-specification:ArialMT;writing-mode:lr-tb;fill:#000000;fill-opacity:1;fill-rule:nonzero;stroke:none"
           transform="matrix(1,0,0,-1,638.26,262.78)"><tspan
             id="tspan4193"
             y="0"
             x="0 4.4368801 8.0278797 21.322559">time</tspan></text>
</g></g></g></svg>