<?xml version="1.0" encoding="UTF-8" standalone="no"?>
<svg
   xmlns:dc="http://purl.org/dc/elements/1.1/"
   xmlns:cc="http://creativecommons.org/ns#"
   xmlns:rdf="http://www.w3.org/1999/02/22-rdf-syntax-ns#"
   xmlns:svg="http://www.w3.org/2000/svg"
   xmlns="http://www.w3.org/2000/svg"
   viewBox="0 0 901.20231 267.55527"
   height="7.0790663cm"
   width="23.844311cm"
   xml:space="preserve"
   id="svg4197"
   version="1.1"><metadata
     id="metadata4203"><rdf:RDF><cc:Work
         rdf:about=""><dc:format>image/svg+xml</dc:format><dc:type
           rdf:resource="http://purl.org/dc/dcmitype/StillImage" /><dc:title></dc:title></cc:Work></rdf:RDF></metadata><defs
     id="defs4201"><clipPath
       id="clipPath4213"
       clipPathUnits="userSpaceOnUse"><path
         style="clip-rule:evenodd"
         id="path4211"
         d="M 0,1.2207e-4 H 720 V 540.00012 H 0 Z" /></clipPath><clipPath
       id="clipPath4231"
       clipPathUnits="userSpaceOnUse"><path
         style="clip-rule:evenodd"
         id="path4229"
         d="M 1.0729e-5,0 H 720.00001 V 540 H 1.0729e-5 Z" /></clipPath><clipPath
       id="clipPath4247"
       clipPathUnits="userSpaceOnUse"><path
         style="clip-rule:evenodd"
         id="path4245"
         d="M 1.0729e-5,0 H 720.00001 V 540 H 1.0729e-5 Z" /></clipPath><clipPath
       id="clipPath4263"
       clipPathUnits="userSpaceOnUse"><path
         style="clip-rule:evenodd"
         id="path4261"
         d="M 1.0729e-5,0 H 720.00001 V 540 H 1.0729e-5 Z" /></clipPath><clipPath
       id="clipPath4279"
       clipPathUnits="userSpaceOnUse"><path
         style="clip-rule:evenodd"
         id="path4277"
         d="M 1.0729e-5,0 H 720.00001 V 540 H 1.0729e-5 Z" /></clipPath><clipPath
       id="clipPath4295"
       clipPathUnits="userSpaceOnUse"><path
         style="clip-rule:evenodd"
         id="path4293"
         d="M 1.0729e-5,0 H 720.00001 V 540 H 1.0729e-5 Z" /></clipPath><clipPath
       id="clipPath4311"
       clipPathUnits="userSpaceOnUse"><path
         style="clip-rule:evenodd"
         id="path4309"
         d="M 1.0729e-5,0 H 720.00001 V 540 H 1.0729e-5 Z" /></clipPath><clipPath
       id="clipPath4327"
       clipPathUnits="userSpaceOnUse"><path
         style="clip-rule:evenodd"
         id="path4325"
         d="M 1.0729e-5,0 H 720.00001 V 540 H 1.0729e-5 Z" /></clipPath><clipPath
       id="clipPath4343"
       clipPathUnits="userSpaceOnUse"><path
         style="clip-rule:evenodd"
         id="path4341"
         d="M 1.0729e-5,0 H 720.00001 V 540 H 1.0729e-5 Z" /></clipPath><clipPath
       id="clipPath4359"
       clipPathUnits="userSpaceOnUse"><path
         style="clip-rule:evenodd"
         id="path4357"
         d="M 1.0729e-5,0 H 720.00001 V 540 H 1.0729e-5 Z" /></clipPath><clipPath
       id="clipPath4379"
       clipPathUnits="userSpaceOnUse"><path
         style="clip-rule:evenodd"
         id="path4377"
         d="M 1.0729e-5,0 H 720.00001 V 540 H 1.0729e-5 Z" /></clipPath><clipPath
       id="clipPath4395"
       clipPathUnits="userSpaceOnUse"><path
         style="clip-rule:evenodd"
         id="path4393"
         d="M 1.0729e-5,0 H 720.00001 V 540 H 1.0729e-5 Z" /></clipPath><clipPath
       id="clipPath4411"
       clipPathUnits="userSpaceOnUse"><path
         style="clip-rule:evenodd"
         id="path4409"
         d="M 1.0729e-5,0 H 720.00001 V 540 H 1.0729e-5 Z" /></clipPath><clipPath
       id="clipPath4431"
       clipPathUnits="userSpaceOnUse"><path
         style="clip-rule:evenodd"
         id="path4429"
         d="M -1.857e-6,540 H 720 V 0 H -1.17e-5" /></clipPath><clipPath
       id="clipPath4441"
       clipPathUnits="userSpaceOnUse"><path
         style="clip-rule:evenodd"
         id="path4439"
         d="M 1.0729e-5,0 H 720.00001 V 540 H 1.0729e-5 Z" /></clipPath><clipPath
       id="clipPath4453"
       clipPathUnits="userSpaceOnUse"><path
         style="clip-rule:evenodd"
         id="path4451"
         d="M 1.0729e-5,0 H 720.00001 V 540 H 1.0729e-5 Z" /></clipPath><clipPath
       id="clipPath4465"
       clipPathUnits="userSpaceOnUse"><path
         style="clip-rule:evenodd"
         id="path4463"
         d="M 1.0729e-5,0 H 720.00001 V 540 H 1.0729e-5 Z" /></clipPath><clipPath
       id="clipPath4477"
       clipPathUnits="userSpaceOnUse"><path
         style="clip-rule:evenodd"
         id="path4475"
         d="M 1.0729e-5,0 H 720.00001 V 540 H 1.0729e-5 Z" /></clipPath><clipPath
       id="clipPath4489"
       clipPathUnits="userSpaceOnUse"><path
         style="clip-rule:evenodd"
         id="path4487"
         d="M 1.0729e-5,0 H 720.00001 V 540 H 1.0729e-5 Z" /></clipPath></defs><g
     transform="matrix(1.3333333,0,0,-1.3333333,-22.625253,703.35593)"
     id="g4205"><path
       id="path4221"
       style="fill:#d9d9d9;fill-opacity:1;fill-rule:evenodd;stroke:none"
       d="m 88.82746,463.48373 h 93.48 v 27.96 h -93.48 z" /><path
       id="path4223"
       style="fill:none;stroke:#a30000;stroke-width:2.03999996;stroke-linecap:butt;stroke-linejoin:round;stroke-miterlimit:10;stroke-dasharray:none;stroke-opacity:1"
       d="m 88.82746,463.48373 h 93.48 v 27.96 h -93.48 z" /><g
       transform="translate(-9.1525424,130.42373)"
       id="g4225"><g
         clip-path="url(#clipPath4231)"
         id="g4227"><text
           id="text4235"
           style="font-variant:normal;font-weight:normal;font-size:18px;font-family:Arial;-inkscape-font-specification:ArialMT;writing-mode:lr-tb;fill:#000000;fill-opacity:1;fill-rule:nonzero;stroke:none"
           transform="matrix(1,0,0,-1,111.14,340.34)"><tspan
             id="tspan4233"
             y="0"
             x="0 10.998 16.992001 27 41.993999 52.001999 57.006001">Frame 1</tspan></text>
</g></g><path
       id="path4237"
       style="fill:#d9d9d9;fill-opacity:1;fill-rule:evenodd;stroke:none"
       d="m 191.42746,463.48373 h 93.6 v 27.96 h -93.6 z" /><path
       id="path4239"
       style="fill:none;stroke:#a30000;stroke-width:2.03999996;stroke-linecap:butt;stroke-linejoin:round;stroke-miterlimit:10;stroke-dasharray:none;stroke-opacity:1"
       d="m 191.42746,463.48373 h 93.6 v 27.96 h -93.6 z" /><g
       transform="translate(-9.1525424,130.42373)"
       id="g4241"><g
         clip-path="url(#clipPath4247)"
         id="g4243"><text
           id="text4251"
           style="font-variant:normal;font-weight:normal;font-size:18px;font-family:Arial;-inkscape-font-specification:ArialMT;writing-mode:lr-tb;fill:#000000;fill-opacity:1;fill-rule:nonzero;stroke:none"
           transform="matrix(1,0,0,-1,213.86,340.34)"><tspan
             id="tspan4249"
             y="0"
             x="0 10.998 16.992001 27 41.993999 52.001999 57.006001">Frame 2</tspan></text>
</g></g><path
       id="path4253"
       style="fill:#7f7f7f;fill-opacity:1;fill-rule:evenodd;stroke:none"
       d="m 191.42746,423.40373 h 93.6 v 28.08 h -93.6 z" /><path
       id="path4255"
       style="fill:none;stroke:#a30000;stroke-width:2.03999996;stroke-linecap:butt;stroke-linejoin:round;stroke-miterlimit:10;stroke-dasharray:none;stroke-opacity:1"
       d="m 191.42746,423.40373 h 93.6 v 28.08 h -93.6 z" /><g
       transform="translate(-9.1525424,130.42373)"
       id="g4257"><g
         clip-path="url(#clipPath4263)"
         id="g4259"><text
           id="text4267"
           style="font-variant:normal;font-weight:normal;font-size:18px;font-family:Arial;-inkscape-font-specification:ArialMT;writing-mode:lr-tb;fill:#000000;fill-opacity:1;fill-rule:nonzero;stroke:none"
           transform="matrix(1,0,0,-1,213.86,300.29)"><tspan
             id="tspan4265"
             y="0"
             x="0 10.998 16.992001 27 41.993999 52.001999 57.006001">Frame 1</tspan></text>
</g></g><path
       id="path4269"
       style="fill:#7f7f7f;fill-opacity:1;fill-rule:evenodd;stroke:none"
       d="m 297.02746,423.40373 h 93.48 v 28.08 h -93.48 z" /><path
       id="path4271"
       style="fill:none;stroke:#a30000;stroke-width:2.03999996;stroke-linecap:butt;stroke-linejoin:round;stroke-miterlimit:10;stroke-dasharray:none;stroke-opacity:1"
       d="m 297.02746,423.40373 h 93.48 v 28.08 h -93.48 z" /><g
       transform="translate(-9.1525424,130.42373)"
       id="g4273"><g
         clip-path="url(#clipPath4279)"
         id="g4275"><text
           id="text4283"
           style="font-variant:normal;font-weight:normal;font-size:18px;font-family:Arial;-inkscape-font-specification:ArialMT;writing-mode:lr-tb;fill:#000000;fill-opacity:1;fill-rule:nonzero;stroke:none"
           transform="matrix(1,0,0,-1,319.39,300.29)"><tspan
             id="tspan4281"
             y="0"
             x="0 10.998 16.992001 27 41.993999 52.001999 57.006001">Frame 2</tspan></text>
</g></g><path
       id="path4285"
       style="fill:#d9d9d9;fill-opacity:1;fill-rule:evenodd;stroke:none"
       d="m 297.02746,463.48373 h 93.48 v 27.96 h -93.48 z" /><path
       id="path4287"
       style="fill:none;stroke:#a30000;stroke-width:2.03999996;stroke-linecap:butt;stroke-linejoin:round;stroke-miterlimit:10;stroke-dasharray:none;stroke-opacity:1"
       d="m 297.02746,463.48373 h 93.48 v 27.96 h -93.48 z" /><g
       transform="translate(-9.1525424,130.42373)"
       id="g4289"><g
         clip-path="url(#clipPath4295)"
         id="g4291"><text
           id="text4299"
           style="font-variant:normal;font-weight:normal;font-size:18px;font-family:Arial;-inkscape-font-specification:ArialMT;writing-mode:lr-tb;fill:#000000;fill-opacity:1;fill-rule:nonzero;stroke:none"
           transform="matrix(1,0,0,-1,319.39,340.34)"><tspan
             id="tspan4297"
             y="0"
             x="0 10.998 16.992001 27 41.993999 52.001999 57.006001">Frame 3</tspan></text>
</g></g><path
       id="path4301"
       style="fill:#ffc5c5;fill-opacity:1;fill-rule:evenodd;stroke:none"
       d="m 297.02746,385.96373 h 93.48 v 28.08 h -93.48 z" /><path
       id="path4303"
       style="fill:none;stroke:#a30000;stroke-width:2.03999996;stroke-linecap:butt;stroke-linejoin:round;stroke-miterlimit:10;stroke-dasharray:none;stroke-opacity:1"
       d="m 297.02746,385.96373 h 93.48 v 28.08 h -93.48 z" /><g
       transform="translate(-9.1525424,130.42373)"
       id="g4305"><g
         clip-path="url(#clipPath4311)"
         id="g4307"><text
           id="text4315"
           style="font-variant:normal;font-weight:normal;font-size:18px;font-family:Arial;-inkscape-font-specification:ArialMT;writing-mode:lr-tb;fill:#000000;fill-opacity:1;fill-rule:nonzero;stroke:none"
           transform="matrix(1,0,0,-1,319.39,262.87)"><tspan
             id="tspan4313"
             y="0"
             x="0 10.998 16.992001 27 41.993999 52.001999 57.006001">Frame 1</tspan></text>
</g></g><path
       id="path4317"
       style="fill:#7f7f7f;fill-opacity:1;fill-rule:evenodd;stroke:none"
       d="m 405.02746,423.40373 h 93.6 v 28.08 h -93.6 z" /><path
       id="path4319"
       style="fill:none;stroke:#a30000;stroke-width:2.03999996;stroke-linecap:butt;stroke-linejoin:round;stroke-miterlimit:10;stroke-dasharray:none;stroke-opacity:1"
       d="m 405.02746,423.40373 h 93.6 v 28.08 h -93.6 z" /><g
       transform="translate(-9.1525424,130.42373)"
       id="g4321"><g
         clip-path="url(#clipPath4327)"
         id="g4323"><text
           id="text4331"
           style="font-variant:normal;font-weight:normal;font-size:18px;font-family:Arial;-inkscape-font-specification:ArialMT;writing-mode:lr-tb;fill:#000000;fill-opacity:1;fill-rule:nonzero;stroke:none"
           transform="matrix(1,0,0,-1,427.49,300.29)"><tspan
             id="tspan4329"
             y="0"
             x="0 10.998 16.992001 27 41.993999 52.001999 57.006001">Frame 3</tspan></text>
</g></g><path
       id="path4333"
       style="fill:#ffc5c5;fill-opacity:1;fill-rule:evenodd;stroke:none"
       d="m 405.02746,385.96373 h 93.6 v 28.08 h -93.6 z" /><path
       id="path4335"
       style="fill:none;stroke:#a30000;stroke-width:2.03999996;stroke-linecap:butt;stroke-linejoin:round;stroke-miterlimit:10;stroke-dasharray:none;stroke-opacity:1"
       d="m 405.02746,385.96373 h 93.6 v 28.08 h -93.6 z" /><g
       transform="translate(-9.1525424,130.42373)"
       id="g4337"><g
         clip-path="url(#clipPath4343)"
         id="g4339"><text
           id="text4347"
           style="font-variant:normal;font-weight:normal;font-size:18px;font-family:Arial;-inkscape-font-specification:ArialMT;writing-mode:lr-tb;fill:#000000;fill-opacity:1;fill-rule:nonzero;stroke:none"
           transform="matrix(1,0,0,-1,427.49,262.87)"><tspan
             id="tspan4345"
             y="0"
             x="0 10.998 16.992001 27 41.993999 52.001999 57.006001">Frame 2</tspan></text>
</g></g><path
       id="path4349"
       style="fill:#ffc5c5;fill-opacity:1;fill-rule:evenodd;stroke:none"
       d="m 510.62746,385.48373 h 93.48 v 28.08 h -93.48 z" /><path
       id="path4351"
       style="fill:none;stroke:#a30000;stroke-width:2.03999996;stroke-linecap:butt;stroke-linejoin:round;stroke-miterlimit:10;stroke-dasharray:none;stroke-opacity:1"
       d="m 510.62746,385.48373 h 93.48 v 28.08 h -93.48 z" /><g
       transform="translate(-9.1525424,130.42373)"
       id="g4353"><g
         clip-path="url(#clipPath4359)"
         id="g4355"><text
           id="text4363"
           style="font-variant:normal;font-weight:normal;font-size:18px;font-family:Arial;-inkscape-font-specification:ArialMT;writing-mode:lr-tb;fill:#000000;fill-opacity:1;fill-rule:nonzero;stroke:none"
           transform="matrix(1,0,0,-1,532.99,262.42)"><tspan
             id="tspan4361"
             y="0"
             x="0 10.998 16.992001 27 41.993999 52.001999 57.006001">Frame 3</tspan></text>
</g></g><path
       id="path4365"
       style="fill:none;stroke:#de0000;stroke-width:0.72000003;stroke-linecap:butt;stroke-linejoin:round;stroke-miterlimit:10;stroke-dasharray:none;stroke-opacity:1"
       d="m 88.76746,512.14373 v -171.12" /><path
       id="path4367"
       style="fill:none;stroke:#de0000;stroke-width:0.72000003;stroke-linecap:butt;stroke-linejoin:round;stroke-miterlimit:10;stroke-dasharray:none;stroke-opacity:1"
       d="M 44.727458,385.54373 H 678.69746" /><path
       id="path4369"
       style="fill:#d9d9d9;fill-opacity:1;fill-rule:evenodd;stroke:none"
       d="m 405.02746,463.60373 h 93.6 v 28.08 h -93.6 z" /><path
       id="path4371"
       style="fill:none;stroke:#a30000;stroke-width:2.03999996;stroke-linecap:butt;stroke-linejoin:round;stroke-miterlimit:10;stroke-dasharray:none;stroke-opacity:1"
       d="m 405.02746,463.60373 h 93.6 v 28.08 h -93.6 z" /><g
       transform="translate(-9.1525424,130.42373)"
       id="g4373"><g
         clip-path="url(#clipPath4379)"
         id="g4375"><text
           id="text4383"
           style="font-variant:normal;font-weight:normal;font-size:18px;font-family:Arial;-inkscape-font-specification:ArialMT;writing-mode:lr-tb;fill:#000000;fill-opacity:1;fill-rule:nonzero;stroke:none"
           transform="matrix(1,0,0,-1,427.49,340.51)"><tspan
             id="tspan4381"
             y="0"
             x="0 10.998 16.992001 27 41.993999 52.001999 57.006001">Frame 4</tspan></text>
</g></g><path
       id="path4385"
       style="fill:#7f7f7f;fill-opacity:1;fill-rule:evenodd;stroke:none"
       d="m 510.62746,423.76373 h 93.48 v 27.96 h -93.48 z" /><path
       id="path4387"
       style="fill:none;stroke:#a30000;stroke-width:2.03999996;stroke-linecap:butt;stroke-linejoin:round;stroke-miterlimit:10;stroke-dasharray:none;stroke-opacity:1"
       d="m 510.62746,423.76373 h 93.48 v 27.96 h -93.48 z" /><g
       transform="translate(-9.1525424,130.42373)"
       id="g4389"><g
         clip-path="url(#clipPath4395)"
         id="g4391"><text
           id="text4399"
           style="font-variant:normal;font-weight:normal;font-size:18px;font-family:Arial;-inkscape-font-specification:ArialMT;writing-mode:lr-tb;fill:#000000;fill-opacity:1;fill-rule:nonzero;stroke:none"
           transform="matrix(1,0,0,-1,532.99,300.6)"><tspan
             id="tspan4397"
             y="0"
             x="0 10.998 16.992001 27 41.993999 52.001999 57.006001">Frame 4</tspan></text>
</g></g><path
       id="path4401"
       style="fill:#d9d9d9;fill-opacity:1;fill-rule:evenodd;stroke:none"
       d="m 510.62746,463.24373 h 93.48 v 28.08 h -93.48 z" /><path
       id="path4403"
       style="fill:none;stroke:#a30000;stroke-width:2.03999996;stroke-linecap:butt;stroke-linejoin:round;stroke-miterlimit:10;stroke-dasharray:none;stroke-opacity:1"
       d="m 510.62746,463.24373 h 93.48 v 28.08 h -93.48 z" /><g
       transform="translate(-9.1525424,130.42373)"
       id="g4405"><g
         clip-path="url(#clipPath4411)"
         id="g4407"><text
           id="text4415"
           style="font-variant:normal;font-weight:normal;font-size:18px;font-family:Arial;-inkscape-font-specification:ArialMT;writing-mode:lr-tb;fill:#000000;fill-opacity:1;fill-rule:nonzero;stroke:none"
           transform="matrix(1,0,0,-1,532.99,340.2)"><tspan
             id="tspan4413"
             y="0"
             x="0 10.998 16.992001 27 41.993999 52.001999 57.006001">Frame 5</tspan></text>
</g></g><path
       id="path4417"
       style="fill:none;stroke:#de0000;stroke-width:0.72000003;stroke-linecap:butt;stroke-linejoin:round;stroke-miterlimit:10;stroke-dasharray:none;stroke-opacity:1"
       d="m 191.12746,509.38373 v -123.74" /><path
       id="path4419"
       style="fill:none;stroke:#de0000;stroke-width:0.72000003;stroke-linecap:butt;stroke-linejoin:round;stroke-miterlimit:10;stroke-dasharray:none;stroke-opacity:1"
       d="m 296.96746,505.90373 v -123.74" /><path
       id="path4421"
       style="fill:none;stroke:#de0000;stroke-width:0.72000003;stroke-linecap:butt;stroke-linejoin:round;stroke-miterlimit:10;stroke-dasharray:none;stroke-opacity:1"
       d="m 403.40746,509.74373 v -123.74" /><path
       id="path4423"
       style="fill:none;stroke:#de0000;stroke-width:0.72000003;stroke-linecap:butt;stroke-linejoin:round;stroke-miterlimit:10;stroke-dasharray:none;stroke-opacity:1"
       d="m 510.56746,513.34373 v -123.74" /><g
       transform="translate(-9.1525424,130.42373)"
       id="g4425"><g
         clip-path="url(#clipPath4431)"
         id="g4427"><path
           id="path4433"
           style="fill:none;stroke:#de0000;stroke-width:0.72000003;stroke-linecap:butt;stroke-linejoin:round;stroke-miterlimit:10;stroke-dasharray:none;stroke-opacity:1"
           d="m 201.72,255.6 c 0,-7.89 -1.07,-14.28 -2.38,-14.28 H 152.2 c -1.31,0 -2.38,-6.39 -2.38,-14.28 0,7.89 -1.07,14.28 -2.38,14.28 H 100.3 c -1.314,0 -2.38,6.39 -2.38,14.28" /></g></g><g
       transform="translate(-9.1525424,130.42373)"
       id="g4435"><g
         clip-path="url(#clipPath4441)"
         id="g4437"><text
           id="text4445"
           style="font-variant:normal;font-weight:normal;font-size:15.96000004px;font-family:Arial;-inkscape-font-specification:ArialMT;writing-mode:lr-tb;fill:#000000;fill-opacity:1;fill-rule:nonzero;stroke:none"
           transform="matrix(1,0,0,-1,158.64,217.92)"><tspan
             id="tspan4443"
             y="0"
             x="0 8.8737602 17.74752 31.0422">33ms</tspan></text>
</g></g><g
       transform="translate(-9.1525424,130.42373)"
       id="g4447"><g
         clip-path="url(#clipPath4453)"
         id="g4449"><text
           id="text4457"
           style="font-variant:normal;font-weight:normal;font-size:18px;font-family:Arial;-inkscape-font-specification:ArialMT;writing-mode:lr-tb;fill:#000000;fill-opacity:1;fill-rule:nonzero;stroke:none"
           transform="matrix(1,0,0,-1,38.616,339.82)"><tspan
             id="tspan4455"
             y="0"
             x="0 5.0040002 17.01">ISP</tspan></text>
</g></g><g
       transform="translate(-9.1525424,130.42373)"
       id="g4459"><g
         clip-path="url(#clipPath4465)"
         id="g4461"><text
           id="text4469"
           style="font-variant:normal;font-weight:normal;font-size:18.02400017px;font-family:Arial;-inkscape-font-specification:ArialMT;writing-mode:lr-tb;fill:#000000;fill-opacity:1;fill-rule:nonzero;stroke:none"
           transform="matrix(1,0,0,-1,39.216,299.93)"><tspan
             id="tspan4467"
             y="0"
             x="0 13.013328 24.96324">DSP</tspan></text>
</g></g><g
       transform="translate(-9.1525424,130.42373)"
       id="g4471"><g
         clip-path="url(#clipPath4477)"
         id="g4473"><text
           id="text4481"
           style="font-variant:normal;font-weight:normal;font-size:18px;font-family:Arial;-inkscape-font-specification:ArialMT;writing-mode:lr-tb;fill:#000000;fill-opacity:1;fill-rule:nonzero;stroke:none"
           transform="matrix(1,0,0,-1,41.16,262.56)"><tspan
             id="tspan4479"
             y="0"
             x="0 12.996 25.002001">CPU</tspan></text>
</g></g><g
       transform="translate(-9.1525424,130.42373)"
       id="g4483"><g
         clip-path="url(#clipPath4489)"
         id="g4485"><text
           id="text4493"
           style="font-variant:normal;font-weight:normal;font-size:15.98400021px;font-family:Arial;-inkscape-font-specification:ArialMT;writing-mode:lr-tb;fill:#000000;fill-opacity:1;fill-rule:nonzero;stroke:none"
           transform="matrix(1,0,0,-1,641.16,262.61)"><tspan
             id="tspan4491"
             y="0"
             x="0 4.443552 8.0239677 21.33864">time</tspan></text>
</g></g></g></svg>