<?xml version="1.0" encoding="UTF-8" standalone="no"?>
<svg
   xmlns:dc="http://purl.org/dc/elements/1.1/"
   xmlns:cc="http://creativecommons.org/ns#"
   xmlns:rdf="http://www.w3.org/1999/02/22-rdf-syntax-ns#"
   xmlns:svg="http://www.w3.org/2000/svg"
   xmlns="http://www.w3.org/2000/svg"
   viewBox="0 0 881.95526 223.30174"
   height="5.9081917cm"
   width="23.335066cm"
   xml:space="preserve"
   id="svg10"
   version="1.1"><metadata
     id="metadata16"><rdf:RDF><cc:Work
         rdf:about=""><dc:format>image/svg+xml</dc:format><dc:type
           rdf:resource="http://purl.org/dc/dcmitype/StillImage" /><dc:title></dc:title></cc:Work></rdf:RDF></metadata><defs
     id="defs14"><clipPath
       id="clipPath26"
       clipPathUnits="userSpaceOnUse"><path
         style="clip-rule:evenodd"
         id="path24"
         d="M 0,1.2207e-4 H 720 V 540.00012 H 0 Z" /></clipPath><clipPath
       id="clipPath44"
       clipPathUnits="userSpaceOnUse"><path
         style="clip-rule:evenodd"
         id="path42"
         d="M 1.0729e-5,0 H 720.00001 V 540 H 1.0729e-5 Z" /></clipPath><clipPath
       id="clipPath60"
       clipPathUnits="userSpaceOnUse"><path
         style="clip-rule:evenodd"
         id="path58"
         d="M 1.0729e-5,0 H 720.00001 V 540 H 1.0729e-5 Z" /></clipPath><clipPath
       id="clipPath76"
       clipPathUnits="userSpaceOnUse"><path
         style="clip-rule:evenodd"
         id="path74"
         d="M 1.0729e-5,0 H 720.00001 V 540 H 1.0729e-5 Z" /></clipPath><clipPath
       id="clipPath88"
       clipPathUnits="userSpaceOnUse"><path
         style="clip-rule:evenodd"
         id="path86"
         d="M 1.0729e-5,0 H 720.00001 V 540 H 1.0729e-5 Z" /></clipPath><clipPath
       id="clipPath106"
       clipPathUnits="userSpaceOnUse"><path
         style="clip-rule:evenodd"
         id="path104"
         d="M 1.0729e-5,0 H 720.00001 V 540 H 1.0729e-5 Z" /></clipPath><clipPath
       id="clipPath118"
       clipPathUnits="userSpaceOnUse"><path
         style="clip-rule:evenodd"
         id="path116"
         d="M 1.0729e-5,0 H 720.00001 V 540 H 1.0729e-5 Z" /></clipPath><clipPath
       id="clipPath130"
       clipPathUnits="userSpaceOnUse"><path
         style="clip-rule:evenodd"
         id="path128"
         d="M 1.0729e-5,0 H 720.00001 V 540 H 1.0729e-5 Z" /></clipPath><clipPath
       id="clipPath146"
       clipPathUnits="userSpaceOnUse"><path
         style="clip-rule:evenodd"
         id="path144"
         d="M 1.0729e-5,0 H 720.00001 V 540 H 1.0729e-5 Z" /></clipPath><clipPath
       id="clipPath158"
       clipPathUnits="userSpaceOnUse"><path
         style="clip-rule:evenodd"
         id="path156"
         d="M 1.0729e-5,0 H 720.00001 V 540 H 1.0729e-5 Z" /></clipPath><clipPath
       id="clipPath170"
       clipPathUnits="userSpaceOnUse"><path
         style="clip-rule:evenodd"
         id="path168"
         d="M 1.0729e-5,0 H 720.00001 V 540 H 1.0729e-5 Z" /></clipPath><clipPath
       id="clipPath186"
       clipPathUnits="userSpaceOnUse"><path
         style="clip-rule:evenodd"
         id="path184"
         d="M 1.0729e-5,0 H 720.00001 V 540 H 1.0729e-5 Z" /></clipPath><clipPath
       id="clipPath198"
       clipPathUnits="userSpaceOnUse"><path
         style="clip-rule:evenodd"
         id="path196"
         d="M 1.0729e-5,0 H 720.00001 V 540 H 1.0729e-5 Z" /></clipPath><clipPath
       id="clipPath238"
       clipPathUnits="userSpaceOnUse"><path
         style="clip-rule:evenodd"
         id="path236"
         d="M 1.0729e-5,0 H 720.00001 V 540 H 1.0729e-5 Z" /></clipPath><clipPath
       id="clipPath278"
       clipPathUnits="userSpaceOnUse"><path
         style="clip-rule:evenodd"
         id="path276"
         d="M 1.0729e-5,0 H 720.00001 V 540 H 1.0729e-5 Z" /></clipPath></defs><g
     transform="matrix(1.3333333,0,0,-1.3333333,-9.3723615,713.71408)"
     id="g18"><path
       id="path34"
       style="fill:#b3b3b3;fill-opacity:1;fill-rule:evenodd;stroke:none"
       d="m 248.9025,383.0025 h 184.44 v 111.72 h -184.44 z" /><path
       id="path36"
       style="fill:none;stroke:#a30000;stroke-width:2.03999996;stroke-linecap:butt;stroke-linejoin:round;stroke-miterlimit:10;stroke-dasharray:none;stroke-opacity:1"
       d="m 248.9025,383.0025 h 184.44 v 111.72 h -184.44 z" /><g
       transform="translate(-8.4375002,14.0625)"
       id="g38"><g
         clip-path="url(#clipPath44)"
         id="g40"><text
           id="text48"
           style="font-variant:normal;font-weight:normal;font-size:12px;font-family:Arial;-inkscape-font-specification:ArialMT;writing-mode:lr-tb;fill:#000000;fill-opacity:1;fill-rule:nonzero;stroke:none"
           transform="matrix(1,0,0,-1,332.83,461.21)"><tspan
             id="tspan46"
             y="0"
             x="0 9.3360004 13.332 20.028 26.736">Graph</tspan></text>
</g></g><path
       id="path50"
       style="fill:#ffc5c5;fill-opacity:1;fill-rule:evenodd;stroke:none"
       d="m 275.3025,433.8825 h 131.64 v 28.68 h -131.64 z" /><path
       id="path52"
       style="fill:none;stroke:#a30000;stroke-width:2.03999996;stroke-linecap:butt;stroke-linejoin:round;stroke-miterlimit:10;stroke-dasharray:none;stroke-opacity:1"
       d="m 275.3025,433.8825 h 131.64 v 28.68 h -131.64 z" /><g
       transform="translate(-8.4375002,14.0625)"
       id="g54"><g
         clip-path="url(#clipPath60)"
         id="g56"><text
           id="text64"
           style="font-variant:normal;font-weight:normal;font-size:12px;font-family:Arial;-inkscape-font-specification:ArialMT;writing-mode:lr-tb;fill:#000000;fill-opacity:1;fill-rule:nonzero;stroke:none"
           transform="matrix(1,0,0,-1,291.89,429.72)"><tspan
             id="tspan62"
             y="0"
             x="0 5.8800001 11.76 20.424 27.096001 31.091999 35.040001 37.703999 43.703999 52.32 59.028 63.023998 69.695999 76.416 80.412003 86.412003 95.015999 101.724 108.432">vxHarrisCornersNode</tspan></text>
</g></g><path
       id="path66"
       style="fill:#e6e6e6;fill-opacity:1;fill-rule:evenodd;stroke:none"
       d="m 275.3025,393.0825 h 131.64 v 21.36 h -131.64 z" /><path
       id="path68"
       style="fill:none;stroke:#a30000;stroke-width:2.03999996;stroke-linecap:butt;stroke-linejoin:round;stroke-miterlimit:10;stroke-dasharray:none;stroke-opacity:1"
       d="m 275.3025,393.0825 h 131.64 v 21.36 h -131.64 z" /><g
       transform="translate(-8.4375002,14.0625)"
       id="g70"><g
         clip-path="url(#clipPath76)"
         id="g72"><text
           id="text80"
           style="font-variant:normal;font-weight:normal;font-size:12px;font-family:Arial;-inkscape-font-specification:ArialMT;writing-mode:lr-tb;fill:#000000;fill-opacity:1;fill-rule:nonzero;stroke:none"
           transform="matrix(1,0,0,-1,300.17,385.27)"><tspan
             id="tspan78"
             y="0"
             x="0 3.4679999 6.132 11.988 18.695999 25.403999 28.643999 35.352001 42.060001 48.768002 55.368">fixed node </tspan></text>
</g></g><g
       transform="translate(-8.4375002,14.0625)"
       id="g82"><g
         clip-path="url(#clipPath88)"
         id="g84"><text
           id="text92"
           style="font-variant:normal;font-weight:normal;font-size:12px;font-family:Arial;-inkscape-font-specification:ArialMT;writing-mode:lr-tb;fill:#000000;fill-opacity:1;fill-rule:nonzero;stroke:none"
           transform="matrix(1,0,0,-1,358.61,385.27)"><tspan
             id="tspan90"
             y="0"
             x="0 6.7080002 13.416 17.412001 24.084 34.164001">params</tspan></text>
</g></g><path
       id="path94"
       style="fill:#000000;fill-opacity:1;fill-rule:nonzero;stroke:none"
       d="m 342.2025,414.4725 v 13.71 h -2.28 v -13.71 z m 2.28,12.57 -3.42,6.84 -3.42,-6.84 z" /><path
       id="path96"
       style="fill:#e6e6e6;fill-opacity:1;fill-rule:evenodd;stroke:none"
       d="m 457.8225,447.0825 h 83.28 v 24 h -83.28 z" /><path
       id="path98"
       style="fill:none;stroke:#a30000;stroke-width:2.03999996;stroke-linecap:butt;stroke-linejoin:round;stroke-miterlimit:10;stroke-dasharray:none;stroke-opacity:1"
       d="m 457.8225,447.0825 h 83.28 v 24 h -83.28 z" /><g
       transform="translate(-8.4375002,14.0625)"
       id="g100"><g
         clip-path="url(#clipPath106)"
         id="g102"><text
           id="text110"
           style="font-variant:normal;font-weight:normal;font-size:12px;font-family:Arial;-inkscape-font-specification:ArialMT;writing-mode:lr-tb;fill:#000000;fill-opacity:1;fill-rule:nonzero;stroke:none"
           transform="matrix(1,0,0,-1,475.03,440.59)"><tspan
             id="tspan108"
             y="0"
             x="0 6 12.708 16.704 23.375999 30.096001 34.091999 40.091999 43.175999">corners (</tspan></text>
</g></g><g
       transform="translate(-8.4375002,14.0625)"
       id="g112"><g
         clip-path="url(#clipPath118)"
         id="g114"><text
           id="text122"
           style="font-variant:normal;font-weight:normal;font-size:12px;font-family:Arial;-inkscape-font-specification:ArialMT;writing-mode:lr-tb;fill:#000000;fill-opacity:1;fill-rule:nonzero;stroke:none"
           transform="matrix(1,0,0,-1,522.19,440.59)"><tspan
             id="tspan120"
             y="0"
             x="0 6.7080002 10.704">arr</tspan></text>
</g></g><g
       transform="translate(-8.4375002,14.0625)"
       id="g124"><g
         clip-path="url(#clipPath130)"
         id="g126"><text
           id="text134"
           style="font-variant:normal;font-weight:normal;font-size:12px;font-family:Arial;-inkscape-font-specification:ArialMT;writing-mode:lr-tb;fill:#000000;fill-opacity:1;fill-rule:nonzero;stroke:none"
           transform="matrix(1,0,0,-1,536.83,440.59)"><tspan
             id="tspan132"
             y="0"
             x="0">)</tspan></text>
</g></g><path
       id="path136"
       style="fill:#e6e6e6;fill-opacity:1;fill-rule:evenodd;stroke:none"
       d="m 141.1425,456.4425 h 83.28 v 24 h -83.28 z" /><path
       id="path138"
       style="fill:none;stroke:#a30000;stroke-width:2.03999996;stroke-linecap:butt;stroke-linejoin:round;stroke-miterlimit:10;stroke-dasharray:none;stroke-opacity:1"
       d="m 141.1425,456.4425 h 83.28 v 24 h -83.28 z" /><g
       transform="translate(-8.4375002,14.0625)"
       id="g140"><g
         clip-path="url(#clipPath146)"
         id="g142"><text
           id="text150"
           style="font-variant:normal;font-weight:normal;font-size:12px;font-family:Arial;-inkscape-font-specification:ArialMT;writing-mode:lr-tb;fill:#000000;fill-opacity:1;fill-rule:nonzero;stroke:none"
           transform="matrix(1,0,0,-1,162.89,449.93)"><tspan
             id="tspan148"
             y="0"
             x="0 2.664 9.3360004 16.068001 22.775999 26.112 29.256001">input (</tspan></text>
</g></g><g
       transform="translate(-8.4375002,14.0625)"
       id="g152"><g
         clip-path="url(#clipPath158)"
         id="g154"><text
           id="text162"
           style="font-variant:normal;font-weight:normal;font-size:12px;font-family:Arial;-inkscape-font-specification:ArialMT;writing-mode:lr-tb;fill:#000000;fill-opacity:1;fill-rule:nonzero;stroke:none"
           transform="matrix(1,0,0,-1,196.13,449.93)"><tspan
             id="tspan160"
             y="0"
             x="0 2.664 12.708">img</tspan></text>
</g></g><g
       transform="translate(-8.4375002,14.0625)"
       id="g164"><g
         clip-path="url(#clipPath170)"
         id="g166"><text
           id="text174"
           style="font-variant:normal;font-weight:normal;font-size:12px;font-family:Arial;-inkscape-font-specification:ArialMT;writing-mode:lr-tb;fill:#000000;fill-opacity:1;fill-rule:nonzero;stroke:none"
           transform="matrix(1,0,0,-1,215.45,449.93)"><tspan
             id="tspan172"
             y="0"
             x="0">)</tspan></text>
</g></g><path
       id="path176"
       style="fill:#e6e6e6;fill-opacity:1;fill-rule:evenodd;stroke:none"
       d="m 141.1425,393.5625 h 83.28 v 37.2 h -83.28 z" /><path
       id="path178"
       style="fill:none;stroke:#a30000;stroke-width:2.03999996;stroke-linecap:butt;stroke-linejoin:round;stroke-miterlimit:10;stroke-dasharray:none;stroke-opacity:1"
       d="m 141.1425,393.5625 h 83.28 v 37.2 h -83.28 z" /><g
       transform="translate(-8.4375002,14.0625)"
       id="g180"><g
         clip-path="url(#clipPath186)"
         id="g182"><text
           id="text190"
           style="font-variant:normal;font-weight:normal;font-size:12px;font-family:Arial;-inkscape-font-specification:ArialMT;writing-mode:lr-tb;fill:#000000;fill-opacity:1;fill-rule:nonzero;stroke:none"
           transform="matrix(1,0,0,-1,169.49,400.87)"><tspan
             id="tspan188"
             y="0"
             x="0 6 9.3360004 13.332 20.028 26.736 33.335999 36.672001 43.403999">strength </tspan></text>
</g></g><g
       transform="translate(-8.4375002,14.0625)"
       id="g192"><g
         clip-path="url(#clipPath198)"
         id="g194"><text
           id="text202"
           style="font-variant:normal;font-weight:normal;font-size:12px;font-family:Arial;-inkscape-font-specification:ArialMT;writing-mode:lr-tb;fill:#000000;fill-opacity:1;fill-rule:nonzero;stroke:none"
           transform="matrix(1,0,0,-1,171.17,386.47)"><tspan
             id="tspan200"
             y="0"
             x="0 3.9960001 9.9960003 15.996 22.667999 25.332001 32.028 36.023998">(scalar)</tspan></text>
</g></g><path
       id="path204"
       style="fill:#e6e6e6;fill-opacity:1;fill-rule:evenodd;stroke:none"
       d="m 569.9025,494.7225 h 83.4 v 10.08 h -83.4 z" /><path
       id="path206"
       style="fill:none;stroke:#a30000;stroke-width:2.03999996;stroke-linecap:butt;stroke-linejoin:round;stroke-miterlimit:10;stroke-dasharray:none;stroke-opacity:1"
       d="m 569.9025,494.7225 h 83.4 v 10.08 h -83.4 z" /><path
       id="path208"
       style="fill:#e6e6e6;fill-opacity:1;fill-rule:evenodd;stroke:none"
       d="m 569.9025,480.8025 h 83.4 v 10.08 h -83.4 z" /><path
       id="path210"
       style="fill:none;stroke:#a30000;stroke-width:2.03999996;stroke-linecap:butt;stroke-linejoin:round;stroke-miterlimit:10;stroke-dasharray:none;stroke-opacity:1"
       d="m 569.9025,480.8025 h 83.4 v 10.08 h -83.4 z" /><path
       id="path212"
       style="fill:#e6e6e6;fill-opacity:1;fill-rule:evenodd;stroke:none"
       d="m 569.9025,466.8825 h 83.4 v 10.2 h -83.4 z" /><path
       id="path214"
       style="fill:none;stroke:#a30000;stroke-width:2.03999996;stroke-linecap:butt;stroke-linejoin:round;stroke-miterlimit:10;stroke-dasharray:none;stroke-opacity:1"
       d="m 569.9025,466.8825 h 83.4 v 10.2 h -83.4 z" /><path
       id="path216"
       style="fill:#e6e6e6;fill-opacity:1;fill-rule:evenodd;stroke:none"
       d="m 569.9025,452.8425 h 83.4 v 10.2 h -83.4 z" /><path
       id="path218"
       style="fill:none;stroke:#a30000;stroke-width:2.03999996;stroke-linecap:butt;stroke-linejoin:round;stroke-miterlimit:10;stroke-dasharray:none;stroke-opacity:1"
       d="m 569.9025,452.8425 h 83.4 v 10.2 h -83.4 z" /><path
       id="path220"
       style="fill:#e6e6e6;fill-opacity:1;fill-rule:evenodd;stroke:none"
       d="m 569.9025,439.1625 h 83.4 v 10.08 h -83.4 z" /><path
       id="path222"
       style="fill:none;stroke:#a30000;stroke-width:2.03999996;stroke-linecap:butt;stroke-linejoin:round;stroke-miterlimit:10;stroke-dasharray:none;stroke-opacity:1"
       d="m 569.9025,439.1625 h 83.4 v 10.08 h -83.4 z" /><path
       id="path224"
       style="fill:#e6e6e6;fill-opacity:1;fill-rule:evenodd;stroke:none"
       d="m 569.9025,425.1225 h 83.4 v 10.08 h -83.4 z" /><path
       id="path226"
       style="fill:none;stroke:#a30000;stroke-width:2.03999996;stroke-linecap:butt;stroke-linejoin:round;stroke-miterlimit:10;stroke-dasharray:none;stroke-opacity:1"
       d="m 569.9025,425.1225 h 83.4 v 10.08 h -83.4 z" /><path
       id="path228"
       style="fill:#e6e6e6;fill-opacity:1;fill-rule:evenodd;stroke:none"
       d="m 569.9025,411.3225 h 83.4 v 10.08 h -83.4 z" /><path
       id="path230"
       style="fill:none;stroke:#a30000;stroke-width:2.03999996;stroke-linecap:butt;stroke-linejoin:round;stroke-miterlimit:10;stroke-dasharray:none;stroke-opacity:1"
       d="m 569.9025,411.3225 h 83.4 v 10.08 h -83.4 z" /><g
       transform="translate(-8.4375002,14.0625)"
       id="g232"><g
         clip-path="url(#clipPath238)"
         id="g234"><text
           id="text242"
           style="font-variant:normal;font-weight:normal;font-size:12px;font-family:Arial;-inkscape-font-specification:ArialMT;writing-mode:lr-tb;fill:#000000;fill-opacity:1;fill-rule:nonzero;stroke:none"
           transform="matrix(1,0,0,-1,586.97,498.46)"><tspan
             id="tspan240"
             y="0"
             x="0 6.7080002 13.416 16.752001 23.483999 30.191999 33.528 36.551998 43.259998 49.967999 53.304001 59.304001">output batch</tspan></text>
</g></g><path
       id="path244"
       style="fill:#e6e6e6;fill-opacity:1;fill-rule:evenodd;stroke:none"
       d="m 22.2225,494.7225 h 83.28 v 10.08 h -83.28 z" /><path
       id="path246"
       style="fill:none;stroke:#a30000;stroke-width:2.03999996;stroke-linecap:butt;stroke-linejoin:round;stroke-miterlimit:10;stroke-dasharray:none;stroke-opacity:1"
       d="m 22.2225,494.7225 h 83.28 v 10.08 h -83.28 z" /><path
       id="path248"
       style="fill:#e6e6e6;fill-opacity:1;fill-rule:evenodd;stroke:none"
       d="m 22.2225,480.8025 h 83.28 v 10.08 h -83.28 z" /><path
       id="path250"
       style="fill:none;stroke:#a30000;stroke-width:2.03999996;stroke-linecap:butt;stroke-linejoin:round;stroke-miterlimit:10;stroke-dasharray:none;stroke-opacity:1"
       d="m 22.2225,480.8025 h 83.28 v 10.08 h -83.28 z" /><path
       id="path252"
       style="fill:#e6e6e6;fill-opacity:1;fill-rule:evenodd;stroke:none"
       d="m 22.2225,466.8825 h 83.28 v 10.2 h -83.28 z" /><path
       id="path254"
       style="fill:none;stroke:#a30000;stroke-width:2.03999996;stroke-linecap:butt;stroke-linejoin:round;stroke-miterlimit:10;stroke-dasharray:none;stroke-opacity:1"
       d="m 22.2225,466.8825 h 83.28 v 10.2 h -83.28 z" /><path
       id="path256"
       style="fill:#e6e6e6;fill-opacity:1;fill-rule:evenodd;stroke:none"
       d="m 22.2225,452.8425 h 83.28 v 10.2 h -83.28 z" /><path
       id="path258"
       style="fill:none;stroke:#a30000;stroke-width:2.03999996;stroke-linecap:butt;stroke-linejoin:round;stroke-miterlimit:10;stroke-dasharray:none;stroke-opacity:1"
       d="m 22.2225,452.8425 h 83.28 v 10.2 h -83.28 z" /><path
       id="path260"
       style="fill:#e6e6e6;fill-opacity:1;fill-rule:evenodd;stroke:none"
       d="m 22.2225,439.1625 h 83.28 v 10.08 h -83.28 z" /><path
       id="path262"
       style="fill:none;stroke:#a30000;stroke-width:2.03999996;stroke-linecap:butt;stroke-linejoin:round;stroke-miterlimit:10;stroke-dasharray:none;stroke-opacity:1"
       d="m 22.2225,439.1625 h 83.28 v 10.08 h -83.28 z" /><path
       id="path264"
       style="fill:#e6e6e6;fill-opacity:1;fill-rule:evenodd;stroke:none"
       d="m 22.2225,425.1225 h 83.28 v 10.08 h -83.28 z" /><path
       id="path266"
       style="fill:none;stroke:#a30000;stroke-width:2.03999996;stroke-linecap:butt;stroke-linejoin:round;stroke-miterlimit:10;stroke-dasharray:none;stroke-opacity:1"
       d="m 22.2225,425.1225 h 83.28 v 10.08 h -83.28 z" /><path
       id="path268"
       style="fill:#e6e6e6;fill-opacity:1;fill-rule:evenodd;stroke:none"
       d="m 22.2225,411.3225 h 83.28 v 10.08 h -83.28 z" /><path
       id="path270"
       style="fill:none;stroke:#a30000;stroke-width:2.03999996;stroke-linecap:butt;stroke-linejoin:round;stroke-miterlimit:10;stroke-dasharray:none;stroke-opacity:1"
       d="m 22.2225,411.3225 h 83.28 v 10.08 h -83.28 z" /><g
       transform="translate(-8.4375002,14.0625)"
       id="g272"><g
         clip-path="url(#clipPath278)"
         id="g274"><text
           id="text282"
           style="font-variant:normal;font-weight:normal;font-size:12px;font-family:Arial;-inkscape-font-specification:ArialMT;writing-mode:lr-tb;fill:#000000;fill-opacity:1;fill-rule:nonzero;stroke:none"
           transform="matrix(1,0,0,-1,42.864,498.46)"><tspan
             id="tspan280"
             y="0"
             x="0 2.664 9.3360004 16.068001 22.775999 26.112 29.256001 35.964001 42.672001 46.007999 52.007999">input batch</tspan></text>
</g></g><path
       id="path284"
       style="fill:#000000;fill-opacity:1;fill-rule:nonzero;stroke:none"
       d="m 224.4225,469.5825 h 18.69 v -2.28 h -18.69 z m 17.55,2.28 6.84,-3.42 -6.84,-3.42 z" /><path
       id="path286"
       style="fill:#000000;fill-opacity:1;fill-rule:nonzero;stroke:none"
       d="m 224.4225,413.3025 h 18.69 v -2.28 h -18.69 z m 17.55,2.28 6.84,-3.42 -6.84,-3.42 z" /><path
       id="path288"
       style="fill:#000000;fill-opacity:1;fill-rule:nonzero;stroke:none"
       d="m 433.3425,460.2225 h 18.69 v -2.28 h -18.69 z m 17.55,2.28 6.84,-3.42 -6.84,-3.42 z" /><path
       id="path290"
       style="fill:#000000;fill-opacity:1;fill-rule:nonzero;stroke:none"
       d="m 541.1025,460.2225 h 18.69 v -2.28 h -18.69 z m 17.55,2.28 6.84,-3.42 -6.84,-3.42 z" /><path
       id="path292"
       style="fill:#000000;fill-opacity:1;fill-rule:nonzero;stroke:none"
       d="m 109.9425,469.5825 h 25.41 v -2.28 h -25.41 z m 24.27,2.28 6.84,-3.42 -6.84,-3.42 z" /></g></svg>