<?xml version="1.0" encoding="UTF-8" standalone="no"?>
<svg
   xmlns:dc="http://purl.org/dc/elements/1.1/"
   xmlns:cc="http://creativecommons.org/ns#"
   xmlns:rdf="http://www.w3.org/1999/02/22-rdf-syntax-ns#"
   xmlns:svg="http://www.w3.org/2000/svg"
   xmlns="http://www.w3.org/2000/svg"
   viewBox="0 0 786.43521 224.29815"
   height="5.9345551cm"
   width="20.807766cm"
   xml:space="preserve"
   id="svg4495"
   version="1.1"><metadata
     id="metadata4501"><rdf:RDF><cc:Work
         rdf:about=""><dc:format>image/svg+xml</dc:format><dc:type
           rdf:resource="http://purl.org/dc/dcmitype/StillImage" /><dc:title></dc:title></cc:Work></rdf:RDF></metadata><defs
     id="defs4499"><clipPath
       id="clipPath4511"
       clipPathUnits="userSpaceOnUse"><path
         style="clip-rule:evenodd"
         id="path4509"
         d="M 0,1.2207e-4 H 720 V 540.00012 H 0 Z" /></clipPath><clipPath
       id="clipPath4529"
       clipPathUnits="userSpaceOnUse"><path
         style="clip-rule:evenodd"
         id="path4527"
         d="M 1.0729e-5,0 H 720.00001 V 540 H 1.0729e-5 Z" /></clipPath><clipPath
       id="clipPath4545"
       clipPathUnits="userSpaceOnUse"><path
         style="clip-rule:evenodd"
         id="path4543"
         d="M 1.0729e-5,0 H 720.00001 V 540 H 1.0729e-5 Z" /></clipPath><clipPath
       id="clipPath4561"
       clipPathUnits="userSpaceOnUse"><path
         style="clip-rule:evenodd"
         id="path4559"
         d="M 1.0729e-5,0 H 720.00001 V 540 H 1.0729e-5 Z" /></clipPath><clipPath
       id="clipPath4575"
       clipPathUnits="userSpaceOnUse"><path
         style="clip-rule:evenodd"
         id="path4573"
         d="M 1.0729e-5,0 H 720.00001 V 540 H 1.0729e-5 Z" /></clipPath><clipPath
       id="clipPath4589"
       clipPathUnits="userSpaceOnUse"><path
         style="clip-rule:evenodd"
         id="path4587"
         d="M 1.0729e-5,0 H 720.00001 V 540 H 1.0729e-5 Z" /></clipPath><clipPath
       id="clipPath4603"
       clipPathUnits="userSpaceOnUse"><path
         style="clip-rule:evenodd"
         id="path4601"
         d="M 1.0729e-5,0 H 720.00001 V 540 H 1.0729e-5 Z" /></clipPath><clipPath
       id="clipPath4617"
       clipPathUnits="userSpaceOnUse"><path
         style="clip-rule:evenodd"
         id="path4615"
         d="M 1.0729e-5,0 H 720.00001 V 540 H 1.0729e-5 Z" /></clipPath><clipPath
       id="clipPath4629"
       clipPathUnits="userSpaceOnUse"><path
         style="clip-rule:evenodd"
         id="path4627"
         d="M -1.981e-6,540 H 720 V 0 H -2.1666e-5" /></clipPath><clipPath
       id="clipPath4639"
       clipPathUnits="userSpaceOnUse"><path
         style="clip-rule:evenodd"
         id="path4637"
         d="M 4.593e-6,540 H 720 V 1.2207e-4 H -1.5092e-5" /></clipPath><clipPath
       id="clipPath4649"
       clipPathUnits="userSpaceOnUse"><path
         style="clip-rule:evenodd"
         id="path4647"
         d="M -7.027e-6,540 H 720 V 0 H -2.6712e-5" /></clipPath><clipPath
       id="clipPath4659"
       clipPathUnits="userSpaceOnUse"><path
         style="clip-rule:evenodd"
         id="path4657"
         d="M -5.816e-6,540 H 720 V 1.2207e-4 H -4.5186e-5" /></clipPath><clipPath
       id="clipPath4669"
       clipPathUnits="userSpaceOnUse"><path
         style="clip-rule:evenodd"
         id="path4667"
         d="M -8.006e-6,540 H 720 V 0 L -4.7376e-5,6.1035e-5" /></clipPath><clipPath
       id="clipPath4679"
       clipPathUnits="userSpaceOnUse"><path
         style="clip-rule:evenodd"
         id="path4677"
         d="M -5.667e-6,540 H 720 V 1.2207e-4 H -4.5037e-5" /></clipPath><clipPath
       id="clipPath4689"
       clipPathUnits="userSpaceOnUse"><path
         style="clip-rule:evenodd"
         id="path4687"
         d="M 1.0729e-5,0 H 720.00001 V 540 H 1.0729e-5 Z" /></clipPath><clipPath
       id="clipPath4705"
       clipPathUnits="userSpaceOnUse"><path
         style="clip-rule:evenodd"
         id="path4703"
         d="M 1.0729e-5,0 H 720.00001 V 540 H 1.0729e-5 Z" /></clipPath><clipPath
       id="clipPath4717"
       clipPathUnits="userSpaceOnUse"><path
         style="clip-rule:evenodd"
         id="path4715"
         d="M 1.0729e-5,0 H 720.00001 V 540 H 1.0729e-5 Z" /></clipPath><clipPath
       id="clipPath4729"
       clipPathUnits="userSpaceOnUse"><path
         style="clip-rule:evenodd"
         id="path4727"
         d="M 1.0729e-5,0 H 720.00001 V 540 H 1.0729e-5 Z" /></clipPath><clipPath
       id="clipPath4741"
       clipPathUnits="userSpaceOnUse"><path
         style="clip-rule:evenodd"
         id="path4739"
         d="M 1.479e-6,540 H 720 V 1.2207e-4 H -8.364e-6" /></clipPath><clipPath
       id="clipPath4755"
       clipPathUnits="userSpaceOnUse"><path
         style="clip-rule:evenodd"
         id="path4753"
         d="M 1.0729e-5,0 H 720.00001 V 540 H 1.0729e-5 Z" /></clipPath><clipPath
       id="clipPath4767"
       clipPathUnits="userSpaceOnUse"><path
         style="clip-rule:evenodd"
         id="path4765"
         d="M 1.0729e-5,0 H 720.00001 V 540 H 1.0729e-5 Z" /></clipPath></defs><g
     transform="matrix(1.3333333,0,0,-1.3333333,-7.4128682,715.84949)"
     id="g4503"><path
       id="path4519"
       style="fill:#e6e6e6;fill-opacity:1;fill-rule:evenodd;stroke:none"
       d="m 133.79288,474.0539 h 91.44 v 47.64 h -91.44 z" /><path
       id="path4521"
       style="fill:none;stroke:#a30000;stroke-width:2.03999996;stroke-linecap:butt;stroke-linejoin:round;stroke-miterlimit:10;stroke-dasharray:none;stroke-opacity:1"
       d="m 133.79288,474.0539 h 91.44 v 47.64 h -91.44 z" /><g
       transform="translate(-52.62712,167.0339)"
       id="g4523"><g
         clip-path="url(#clipPath4529)"
         id="g4525"><text
           id="text4533"
           style="font-variant:normal;font-weight:normal;font-size:18px;font-family:Arial;-inkscape-font-specification:ArialMT;writing-mode:lr-tb;fill:#000000;fill-opacity:1;fill-rule:nonzero;stroke:none"
           transform="matrix(1,0,0,-1,203.09,324.14)"><tspan
             id="tspan4531"
             y="0"
             x="0 12.996 22.914 32.922001 42.84 47.987999">Node 0</tspan></text>
</g></g><path
       id="path4535"
       style="fill:#b3b3b3;fill-opacity:1;fill-rule:evenodd;stroke:none"
       d="m 251.39288,474.0539 h 91.32 v 47.64 h -91.32 z" /><path
       id="path4537"
       style="fill:none;stroke:#a30000;stroke-width:2.03999996;stroke-linecap:butt;stroke-linejoin:round;stroke-miterlimit:10;stroke-dasharray:none;stroke-opacity:1"
       d="m 251.39288,474.0539 h 91.32 v 47.64 h -91.32 z" /><g
       transform="translate(-52.62712,167.0339)"
       id="g4539"><g
         clip-path="url(#clipPath4545)"
         id="g4541"><text
           id="text4549"
           style="font-variant:normal;font-weight:normal;font-size:18px;font-family:Arial;-inkscape-font-specification:ArialMT;writing-mode:lr-tb;fill:#000000;fill-opacity:1;fill-rule:nonzero;stroke:none"
           transform="matrix(1,0,0,-1,320.64,324.14)"><tspan
             id="tspan4547"
             y="0"
             x="0 12.996 22.914 32.922001 42.84 47.987999">Node 1</tspan></text>
</g></g><path
       id="path4551"
       style="fill:#ffc5c5;fill-opacity:1;fill-rule:evenodd;stroke:none"
       d="m 363.23288,474.0539 h 91.32 v 47.64 h -91.32 z" /><path
       id="path4553"
       style="fill:none;stroke:#a30000;stroke-width:2.03999996;stroke-linecap:butt;stroke-linejoin:round;stroke-miterlimit:10;stroke-dasharray:none;stroke-opacity:1"
       d="m 363.23288,474.0539 h 91.32 v 47.64 h -91.32 z" /><g
       transform="translate(-52.62712,167.0339)"
       id="g4555"><g
         clip-path="url(#clipPath4561)"
         id="g4557"><text
           id="text4565"
           style="font-variant:normal;font-weight:normal;font-size:18px;font-family:Arial;-inkscape-font-specification:ArialMT;writing-mode:lr-tb;fill:#000000;fill-opacity:1;fill-rule:nonzero;stroke:none"
           transform="matrix(1,0,0,-1,432.53,324.14)"><tspan
             id="tspan4563"
             y="0"
             x="0 12.996 22.914 32.922001 42.84 47.987999">Node 2</tspan></text>
</g></g><path
       id="path4567"
       style="fill:none;stroke:#a30000;stroke-width:2.03999996;stroke-linecap:butt;stroke-linejoin:round;stroke-miterlimit:10;stroke-dasharray:none;stroke-opacity:1"
       d="m 88.552876,427.1339 h 59.880004 v 28.32 H 88.552876 Z" /><g
       transform="translate(-52.62712,167.0339)"
       id="g4569"><g
         clip-path="url(#clipPath4575)"
         id="g4571"><text
           id="text4579"
           style="font-variant:normal;font-weight:normal;font-size:15.96000004px;font-family:Arial;-inkscape-font-specification:ArialMT;writing-mode:lr-tb;fill:#000000;fill-opacity:1;fill-rule:nonzero;stroke:none"
           transform="matrix(1,0,0,-1,148.82,268.27)"><tspan
             id="tspan4577"
             y="0"
             x="0 4.4368801 17.73156 26.60532 35.47908">Image</tspan></text>
</g></g><path
       id="path4581"
       style="fill:none;stroke:#a30000;stroke-width:2.03999996;stroke-linecap:butt;stroke-linejoin:round;stroke-miterlimit:10;stroke-dasharray:none;stroke-opacity:1"
       d="m 208.31288,427.1339 h 59.76 v 28.32 h -59.76 z" /><g
       transform="translate(-52.62712,167.0339)"
       id="g4583"><g
         clip-path="url(#clipPath4589)"
         id="g4585"><text
           id="text4593"
           style="font-variant:normal;font-weight:normal;font-size:15.96000004px;font-family:Arial;-inkscape-font-specification:ArialMT;writing-mode:lr-tb;fill:#000000;fill-opacity:1;fill-rule:nonzero;stroke:none"
           transform="matrix(1,0,0,-1,268.56,268.27)"><tspan
             id="tspan4591"
             y="0"
             x="0 4.4368801 17.73156 26.60532 35.47908">Image</tspan></text>
</g></g><path
       id="path4595"
       style="fill:none;stroke:#a30000;stroke-width:2.03999996;stroke-linecap:butt;stroke-linejoin:round;stroke-miterlimit:10;stroke-dasharray:none;stroke-opacity:1"
       d="m 317.51288,427.1339 h 59.76 v 28.32 h -59.76 z" /><g
       transform="translate(-52.62712,167.0339)"
       id="g4597"><g
         clip-path="url(#clipPath4603)"
         id="g4599"><text
           id="text4607"
           style="font-variant:normal;font-weight:normal;font-size:15.96000004px;font-family:Arial;-inkscape-font-specification:ArialMT;writing-mode:lr-tb;fill:#000000;fill-opacity:1;fill-rule:nonzero;stroke:none"
           transform="matrix(1,0,0,-1,381,268.27)"><tspan
             id="tspan4605"
             y="0"
             x="0 10.64532 15.96 21.274679 30.148439">Array</tspan></text>
</g></g><path
       id="path4609"
       style="fill:none;stroke:#a30000;stroke-width:2.03999996;stroke-linecap:butt;stroke-linejoin:round;stroke-miterlimit:10;stroke-dasharray:none;stroke-opacity:1"
       d="m 404.99288,427.7339 h 59.76 v 28.44 h -59.76 z" /><g
       transform="translate(-52.62712,167.0339)"
       id="g4611"><g
         clip-path="url(#clipPath4617)"
         id="g4613"><text
           id="text4621"
           style="font-variant:normal;font-weight:normal;font-size:15.96000004px;font-family:Arial;-inkscape-font-specification:ArialMT;writing-mode:lr-tb;fill:#000000;fill-opacity:1;fill-rule:nonzero;stroke:none"
           transform="matrix(1,0,0,-1,465.26,268.9)"><tspan
             id="tspan4619"
             y="0"
             x="0 4.4368801 17.73156 26.60532 35.47908">Image</tspan></text>
</g></g><g
       transform="translate(-52.62712,167.0339)"
       id="g4623"><g
         clip-path="url(#clipPath4629)"
         id="g4625"><path
           id="path4631"
           style="fill:#de0000;fill-opacity:1;fill-rule:nonzero;stroke:none"
           d="m 170.5,288.57 v 42.39 c 0,0.28 0.22,0.5 0.5,0.5 h 14.32 v -1 H 171 l 0.5,0.5 v -42.39 z m 9.07,46.32 6.74,-3.93 -6.74,-3.93 c -0.23,-0.14 -0.54,-0.06 -0.68,0.18 -0.14,0.24 -0.06,0.54 0.18,0.68 l 6,3.5 v -0.86 l -6,3.5 c -0.24,0.14 -0.32,0.44 -0.18,0.68 0.14,0.24 0.45,0.32 0.68,0.18 z" /></g></g><g
       transform="translate(-52.62712,167.0339)"
       id="g4633"><g
         clip-path="url(#clipPath4639)"
         id="g4635"><path
           id="path4641"
           style="fill:#de0000;fill-opacity:1;fill-rule:nonzero;stroke:none"
           d="m 231.58,307.08 v -32.73 c 0,-0.27 0.22,-0.5 0.5,-0.5 h 27.84 v 1 h -27.84 l 0.5,-0.5 v 32.73 z m 22.59,-36.66 6.74,3.93 -6.74,3.93 c -0.24,0.14 -0.54,0.06 -0.68,-0.18 -0.14,-0.23 -0.06,-0.54 0.18,-0.68 l 6,-3.5 v 0.86 l -6,-3.5 c -0.24,-0.13 -0.32,-0.44 -0.18,-0.68 0.14,-0.24 0.44,-0.32 0.68,-0.18 z" /></g></g><g
       transform="translate(-52.62712,167.0339)"
       id="g4643"><g
         clip-path="url(#clipPath4649)"
         id="g4645"><path
           id="path4651"
           style="fill:#de0000;fill-opacity:1;fill-rule:nonzero;stroke:none"
           d="m 290.26,288.57 v 42.39 c 0,0.28 0.22,0.5 0.5,0.5 h 12.14 v -1 h -12.14 l 0.5,0.5 v -42.39 z m 6.89,46.32 6.74,-3.93 -6.74,-3.93 c -0.24,-0.14 -0.54,-0.06 -0.68,0.18 -0.14,0.24 -0.06,0.54 0.18,0.68 l 6,3.5 v -0.86 l -6,3.5 c -0.24,0.14 -0.32,0.44 -0.18,0.68 0.14,0.24 0.44,0.32 0.68,0.18 z" /></g></g><g
       transform="translate(-52.62712,167.0339)"
       id="g4653"><g
         clip-path="url(#clipPath4659)"
         id="g4655"><path
           id="path4661"
           style="fill:#de0000;fill-opacity:1;fill-rule:nonzero;stroke:none"
           d="m 349.06,307.08 v -32.73 c 0,-0.27 0.22,-0.5 0.5,-0.5 h 19.46 v 1 h -19.46 l 0.5,-0.5 v 32.73 z m 14.22,-36.66 6.74,3.93 -6.74,3.93 c -0.24,0.14 -0.55,0.06 -0.69,-0.18 -0.14,-0.23 -0.06,-0.54 0.18,-0.68 l 6,-3.5 v 0.86 l -6,-3.5 c -0.24,-0.13 -0.32,-0.44 -0.18,-0.68 0.14,-0.24 0.45,-0.32 0.69,-0.18 z" /></g></g><g
       transform="translate(-52.62712,167.0339)"
       id="g4663"><g
         clip-path="url(#clipPath4669)"
         id="g4665"><path
           id="path4671"
           style="fill:#de0000;fill-opacity:1;fill-rule:nonzero;stroke:none"
           d="m 399.46,288.57 v 42.39 c 0,0.28 0.22,0.5 0.5,0.5 h 14.83 v -1 h -14.83 l 0.5,0.5 v -42.39 z m 9.58,46.32 6.74,-3.93 -6.74,-3.93 c -0.24,-0.14 -0.54,-0.06 -0.68,0.18 -0.14,0.24 -0.06,0.54 0.18,0.68 l 6,3.5 v -0.86 l -6,3.5 c -0.24,0.14 -0.32,0.44 -0.18,0.68 0.14,0.24 0.44,0.32 0.68,0.18 z" /></g></g><g
       transform="translate(-52.62712,167.0339)"
       id="g4673"><g
         clip-path="url(#clipPath4679)"
         id="g4675"><path
           id="path4681"
           style="fill:#de0000;fill-opacity:1;fill-rule:nonzero;stroke:none"
           d="m 461.02,307.08 v -8.96 c 0,-0.28 0.22,-0.5 0.5,-0.5 h 25.99 l -0.5,0.5 v -7.97 h 1 v 7.97 c 0,0.28 -0.23,0.5 -0.5,0.5 h -25.99 l 0.5,-0.5 v 8.96 z m 22.55,-11.18 3.94,-6.74 3.93,6.74 c 0.14,0.23 0.06,0.54 -0.18,0.68 -0.24,0.14 -0.55,0.06 -0.69,-0.18 l -3.5,-6 h 0.87 l -3.5,6 c -0.14,0.24 -0.45,0.32 -0.69,0.18 -0.23,-0.14 -0.31,-0.45 -0.18,-0.68 z" /></g></g><g
       transform="translate(-52.62712,167.0339)"
       id="g4683"><g
         clip-path="url(#clipPath4689)"
         id="g4685"><text
           id="text4693"
           style="font-variant:normal;font-weight:normal;font-size:18px;font-family:Arial;-inkscape-font-specification:ArialMT;writing-mode:lr-tb;fill:#000000;fill-opacity:1;fill-rule:nonzero;stroke:none"
           transform="matrix(1,0,0,-1,276.1,219.38)"><tspan
             id="tspan4691"
             y="0"
             x="0 14.004 24.011999 33.966 43.973999 55.925999 67.806 72.954002 86.958 92.952003 102.96 112.914">OpenVX Graph</tspan></text>
</g></g><path
       id="path4695"
       style="fill:#ffc5c5;fill-opacity:1;fill-rule:evenodd;stroke:none"
       d="m 20.75288,474.0539 h 80.16 v 47.64 h -80.16 z" /><path
       id="path4697"
       style="fill:none;stroke:#a30000;stroke-width:2.03999996;stroke-linecap:butt;stroke-linejoin:round;stroke-miterlimit:10;stroke-dasharray:none;stroke-opacity:1"
       d="m 20.75288,474.0539 h 80.16 v 47.64 h -80.16 z" /><g
       transform="translate(-52.62712,167.0339)"
       id="g4699"><g
         clip-path="url(#clipPath4705)"
         id="g4701"><text
           id="text4709"
           style="font-variant:normal;font-weight:normal;font-size:12px;font-family:Arial;-inkscape-font-specification:ArialMT;writing-mode:lr-tb;fill:#000000;fill-opacity:1;fill-rule:nonzero;stroke:none"
           transform="matrix(1,0,0,-1,94.344,340.82)"><tspan
             id="tspan4707"
             y="0"
             x="0 8.0279999 14.736 21.444 25.440001 31.440001 38.112">Source </tspan></text>
</g></g><g
       transform="translate(-52.62712,167.0339)"
       id="g4711"><g
         clip-path="url(#clipPath4717)"
         id="g4713"><text
           id="text4721"
           style="font-variant:normal;font-weight:normal;font-size:12px;font-family:Arial;-inkscape-font-specification:ArialMT;writing-mode:lr-tb;fill:#000000;fill-opacity:1;fill-rule:nonzero;stroke:none"
           transform="matrix(1,0,0,-1,99.024,326.42)"><tspan
             id="tspan4719"
             y="0"
             x="0 8.6639996 15.336 22.068001">Node</tspan></text>
</g></g><g
       transform="translate(-52.62712,167.0339)"
       id="g4723"><g
         clip-path="url(#clipPath4729)"
         id="g4725"><text
           id="text4733"
           style="font-variant:normal;font-weight:normal;font-size:12px;font-family:Arial;-inkscape-font-specification:ArialMT;writing-mode:lr-tb;fill:#000000;fill-opacity:1;fill-rule:nonzero;stroke:none"
           transform="matrix(1,0,0,-1,89.304,312.02)"><tspan
             id="tspan4731"
             y="0"
             x="0 3.9960001 9.9960003 16.667999 26.747999 33.456001 37.452 44.124001">(camera)</tspan></text>
</g></g><g
       transform="translate(-52.62712,167.0339)"
       id="g4735"><g
         clip-path="url(#clipPath4741)"
         id="g4737"><path
           id="path4743"
           style="fill:#de0000;fill-opacity:1;fill-rule:nonzero;stroke:none"
           d="m 112.9,307.08 v -32.73 c 0,-0.27 0.22,-0.5 0.5,-0.5 h 26.79 v 1 H 113.4 l 0.5,-0.5 v 32.73 z m 21.55,-36.66 6.74,3.93 -6.74,3.93 c -0.24,0.14 -0.55,0.06 -0.69,-0.18 -0.14,-0.23 -0.06,-0.54 0.18,-0.68 l 6,-3.5 v 0.86 l -6,-3.5 c -0.24,-0.13 -0.32,-0.44 -0.18,-0.68 0.14,-0.24 0.45,-0.32 0.69,-0.18 z" /></g></g><path
       id="path4745"
       style="fill:#ffc5c5;fill-opacity:1;fill-rule:evenodd;stroke:none"
       d="m 500.03288,474.0539 h 80.16 v 47.64 h -80.16 z" /><path
       id="path4747"
       style="fill:none;stroke:#a30000;stroke-width:2.03999996;stroke-linecap:butt;stroke-linejoin:round;stroke-miterlimit:10;stroke-dasharray:none;stroke-opacity:1"
       d="m 500.03288,474.0539 h 80.16 v 47.64 h -80.16 z" /><g
       transform="translate(-52.62712,167.0339)"
       id="g4749"><g
         clip-path="url(#clipPath4755)"
         id="g4751"><text
           id="text4759"
           style="font-variant:normal;font-weight:normal;font-size:12px;font-family:Arial;-inkscape-font-specification:ArialMT;writing-mode:lr-tb;fill:#000000;fill-opacity:1;fill-rule:nonzero;stroke:none"
           transform="matrix(1,0,0,-1,565.08,333.62)"><tspan
             id="tspan4757"
             y="0"
             x="0 8.0279999 10.692 17.364 23.364 26.628 35.292 41.964001 48.695999">Sink Node</tspan></text>
</g></g><g
       transform="translate(-52.62712,167.0339)"
       id="g4761"><g
         clip-path="url(#clipPath4767)"
         id="g4763"><text
           id="text4771"
           style="font-variant:normal;font-weight:normal;font-size:12px;font-family:Arial;-inkscape-font-specification:ArialMT;writing-mode:lr-tb;fill:#000000;fill-opacity:1;fill-rule:nonzero;stroke:none"
           transform="matrix(1,0,0,-1,570.12,319.22)"><tspan
             id="tspan4769"
             y="0"
             x="0 3.9960001 10.668 13.332 19.332001 26.028 28.691999 35.363998 41.268002">(display)</tspan></text>
</g></g><path
       id="path4773"
       style="fill:#de0000;fill-opacity:1;fill-rule:nonzero;stroke:none"
       d="m 464.69288,441.5439 h 17.63 c 0.28,0 0.5,0.23 0.5,0.5 v 55.95 l -0.5,-0.5 h 16.65 v 1 h -16.65 c -0.27,0 -0.5,-0.22 -0.5,-0.5 v -55.95 l 0.5,0.5 h -17.63 z m 28.53,52.52 6.74,3.93 -6.74,3.93 c -0.24,0.14 -0.55,0.06 -0.68,-0.18 -0.14,-0.24 -0.06,-0.54 0.18,-0.68 l 6,-3.5 v 0.86 l -6,-3.5 c -0.24,-0.14 -0.32,-0.44 -0.18,-0.68 0.13,-0.24 0.44,-0.32 0.68,-0.18 z" /></g></svg>