<svg width="3517" height="1516" xmlns="http://www.w3.org/2000/svg" xmlns:xlink="http://www.w3.org/1999/xlink" xml:space="preserve" overflow="hidden"><defs><clipPath id="clip0"><rect x="442" y="467" width="3517" height="1516"/></clipPath></defs><g clip-path="url(#clip0)" transform="translate(-442 -467)"><rect x="1141.5" y="1210.5" width="497" height="297" stroke="#2F528F" stroke-width="4.58333" stroke-miterlimit="8" fill="#4472C4"/><text fill="#FFFFFF" font-family="Calibri,Calibri_MSFontService,sans-serif" font-weight="400" font-size="83" transform="matrix(1 0 0 1 1278.98 1386)">Object</text><path d="M444.5 1359C444.5 1263.73 575.233 1186.5 736.5 1186.5 897.767 1186.5 1028.5 1263.73 1028.5 1359 1028.5 1454.27 897.767 1531.5 736.5 1531.5 575.233 1531.5 444.5 1454.27 444.5 1359Z" stroke="#2F528F" stroke-width="4.58333" stroke-miterlimit="8" fill="#4472C4" fill-rule="evenodd"/><text fill="#FFFFFF" font-family="Calibri,Calibri_MSFontService,sans-serif" font-weight="400" font-size="83" transform="matrix(1 0 0 1 611.705 1386)">Node A</text><path d="M1094.5 821.5C1094.5 726.507 1225.23 649.5 1386.5 649.5 1547.77 649.5 1678.5 726.507 1678.5 821.5 1678.5 916.493 1547.77 993.5 1386.5 993.5 1225.23 993.5 1094.5 916.493 1094.5 821.5Z" stroke="#00B050" stroke-width="4.58333" stroke-miterlimit="8" fill="#00B050" fill-rule="evenodd"/><text fill="#FFFFFF" font-family="Calibri,Calibri_MSFontService,sans-serif" font-weight="400" font-size="83" transform="matrix(1 0 0 1 1263.55 849)">Node B</text><path d="M1700.5 1139.5C1700.5 1044.51 1831.23 967.5 1992.5 967.5 2153.77 967.5 2284.5 1044.51 2284.5 1139.5 2284.5 1234.49 2153.77 1311.5 1992.5 1311.5 1831.23 1311.5 1700.5 1234.49 1700.5 1139.5Z" stroke="#2F528F" stroke-width="4.58333" stroke-miterlimit="8" fill="#4472C4" fill-rule="evenodd"/><text fill="#FFFFFF" font-family="Calibri,Calibri_MSFontService,sans-serif" font-weight="400" font-size="83" transform="matrix(1 0 0 1 1847.26 1117)">Optional<tspan font-size="83" x="54.1521" y="99">Node</tspan></text><path d="M1675.5 1599.5C1675.5 1504.51 1806.46 1427.5 1968 1427.5 2129.54 1427.5 2260.5 1504.51 2260.5 1599.5 2260.5 1694.49 2129.54 1771.5 1968 1771.5 1806.46 1771.5 1675.5 1694.49 1675.5 1599.5Z" stroke="#2F528F" stroke-width="4.58333" stroke-miterlimit="8" fill="#4472C4" fill-rule="evenodd"/><text fill="#FFFFFF" font-family="Calibri,Calibri_MSFontService,sans-serif" font-weight="400" font-size="83" transform="matrix(1 0 0 1 1822.55 1577)">Optional<tspan font-size="83" x="54.1521" y="99">Node</tspan></text><path d="M1028.5 1355.06 1100.18 1355.06 1100.18 1361.94 1028.5 1361.94ZM1095.6 1335.58 1141.43 1358.5 1095.6 1381.42Z" fill="#4472C4"/><path d="M1640.89 1356.03 1733.87 1446.14 1729.09 1451.08 1636.11 1360.97ZM1744.14 1428.96 1761.1 1477.32 1712.24 1461.87Z" fill="#4472C4"/><path d="M1.89967-2.8649 114.827 72.0153 111.028 77.7451-1.89967 2.8649ZM121.772 53.248 147.306 97.6762 96.443 91.4467Z" fill="#4472C4" transform="matrix(1 0 0 -1 1638.5 1359.18)"/><path d="M1385.82 1169.41 1383.71 1034.8 1390.58 1034.69 1392.69 1169.31ZM1412.1 1164.42 1389.9 1210.6 1366.27 1165.14ZM1364.3 1039.69 1386.5 993.5 1410.13 1038.97Z" fill="#4472C4"/><path d="M570.5 993.5 595.833 993.5 595.833 993.5 633.833 993.5 722.5 993.5 722.5 1076.92 722.5 1076.92 722.5 1112.67 722.5 1136.5 633.833 1136.5 638.479 1164.47 595.833 1136.5 570.5 1136.5 570.5 1112.67 570.5 1076.92 570.5 1076.92Z" stroke="#2F528F" stroke-width="4.58333" stroke-miterlimit="8" fill="none" fill-rule="evenodd"/><text font-family="Calibri,Calibri_MSFontService,sans-serif" font-weight="400" font-size="83" transform="matrix(1 0 0 1 625.185 1092)">1</text><path d="M1200.5 471.5 1225.67 471.5 1225.67 471.5 1263.42 471.5 1351.5 471.5 1351.5 554.917 1351.5 554.917 1351.5 590.667 1351.5 614.5 1263.42 614.5 1268.03 642.47 1225.67 614.5 1200.5 614.5 1200.5 590.667 1200.5 554.917 1200.5 554.917Z" stroke="#2F528F" stroke-width="4.58333" stroke-miterlimit="8" fill="none" fill-rule="evenodd"/><text font-family="Calibri,Calibri_MSFontService,sans-serif" font-weight="400" font-size="83" transform="matrix(1 0 0 1 1254.39 570)">2</text><path d="M2103.5 784.5 2128.83 784.5 2128.83 784.5 2166.83 784.5 2255.5 784.5 2255.5 867.917 2255.5 867.917 2255.5 903.667 2255.5 927.5 2166.83 927.5 2171.48 955.469 2128.83 927.5 2103.5 927.5 2103.5 903.667 2103.5 867.917 2103.5 867.917Z" stroke="#2F528F" stroke-width="4.58333" stroke-miterlimit="8" fill="none" fill-rule="evenodd"/><text font-family="Calibri,Calibri_MSFontService,sans-serif" font-weight="400" font-size="83" transform="matrix(1 0 0 1 2158.14 883)">3</text><path d="M2103.5 1297.5 2128.83 1297.5 2128.83 1297.5 2166.83 1297.5 2255.5 1297.5 2255.5 1381.5 2255.5 1381.5 2255.5 1417.5 2255.5 1441.5 2166.83 1441.5 2171.48 1469.66 2128.83 1441.5 2103.5 1441.5 2103.5 1417.5 2103.5 1381.5 2103.5 1381.5Z" stroke="#2F528F" stroke-width="4.58333" stroke-miterlimit="8" fill="none" fill-rule="evenodd"/><text font-family="Calibri,Calibri_MSFontService,sans-serif" font-weight="400" font-size="83" transform="matrix(1 0 0 1 2158.14 1397)">3</text><path d="M1141.5 1564.5 1166.67 1564.5 1166.67 1564.5 1204.42 1564.5 1292.5 1564.5 1292.5 1647.92 1292.5 1647.92 1292.5 1683.67 1292.5 1707.5 1204.42 1707.5 1209.03 1735.47 1166.67 1707.5 1141.5 1707.5 1141.5 1683.67 1141.5 1647.92 1141.5 1647.92Z" stroke="#2F528F" stroke-width="4.58333" stroke-miterlimit="8" fill="none" fill-rule="evenodd"/><text font-family="Calibri,Calibri_MSFontService,sans-serif" font-weight="400" font-size="83" transform="matrix(1 0 0 1 1195.59 1663)">3</text><rect x="2813.5" y="1210.5" width="497" height="297" stroke="#2F528F" stroke-width="4.58333" stroke-miterlimit="8" fill="#4472C4"/><text fill="#FFFFFF" font-family="Calibri,Calibri_MSFontService,sans-serif" font-weight="400" font-size="83" transform="matrix(1 0 0 1 2951.04 1386)">Object</text><path d="M2766.5 823C2766.5 727.731 2897.23 650.5 3058.5 650.5 3219.77 650.5 3350.5 727.731 3350.5 823 3350.5 918.269 3219.77 995.5 3058.5 995.5 2897.23 995.5 2766.5 918.269 2766.5 823Z" stroke="#00B050" stroke-width="4.58333" stroke-miterlimit="8" fill="#00B050" fill-rule="evenodd"/><text fill="#FFFFFF" font-family="Calibri,Calibri_MSFontService,sans-serif" font-weight="400" font-size="83" transform="matrix(1 0 0 1 2935.6 850)">Node B</text><path d="M3372.5 1139.5C3372.5 1044.51 3503.23 967.5 3664.5 967.5 3825.77 967.5 3956.5 1044.51 3956.5 1139.5 3956.5 1234.49 3825.77 1311.5 3664.5 1311.5 3503.23 1311.5 3372.5 1234.49 3372.5 1139.5Z" stroke="#2F528F" stroke-width="4.58333" stroke-miterlimit="8" fill="#4472C4" fill-rule="evenodd"/><text fill="#FFFFFF" font-family="Calibri,Calibri_MSFontService,sans-serif" font-weight="400" font-size="83" transform="matrix(1 0 0 1 3519.31 1117)">Optional<tspan font-size="83" x="54.1521" y="99">Node</tspan></text><path d="M3347.5 1599.5C3347.5 1504.51 3478.46 1427.5 3640 1427.5 3801.54 1427.5 3932.5 1504.51 3932.5 1599.5 3932.5 1694.49 3801.54 1771.5 3640 1771.5 3478.46 1771.5 3347.5 1694.49 3347.5 1599.5Z" stroke="#2F528F" stroke-width="4.58333" stroke-miterlimit="8" fill="#4472C4" fill-rule="evenodd"/><text fill="#FFFFFF" font-family="Calibri,Calibri_MSFontService,sans-serif" font-weight="400" font-size="83" transform="matrix(1 0 0 1 3494.6 1577)">Optional<tspan font-size="83" x="54.1521" y="99">Node</tspan></text><path d="M3312.89 1356.03 3405.87 1446.14 3401.09 1451.08 3308.11 1360.97ZM3416.14 1428.96 3433.1 1477.32 3384.24 1461.87Z" fill="#4472C4"/><path d="M1.89967-2.8649 114.827 72.0153 111.028 77.7451-1.89967 2.8649ZM121.772 53.248 147.306 97.6762 96.443 91.4467Z" fill="#4472C4" transform="matrix(1 0 0 -1 3310.5 1359.18)"/><path d="M3057.82 1169.92 3055.71 1036.8 3062.59 1036.69 3064.69 1169.81ZM3084.09 1164.92 3061.9 1211.11 3038.27 1165.65ZM3036.31 1041.69 3058.5 995.5 3082.14 1040.97Z" fill="#4472C4"/><path d="M2878.5 471.5 2903.67 471.5 2903.67 471.5 2941.42 471.5 3029.5 471.5 3029.5 554.917 3029.5 554.917 3029.5 590.667 3029.5 614.5 2941.42 614.5 2946.03 642.469 2903.67 614.5 2878.5 614.5 2878.5 590.667 2878.5 554.917 2878.5 554.917Z" stroke="#2F528F" stroke-width="4.58333" stroke-miterlimit="8" fill="none" fill-rule="evenodd"/><text font-family="Calibri,Calibri_MSFontService,sans-serif" font-weight="400" font-size="83" transform="matrix(1 0 0 1 2932.58 570)">2</text><path d="M3775.5 784.5 3800.83 784.5 3800.83 784.5 3838.83 784.5 3927.5 784.5 3927.5 867.917 3927.5 867.917 3927.5 903.667 3927.5 927.5 3838.83 927.5 3843.48 955.469 3800.83 927.5 3775.5 927.5 3775.5 903.667 3775.5 867.917 3775.5 867.917Z" stroke="#2F528F" stroke-width="4.58333" stroke-miterlimit="8" fill="none" fill-rule="evenodd"/><text font-family="Calibri,Calibri_MSFontService,sans-serif" font-weight="400" font-size="83" transform="matrix(1 0 0 1 3830.2 883)">3</text><path d="M3775.5 1297.5 3800.83 1297.5 3800.83 1297.5 3838.83 1297.5 3927.5 1297.5 3927.5 1381.5 3927.5 1381.5 3927.5 1417.5 3927.5 1441.5 3838.83 1441.5 3843.48 1469.66 3800.83 1441.5 3775.5 1441.5 3775.5 1417.5 3775.5 1381.5 3775.5 1381.5Z" stroke="#2F528F" stroke-width="4.58333" stroke-miterlimit="8" fill="none" fill-rule="evenodd"/><text font-family="Calibri,Calibri_MSFontService,sans-serif" font-weight="400" font-size="83" transform="matrix(1 0 0 1 3830.2 1397)">3</text><path d="M2763.5 1564.5 2795.17 1564.5 2795.17 1564.5 2842.67 1564.5 2953.5 1564.5 2953.5 1647.92 2953.5 1647.92 2953.5 1683.67 2953.5 1707.5 2842.67 1707.5 2848.47 1735.47 2795.17 1707.5 2763.5 1707.5 2763.5 1683.67 2763.5 1647.92 2763.5 1647.92Z" stroke="#2F528F" stroke-width="4.58333" stroke-miterlimit="8" fill="none" fill-rule="evenodd"/><text font-family="Calibri,Calibri_MSFontService,sans-serif" font-weight="400" font-size="83" transform="matrix(1 0 0 1 2796.85 1663)">1, 3</text><rect x="1214.5" y="1768.5" width="498" height="199" stroke="#2F528F" stroke-width="4.58333" stroke-miterlimit="8" fill="none"/><path d="M1464.53 1768.89 1463.06 1718.49 1381.41 1506.88" stroke="#2F528F" stroke-width="4.58333" stroke-miterlimit="8" fill="none" fill-rule="evenodd"/><text font-family="Calibri,Calibri_MSFontService,sans-serif" font-weight="400" font-size="64" transform="matrix(1 0 0 1 1281.6 1850)">Output Graph <tspan font-size="64" x="43.2667" y="77">Parameter</tspan></text><rect x="2858.5" y="1768.5" width="572" height="199" stroke="#2F528F" stroke-width="4.58333" stroke-miterlimit="8" fill="none"/><path d="M3145.68 1768.89 3143.99 1718.49 3064.04 1510.77" stroke="#2F528F" stroke-width="4.58333" stroke-miterlimit="8" fill="none" fill-rule="evenodd"/><text font-family="Calibri,Calibri_MSFontService,sans-serif" font-weight="400" font-size="64" transform="matrix(1 0 0 1 2979.08 1850)">Bidirectional <tspan font-size="64" x="-61.302" y="77">Graph Parameter</tspan></text></g></svg>