<svg width="2893" height="273" xmlns="http://www.w3.org/2000/svg" xmlns:xlink="http://www.w3.org/1999/xlink" xml:space="preserve" overflow="hidden"><defs><clipPath id="clip0"><rect x="534" y="1283" width="2893" height="273"/></clipPath></defs><g clip-path="url(#clip0)" transform="translate(-534 -1283)"><rect x="1493.5" y="1302.5" width="602" height="211" stroke="#0D2E6B" stroke-width="4.58333" stroke-miterlimit="8" fill="#164293"/><text fill="#FFFFFF" font-family="Arial,Arial_MSFontService,sans-serif" font-weight="400" font-size="83" transform="matrix(1 0 0 1 1692.93 1388)">Move<tspan font-size="83" x="-40.1041" y="99">( &lt;1ms)</tspan></text><rect x="2425.5" y="1302.5" width="602" height="211" stroke="#0D2E6B" stroke-width="4.58333" stroke-miterlimit="8" fill="#164293"/><text fill="#FFFFFF" font-family="Arial,Arial_MSFontService,sans-serif" font-weight="400" font-size="83" transform="matrix(1 0 0 1 2576.82 1388)">Process <tspan font-size="83" x="-82.5" y="99">Image (8ms)</tspan></text><rect x="546.5" y="1302.5" width="602" height="211" stroke="#0D2E6B" stroke-width="4.58333" stroke-miterlimit="8" fill="#D9D9D9"/><text font-family="Arial,Arial_MSFontService,sans-serif" font-weight="400" font-size="83" transform="matrix(1 0 0 1 583.758 1388)">Acquire image<tspan font-size="83" x="135.208" y="99">(10ms)</tspan></text><path d="M1148.5 1396.04 1435.51 1396.04 1435.51 1418.96 1148.5 1418.96ZM1424.05 1373.13 1492.8 1407.5 1424.05 1441.88Z" fill="#164293"/><path d="M2095.5 1396.04 2368.06 1396.04 2368.06 1418.96 2095.5 1418.96ZM2356.6 1373.13 2425.35 1407.5 2356.6 1441.88Z" fill="#164293"/><path d="M3027.5 1396.04 3300.06 1396.04 3300.06 1418.96 3027.5 1418.96ZM3288.6 1373.13 3357.35 1407.5 3288.6 1441.88Z" fill="#164293"/></g></svg>