<svg width="3184" height="1262" xmlns="http://www.w3.org/2000/svg" xmlns:xlink="http://www.w3.org/1999/xlink" xml:space="preserve" overflow="hidden"><defs><clipPath id="clip0"><rect x="646" y="607" width="3184" height="1262"/></clipPath></defs><g clip-path="url(#clip0)" transform="translate(-646 -607)"><rect x="841.5" y="1101.5" width="498" height="297" stroke="#2F528F" stroke-width="4.58333" stroke-miterlimit="8" fill="#4472C4"/><text fill="#FFFFFF" font-family="Calibri,Calibri_MSFontService,sans-serif" font-weight="400" font-size="83" transform="matrix(1 0 0 1 921.158 1277)">YUV Input</text><path d="M1564.5 781.5C1564.5 686.507 1695.23 609.5 1856.5 609.5 2017.77 609.5 2148.5 686.507 2148.5 781.5 2148.5 876.493 2017.77 953.5 1856.5 953.5 1695.23 953.5 1564.5 876.493 1564.5 781.5Z" stroke="#2F528F" stroke-width="4.58333" stroke-miterlimit="8" fill="#4472C4" fill-rule="evenodd"/><text fill="#FFFFFF" font-family="Calibri,Calibri_MSFontService,sans-serif" font-weight="400" font-size="83" transform="matrix(1 0 0 1 1698.96 809)">Process Y</text><path d="M2291.5 1249.5C2291.5 1154.51 2422.23 1077.5 2583.5 1077.5 2744.77 1077.5 2875.5 1154.51 2875.5 1249.5 2875.5 1344.49 2744.77 1421.5 2583.5 1421.5 2422.23 1421.5 2291.5 1344.49 2291.5 1249.5Z" stroke="#2F528F" stroke-width="4.58333" stroke-miterlimit="8" fill="#4472C4" fill-rule="evenodd"/><text fill="#FFFFFF" font-family="Calibri,Calibri_MSFontService,sans-serif" font-weight="400" font-size="83" transform="matrix(1 0 0 1 2432.64 1227)">Combine <tspan font-size="83" x="-2.8645" y="99">Channels</tspan></text><path d="M2148.5 778.062 2293.46 778.063 2293.46 784.938 2148.5 784.937ZM2288.88 758.584 2334.71 781.501 2288.88 804.417Z" fill="#4472C4"/><path d="M1087.06 1101.31 1087.06 970.75 1093.94 970.75 1093.94 1101.31ZM1067.58 975.333 1090.5 929.5 1113.42 975.333Z" fill="#4472C4"/><rect x="841.5" y="633.5" width="498" height="296" stroke="#2F528F" stroke-width="4.58333" stroke-miterlimit="8" fill="#4472C4"/><text fill="#FFFFFF" font-family="Calibri,Calibri_MSFontService,sans-serif" font-weight="400" font-size="83" transform="matrix(1 0 0 1 895.662 759)">Image from <tspan font-size="83" x="32.0834" y="99">channel Y</tspan></text><rect x="1607.5" y="1101.5" width="498" height="297" stroke="#2F528F" stroke-width="4.58333" stroke-miterlimit="8" fill="#4472C4"/><text fill="#FFFFFF" font-family="Calibri,Calibri_MSFontService,sans-serif" font-weight="400" font-size="83" transform="matrix(1 0 0 1 1661.72 1227)">Image from <tspan font-size="83" x="25.7813" y="99">channel U</tspan></text><rect x="1607.5" y="1569.5" width="498" height="297" stroke="#2F528F" stroke-width="4.58333" stroke-miterlimit="8" fill="#4472C4"/><text fill="#FFFFFF" font-family="Calibri,Calibri_MSFontService,sans-serif" font-weight="400" font-size="83" transform="matrix(1 0 0 1 1661.72 1696)">Image from <tspan font-size="83" x="28.6459" y="99">channel V</tspan></text><path d="M1339.5 1246.06 1566.66 1246.06 1566.66 1252.94 1339.5 1252.94ZM1562.07 1226.58 1607.91 1249.5 1562.07 1272.42Z" fill="#4472C4"/><path d="M1092.31 1395.58 1574.46 1693.92 1570.84 1699.76 1088.69 1401.42ZM1580.81 1674.94 1607.73 1718.54 1556.7 1713.91Z" fill="#4472C4"/><rect x="2334.5" y="633.5" width="498" height="296" stroke="#2F528F" stroke-width="4.58333" stroke-miterlimit="8" fill="#4472C4"/><text fill="#FFFFFF" font-family="Calibri,Calibri_MSFontService,sans-serif" font-weight="400" font-size="83" transform="matrix(1 0 0 1 2413.16 759)">Processed <tspan font-size="83" x="67.604" y="99">image</tspan></text><rect x="3061.5" y="1103.5" width="498" height="297" stroke="#2F528F" stroke-width="4.58333" stroke-miterlimit="8" fill="#4472C4"/><text fill="#FFFFFF" font-family="Calibri,Calibri_MSFontService,sans-serif" font-weight="400" font-size="83" transform="matrix(1 0 0 1 3190.09 1229)">Output <tspan font-size="83" x="17.7605" y="99">image</tspan></text><path d="M1.65284e-05-3.4375 183.921-3.43662 183.92 3.43838-1.65284e-05 3.4375ZM179.337-22.9158 225.171 0.00108268 179.337 22.9175Z" fill="#4472C4" transform="matrix(1 0 0 -1 1339.5 781.501)"/><path d="M2586.94 929.5 2586.94 1036.23 2580.06 1036.23 2580.06 929.5ZM2606.42 1031.65 2583.5 1077.48 2560.58 1031.65Z" fill="#4472C4"/><path d="M6.66221e-06-3.4375 144.96-3.43722 144.96 3.43778-6.66221e-06 3.4375ZM140.376-22.9164 186.21 0.000360892 140.376 22.9169Z" fill="#4472C4" transform="matrix(1 0 0 -1 2105.5 1249.5)"/><path d="M2.7052-2.12092 249.006 312.032 243.595 316.274-2.7052 2.12092ZM261.507 296.406 271.752 346.615 225.438 324.685Z" fill="#4472C4" transform="matrix(1 0 0 -1 2105.5 1718.12)"/><path d="M2875.53 1246.06 3020.5 1247.54 3020.43 1254.41 2875.47 1252.94ZM3016.11 1228.02 3061.71 1251.4 3015.65 1273.85Z" fill="#4472C4"/><path d="M646.5 1246.06 799.917 1246.06 799.917 1252.94 646.5 1252.94ZM795.333 1226.58 841.167 1249.5 795.333 1272.42Z" fill="#4472C4"/><path d="M3559.5 1248.06 3742.4 1248.06 3742.4 1254.94 3559.5 1254.94ZM3737.82 1228.58 3783.65 1251.5 3737.82 1274.42Z" fill="#4472C4"/></g></svg>