<svg width="2711" height="1611" xmlns="http://www.w3.org/2000/svg" xmlns:xlink="http://www.w3.org/1999/xlink" xml:space="preserve" overflow="hidden"><defs><clipPath id="clip0"><rect x="845" y="348" width="2711" height="1611"/></clipPath></defs><g clip-path="url(#clip0)" transform="translate(-845 -348)"><rect x="2112.5" y="966.5" width="497" height="296" stroke="#2F528F" stroke-width="4.58333" stroke-miterlimit="8" fill="#4472C4"/><text fill="#FFFFFF" font-family="Calibri,Calibri_MSFontService,sans-serif" font-weight="400" font-size="83" transform="matrix(1 0 0 1 2165.59 1092)">Non<tspan font-size="83" x="140.365" y="0">-</tspan><tspan font-size="83" x="165.573" y="0">Virtual</tspan><tspan font-size="83" x="84.2188" y="99">Object</tspan></text><path d="M1211.5 794.5C1211.5 699.507 1342.23 622.5 1503.5 622.5 1664.77 622.5 1795.5 699.507 1795.5 794.5 1795.5 889.493 1664.77 966.5 1503.5 966.5 1342.23 966.5 1211.5 889.493 1211.5 794.5Z" stroke="#2F528F" stroke-width="4.58333" stroke-miterlimit="8" fill="#4472C4" fill-rule="evenodd"/><text fill="#FFFFFF" font-family="Calibri,Calibri_MSFontService,sans-serif" font-weight="400" font-size="83" transform="matrix(1 0 0 1 1357.79 772)">Optional<tspan font-size="83" x="54.1521" y="99">Node</tspan></text><path d="M1211.5 1434.5C1211.5 1339.51 1342.23 1262.5 1503.5 1262.5 1664.77 1262.5 1795.5 1339.51 1795.5 1434.5 1795.5 1529.49 1664.77 1606.5 1503.5 1606.5 1342.23 1606.5 1211.5 1529.49 1211.5 1434.5Z" stroke="#A6A6A6" stroke-width="4.58333" stroke-miterlimit="8" fill="#A6A6A6" fill-rule="evenodd"/><path d="M2068.5 522.5C2068.5 427.507 2199.23 350.5 2360.5 350.5 2521.77 350.5 2652.5 427.507 2652.5 522.5 2652.5 617.493 2521.77 694.5 2360.5 694.5 2199.23 694.5 2068.5 617.493 2068.5 522.5Z" stroke="#00B050" stroke-width="4.58333" stroke-miterlimit="8" fill="#00B050" fill-rule="evenodd"/><text fill="#FFFFFF" font-family="Calibri,Calibri_MSFontService,sans-serif" font-weight="400" font-size="83" transform="matrix(1 0 0 1 2269.58 550)">Node</text><path d="M2068.5 1704.5C2068.5 1609.51 2199.23 1532.5 2360.5 1532.5 2521.77 1532.5 2652.5 1609.51 2652.5 1704.5 2652.5 1799.49 2521.77 1876.5 2360.5 1876.5 2199.23 1876.5 2068.5 1799.49 2068.5 1704.5Z" stroke="#A6A6A6" stroke-width="4.58333" stroke-miterlimit="8" fill="#A6A6A6" fill-rule="evenodd"/><path d="M2969.5 794.5C2969.5 699.507 3100.23 622.5 3261.5 622.5 3422.77 622.5 3553.5 699.507 3553.5 794.5 3553.5 889.493 3422.77 966.5 3261.5 966.5 3100.23 966.5 2969.5 889.493 2969.5 794.5Z" stroke="#2F528F" stroke-width="4.58333" stroke-miterlimit="8" fill="#4472C4" fill-rule="evenodd"/><text fill="#FFFFFF" font-family="Calibri,Calibri_MSFontService,sans-serif" font-weight="400" font-size="83" transform="matrix(1 0 0 1 3116.32 772)">Optional<tspan font-size="83" x="54.1521" y="99">Node</tspan></text><path d="M2969.5 1434.5C2969.5 1339.51 3100.23 1262.5 3261.5 1262.5 3422.77 1262.5 3553.5 1339.51 3553.5 1434.5 3553.5 1529.49 3422.77 1606.5 3261.5 1606.5 3100.23 1606.5 2969.5 1529.49 2969.5 1434.5Z" stroke="#2F528F" stroke-width="4.58333" stroke-miterlimit="8" fill="#4472C4" fill-rule="evenodd"/><text fill="#FFFFFF" font-family="Calibri,Calibri_MSFontService,sans-serif" font-weight="400" font-size="83" transform="matrix(1 0 0 1 3116.32 1412)">Optional<tspan font-size="83" x="54.1521" y="99">Node</tspan></text><path d="M1711.02 912.418 2076.34 1092.79 2073.3 1098.95 1707.98 918.582ZM2080.85 1073.29 2111.81 1114.13 2060.56 1114.39Z" fill="#4472C4"/><path d="M2610.9 1111.36 3018.76 1293.19 3015.97 1299.47 2608.1 1117.64ZM3022.51 1273.54 3055.04 1313.13 3003.85 1315.4Z" fill="#4472C4"/><path d="M1.3997-3.13962 409.265 178.694 406.466 184.974-1.3997 3.13962ZM413.01 159.037 445.541 198.63 394.348 200.899Z" fill="#4472C4" transform="matrix(1 0 0 -1 2609.5 1114.13)"/><path d="M1.52181-3.08229 366.84 177.286 363.796 183.451-1.52181 3.08229ZM371.354 157.791 402.306 198.63 351.063 198.888Z" fill="#4472C4" transform="matrix(1 0 0 -1 1709.5 1313.13)"/><path d="M3.43756 41.25 3.43781 228.456-3.43719 228.456-3.43744 41.25ZM-22.9166 45.8334 0 0 22.9167 45.8333ZM22.917 223.873 0.000360892 269.706-22.9164 223.873Z" fill="#4472C4" transform="matrix(1 0 0 -1 2360.5 1532.21)"/><path d="M3.43756 41.25 3.43781 228.456-3.43719 228.456-3.43744 41.25ZM-22.9166 45.8334 0 0 22.9167 45.8333ZM22.917 223.873 0.000360892 269.706-22.9164 223.873Z" fill="#4472C4" transform="matrix(1 0 0 -1 2360.5 1532.21)"/><path d="M2357.06 924.624 2357.06 735.75 2363.94 735.75 2363.94 924.624ZM2383.42 920.041 2360.5 965.874 2337.58 920.041ZM2337.58 740.333 2360.5 694.5 2383.42 740.333Z" fill="#4472C4"/><path d="M1308.48 1227.67 1322.53 1215.79 1500.5 1426.25 1678.47 1215.79 1692.52 1227.67 1512.55 1440.5 1692.52 1653.33 1678.47 1665.21 1500.5 1454.75 1322.53 1665.21 1308.48 1653.33 1488.45 1440.5Z" stroke="#FF0000" stroke-width="4.58333" stroke-miterlimit="8" fill="#FF0000" fill-rule="evenodd"/><rect x="847.5" y="1033.5" width="337" height="198" stroke="#2F528F" stroke-width="4.58333" stroke-miterlimit="8" fill="none"/><path d="M1018 1232.19 1018.6 1324.54 1214.71 1397.6" stroke="#2F528F" stroke-width="4.58333" stroke-miterlimit="8" fill="none" fill-rule="evenodd"/><text font-family="Calibri,Calibri_MSFontService,sans-serif" font-weight="400" font-size="64" transform="matrix(1 0 0 1 889.248 1115)">At most 1 <tspan font-size="64" x="46.4063" y="77">writer</tspan></text><rect x="1643.5" y="1743.5" width="320" height="199" stroke="#2F528F" stroke-width="4.58333" stroke-miterlimit="8" fill="none"/><path d="M1804.16 1743.89 1833.91 1668.19 2072.9 1669.67" stroke="#2F528F" stroke-width="4.58333" stroke-miterlimit="8" fill="none" fill-rule="evenodd"/><text font-family="Calibri,Calibri_MSFontService,sans-serif" font-weight="400" font-size="64" transform="matrix(1 0 0 1 1676.77 1826)">At most 1 <tspan font-size="64" x="14.8959" y="77">modifier</tspan></text><path d="M2169.24 1491.66 2183.29 1479.8 2361 1690.26 2538.71 1479.8 2552.76 1491.66 2373.03 1704.5 2552.76 1917.34 2538.71 1929.2 2361 1718.74 2183.29 1929.2 2169.24 1917.34 2348.97 1704.5Z" stroke="#FF0000" stroke-width="4.58333" stroke-miterlimit="8" fill="#FF0000" fill-rule="evenodd"/></g></svg>