<svg id="OpenVX" xmlns="http://www.w3.org/2000/svg" viewBox="0 0 1232.75 308.42"><defs><style>.cls-1{isolation:isolate;}.cls-2{fill:#c70506;}</style></defs><title>OpenVX_RGB_May16</title><g id="TM" class="cls-1"><path class="cls-2" d="M1290.59,346.19h-7.35v19.11h-6.42V346.19h-7.35v-5.52h21.11v5.52h0Z" transform="translate(-88.16 -103.57)"/><path class="cls-2" d="M1293.45,340.67h9.45l4.24,16.42h0.07l4.24-16.42h9.45v24.63h-6v-18.7h-0.07l-5.18,18.7h-4.9l-5.18-18.7h-0.07v18.7h-6V340.67h0Z" transform="translate(-88.16 -103.57)"/></g><path class="cls-2" d="M294,338.8c-69.74-2.55-164.89-35.46-184.63-83-17.07-43.24-.13-93.6,80.37-129.3,47.75-20.58,120-26.38,175.63-21.11,79,7.48,154.2,49.73,154.3,49.85v59.19l-0.06,4A371.62,371.62,0,0,0,464.51,177c-28.79-17.4-55.21-29.69-107.57-34.69-12.25-1.17-33.12-4-66.91.85-13.66,2-32.89,3.46-76.2,23.12-14.09,6.9-27,14.33-37,22.92-5.25,4.5-12.31,10.84-17.37,16.18-12.35,16-18.9,28-15.77,49.8,3.62,16.38,10.67,26.69,31,42.36,8.81,6.79,9.84,6.75,13.74,8.84,36.41,19.45,65.5,26.63,107.07,32" transform="translate(-88.16 -103.57)"/><path class="cls-2" d="M297.72,150.54c69.89-.28,169,28.67,194.81,75.28C515.11,268.24,504.68,319.17,429,358c-45,22.45-116.3,31.2-172.46,28.19C176.79,382,96.33,342.91,96.22,342.79l-7.61-59-0.45-4s27.36,21.89,60.25,39.06c31,16.19,58.89,27.36,111.75,30.22,12.36,0.67,33.55,2.64,66.62-3.57,13.37-2.51,32.37-4.79,73-26.15C413,311.88,424.87,304,433.76,295A217,217,0,0,0,449,278.14c10.26-16.47,15.26-28.72,9.33-50.32-5.71-16.19-14.07-26.18-36.33-41-9.66-6.42-10.68-6.34-14.84-8.26-38.81-17.92-68.75-23.89-110.9-27.58" transform="translate(-88.16 -103.57)"/><path class="cls-2" d="M538.35,233.42v17.51h0.42a31.78,31.78,0,0,1,16.48-15.64A61.55,61.55,0,0,1,580,230.41q15,0,26.1,5.5a53.23,53.23,0,0,1,18.48,14.87,66,66,0,0,1,11.12,21.6,88.76,88.76,0,0,1,3.74,26,91.34,91.34,0,0,1-3.62,26,61,61,0,0,1-11,21.35,51.62,51.62,0,0,1-18.49,14.37q-11.11,5.24-25.84,5.24a64.26,64.26,0,0,1-10.61-1,59.24,59.24,0,0,1-11.61-3.25,45.19,45.19,0,0,1-10.87-6.13,34,34,0,0,1-8.61-9.62h-0.42V412H516.93V233.42h21.42Zm76,45.93A47.61,47.61,0,0,0,607.13,264a35.39,35.39,0,0,0-12.46-10.74,37.81,37.81,0,0,0-17.81-4q-10.72,0-18.19,4.24a36.35,36.35,0,0,0-12.21,11.11,46.34,46.34,0,0,0-6.85,15.61,75.8,75.8,0,0,0,.12,36.08,45.58,45.58,0,0,0,7.1,15.6,36.07,36.07,0,0,0,12.57,10.86q7.74,4.14,18.7,4.13t18.31-4.23a34.2,34.2,0,0,0,11.83-11.25,49,49,0,0,0,6.48-16,85.59,85.59,0,0,0,2-18.48,66.3,66.3,0,0,0-2.37-17.61" transform="translate(-88.16 -103.57)"/><path class="cls-2" d="M748.62,354.33q-14.51,11-36.53,11-15.51,0-26.91-5a53.15,53.15,0,0,1-19.15-14,59.27,59.27,0,0,1-11.64-21.49A103.66,103.66,0,0,1,650,297.62a77.31,77.31,0,0,1,4.51-27,64.55,64.55,0,0,1,12.64-21.24,57.51,57.51,0,0,1,19.29-14,59,59,0,0,1,24.42-5q17.29,0,28.67,7.14a56.59,56.59,0,0,1,18.29,18.15,71.71,71.71,0,0,1,9.52,24,102.65,102.65,0,0,1,2.13,24.78H672.72a51.28,51.28,0,0,0,2,16.08A36.4,36.4,0,0,0,682,334.05a35.63,35.63,0,0,0,12.74,9.35,44,44,0,0,0,18.22,3.49q13.49,0,22.1-6.24t11.36-19h21q-4.27,21.71-18.77,32.7m-5.19-82.89a36.37,36.37,0,0,0-7.73-11.59,36.93,36.93,0,0,0-11.47-7.72,36.22,36.22,0,0,0-14.59-2.87,36.86,36.86,0,0,0-14.85,2.87A34.32,34.32,0,0,0,683.44,260,37.72,37.72,0,0,0,676,271.57a44.08,44.08,0,0,0-3.25,14.09h74.09a43.75,43.75,0,0,0-3.38-14.22" transform="translate(-88.16 -103.57)"/><path class="cls-2" d="M803.82,235.51V256h0.4q13.31-23.49,42.21-23.51,12.81,0,21.36,3.52a35.08,35.08,0,0,1,13.82,9.75A36.08,36.08,0,0,1,889,260.65a79.91,79.91,0,0,1,2.14,19.14v85H869.74V277.34q0-12-7-19t-19.29-7a43.58,43.58,0,0,0-16.92,3,31.74,31.74,0,0,0-11.9,8.5,36.55,36.55,0,0,0-7.14,12.87,52,52,0,0,0-2.38,16.13v73H783.66V235.51h20.16Z" transform="translate(-88.16 -103.57)"/><path class="cls-2" d="M1002.58,365.41H952.19l-66-203.26h46.12l45.27,142.91h0.57l45.83-142.91H1070Z" transform="translate(-88.16 -103.57)"/><path class="cls-2" d="M1130.11,258.94l-65.48-96.79h51.81l39.85,64.91,41.28-64.91h49l-65.19,97.08,70.88,106.18H1199l-44.41-70.31-45.26,70.31h-50.39Z" transform="translate(-88.16 -103.57)"/></svg>