<?xml version="1.0" encoding="UTF-8" standalone="no"?>
<!DOCTYPE svg PUBLIC "-//W3C//DTD SVG 1.1//EN"
 "http://www.w3.org/Graphics/SVG/1.1/DTD/svg11.dtd">
<!-- Generated by graphviz version 2.38.0 (20140413.2041)
 -->
<!-- Title: overview Pages: 1 -->
<svg width="132pt" height="144pt"
 viewBox="0.00 0.00 131.55 144.00" xmlns="http://www.w3.org/2000/svg" xmlns:xlink="http://www.w3.org/1999/xlink">
<g id="graph0" class="graph" transform="scale(0.541353 0.541353) rotate(0) translate(4 262)">
<title>overview</title>
<polygon fill="white" stroke="none" points="-4,4 -4,-262 239,-262 239,4 -4,4"/>
<!-- CV_APP -->
<g id="node1" class="node"><title>CV_APP</title>
<polygon fill="none" stroke="black" points="235,-258 122,-258 122,-220 235,-220 235,-258"/>
<text text-anchor="middle" x="178.5" y="-242.8" font-family="Times,serif" font-size="14.00">Computer Vision</text>
<text text-anchor="middle" x="178.5" y="-227.8" font-family="Times,serif" font-size="14.00">Applications</text>
</g>
<!-- CV_FW -->
<g id="node2" class="node"><title>CV_FW</title>
<polygon fill="none" stroke="black" points="121,-184 7.10543e-15,-184 7.10543e-15,-146 121,-146 121,-184"/>
<text text-anchor="middle" x="60.5" y="-168.8" font-family="Times,serif" font-size="14.00">High&#45;Level</text>
<text text-anchor="middle" x="60.5" y="-153.8" font-family="Times,serif" font-size="14.00">Vision Framework</text>
</g>
<!-- CV_APP&#45;&gt;CV_FW -->
<g id="edge1" class="edge"><title>CV_APP&#45;&gt;CV_FW</title>
<path fill="none" stroke="black" d="M148.724,-219.831C133.631,-210.622 115.124,-199.33 98.9657,-189.471"/>
<polygon fill="black" stroke="black" points="100.626,-186.384 90.2669,-184.163 96.9802,-192.359 100.626,-186.384"/>
</g>
<!-- ISV_VE -->
<g id="node3" class="node"><title>ISV_VE</title>
<polygon fill="none" stroke="black" points="217.5,-184 139.5,-184 139.5,-146 217.5,-146 217.5,-184"/>
<text text-anchor="middle" x="178.5" y="-168.8" font-family="Times,serif" font-size="14.00">ISV Vision</text>
<text text-anchor="middle" x="178.5" y="-153.8" font-family="Times,serif" font-size="14.00">Engines</text>
</g>
<!-- CV_APP&#45;&gt;ISV_VE -->
<g id="edge5" class="edge"><title>CV_APP&#45;&gt;ISV_VE</title>
<path fill="none" stroke="black" d="M178.5,-219.831C178.5,-212.131 178.5,-202.974 178.5,-194.417"/>
<polygon fill="black" stroke="black" points="182,-194.413 178.5,-184.413 175,-194.413 182,-194.413"/>
</g>
<!-- OPENVX -->
<g id="node4" class="node"><title>OPENVX</title>
<g id="a_node4">
<polygon fill="none" stroke="black" points="211.5,-110 145.5,-110 145.5,-74 211.5,-74 211.5,-110"/>
<text text-anchor="middle" x="178.5" y="-88.3" font-family="Times,serif" font-size="14.00">OpenVX</text>
</g>
</g>
<!-- CV_APP&#45;&gt;OPENVX -->
<g id="edge4" class="edge"><title>CV_APP&#45;&gt;OPENVX</title>
<path fill="none" stroke="black" d="M200.721,-219.903C210.631,-210.389 221.24,-197.835 226.5,-184 232.502,-168.214 232.575,-161.758 226.5,-146 222.397,-135.358 215.057,-125.528 207.331,-117.298"/>
<polygon fill="black" stroke="black" points="209.767,-114.785 200.21,-110.213 204.83,-119.747 209.767,-114.785"/>
</g>
<!-- CV_FW&#45;&gt;OPENVX -->
<g id="edge2" class="edge"><title>CV_FW&#45;&gt;OPENVX</title>
<path fill="none" stroke="black" d="M90.5817,-145.9C106.022,-136.61 124.973,-125.207 141.322,-115.37"/>
<polygon fill="black" stroke="black" points="143.334,-118.244 150.098,-110.09 139.725,-112.246 143.334,-118.244"/>
</g>
<!-- ISV_VE&#45;&gt;OPENVX -->
<g id="edge6" class="edge"><title>ISV_VE&#45;&gt;OPENVX</title>
<path fill="none" stroke="black" d="M178.5,-145.716C178.5,-137.973 178.5,-128.789 178.5,-120.274"/>
<polygon fill="black" stroke="black" points="182,-120.003 178.5,-110.003 175,-120.003 182,-120.003"/>
</g>
<!-- HW_ACCEL -->
<g id="node5" class="node"><title>HW_ACCEL</title>
<polygon fill="none" stroke="black" points="214,-38 143,-38 143,-0 214,-0 214,-38"/>
<text text-anchor="middle" x="178.5" y="-22.8" font-family="Times,serif" font-size="14.00">Vendor</text>
<text text-anchor="middle" x="178.5" y="-7.8" font-family="Times,serif" font-size="14.00">Hardware</text>
</g>
<!-- OPENVX&#45;&gt;HW_ACCEL -->
<g id="edge3" class="edge"><title>OPENVX&#45;&gt;HW_ACCEL</title>
<path fill="none" stroke="black" d="M178.5,-73.8129C178.5,-66.1101 178.5,-56.8234 178.5,-48.149"/>
<polygon fill="black" stroke="black" points="182,-48.0195 178.5,-38.0196 175,-48.0196 182,-48.0195"/>
</g>
</g>
</svg>
