<?xml version="1.0" encoding="UTF-8" standalone="no"?>
<!DOCTYPE svg PUBLIC "-//W3C//DTD SVG 1.1//EN"
 "http://www.w3.org/Graphics/SVG/1.1/DTD/svg11.dtd">
<!-- Generated by graphviz version 2.38.0 (20140413.2041)
 -->
<!-- Title: phases Pages: 1 -->
<svg width="144pt" height="131pt"
 viewBox="0.00 0.00 144.00 130.66" xmlns="http://www.w3.org/2000/svg" xmlns:xlink="http://www.w3.org/1999/xlink">
<g id="graph0" class="graph" transform="scale(0.47168 0.47168) rotate(0) translate(4 273)">
<title>phases</title>
<polygon fill="white" stroke="none" points="-4,4 -4,-273 301.292,-273 301.292,4 -4,4"/>
<!-- A -->
<g id="node1" class="node"><title>A</title>
<g id="a_node1">
<ellipse fill="none" stroke="black" cx="89.2918" cy="-251" rx="83.6854" ry="18"/>
<text text-anchor="middle" x="89.2918" y="-247.3" font-family="Times,serif" font-size="14.00">Graph Construction</text>
</g>
</g>
<!-- B -->
<g id="node2" class="node"><title>B</title>
<g id="a_node2">
<ellipse fill="none" stroke="black" cx="89.2918" cy="-178" rx="79.8859" ry="18"/>
<text text-anchor="middle" x="89.2918" y="-174.3" font-family="Times,serif" font-size="14.00">Graph Verification</text>
</g>
</g>
<!-- A&#45;&gt;B -->
<g id="edge1" class="edge"><title>A&#45;&gt;B</title>
<path fill="none" stroke="black" d="M89.2918,-232.813C89.2918,-224.789 89.2918,-215.047 89.2918,-206.069"/>
<polygon fill="black" stroke="black" points="92.7919,-206.029 89.2918,-196.029 85.7919,-206.029 92.7919,-206.029"/>
</g>
<!-- C -->
<g id="node3" class="node"><title>C</title>
<g id="a_node3">
<ellipse fill="none" stroke="black" cx="92.2918" cy="-91" rx="72.5877" ry="18"/>
<text text-anchor="middle" x="92.2918" y="-87.3" font-family="Times,serif" font-size="14.00">Graph Execution</text>
</g>
</g>
<!-- B&#45;&gt;C -->
<g id="edge2" class="edge"><title>B&#45;&gt;C</title>
<path fill="none" stroke="black" d="M89.8989,-159.799C90.3096,-148.163 90.8607,-132.548 91.3305,-119.237"/>
<polygon fill="black" stroke="black" points="94.8306,-119.293 91.6856,-109.175 87.835,-119.046 94.8306,-119.293"/>
</g>
<!-- C&#45;&gt;B -->
<g id="edge5" class="edge"><title>C:e&#45;&gt;B:e</title>
<g id="a_edge5">
<path fill="none" stroke="black" d="M166.292,-91C201.37,-91 207.944,-162.452 180.059,-175.849"/>
<polygon fill="black" stroke="black" points="179.305,-172.431 170.292,-178 180.811,-179.268 179.305,-172.431"/>
</g>
<g id="a_edge5&#45;label">
<text text-anchor="middle" x="247.292" y="-130.8" font-family="Times,serif" font-size="14.00">reference changes</text>
</g>
</g>
<!-- C&#45;&gt;C -->
<g id="edge4" class="edge"><title>C:e&#45;&gt;C:e</title>
<g id="a_edge4">
<path fill="none" stroke="black" d="M165.292,-91C171.085,-100 183.085,-100 183.085,-91 183.085,-85.375 178.398,-83.2656 173.468,-84.6719"/>
<polygon fill="black" stroke="black" points="171.058,-82.1114 165.292,-91 175.342,-87.647 171.058,-82.1114"/>
</g>
<g id="a_edge4&#45;label">
<text text-anchor="middle" x="217.585" y="-87.3" font-family="Times,serif" font-size="14.00">data updates</text>
</g>
</g>
<!-- D -->
<g id="node4" class="node"><title>D</title>
<g id="a_node4">
<ellipse fill="none" stroke="black" cx="92.2918" cy="-18" rx="92.0841" ry="18"/>
<text text-anchor="middle" x="92.2918" y="-14.3" font-family="Times,serif" font-size="14.00">Graph Deconstruction</text>
</g>
</g>
<!-- C&#45;&gt;D -->
<g id="edge3" class="edge"><title>C&#45;&gt;D</title>
<path fill="none" stroke="black" d="M92.2918,-72.8129C92.2918,-64.7895 92.2918,-55.0475 92.2918,-46.0691"/>
<polygon fill="black" stroke="black" points="95.7919,-46.0288 92.2918,-36.0288 88.7919,-46.0289 95.7919,-46.0288"/>
</g>
</g>
</svg>
