<?xml version="1.0" encoding="UTF-8" standalone="no"?>
<!DOCTYPE svg PUBLIC "-//W3C//DTD SVG 1.1//EN"
 "http://www.w3.org/Graphics/SVG/1.1/DTD/svg11.dtd">
<!-- Generated by graphviz version 2.38.0 (20140413.2041)
 -->
<!-- Title: simple_parallel Pages: 1 -->
<svg width="101pt" height="216pt"
 viewBox="0.00 0.00 101.37 216.00" xmlns="http://www.w3.org/2000/svg" xmlns:xlink="http://www.w3.org/1999/xlink">
<g id="graph0" class="graph" transform="scale(0.333467 0.333467) rotate(0) translate(4 643.74)">
<title>simple_parallel</title>
<polygon fill="white" stroke="none" points="-4,4 -4,-643.74 300,-643.74 300,4 -4,4"/>
<!-- N0 -->
<g id="node1" class="node"><title>N0</title>
<g id="a_node1">
<ellipse fill="lightblue" stroke="black" cx="148.5" cy="-538.87" rx="41.0244" ry="26.7407"/>
<text text-anchor="middle" x="148.5" y="-542.67" font-family="Times,serif" font-size="14.00">Luma</text>
<text text-anchor="middle" x="148.5" y="-527.67" font-family="Times,serif" font-size="14.00">Extract</text>
</g>
</g>
<!-- V0 -->
<g id="node9" class="node"><title>V0</title>
<polygon fill="lightgrey" stroke="black" points="176.5,-476 120.5,-476 120.5,-438 176.5,-438 176.5,-476"/>
<text text-anchor="middle" x="148.5" y="-460.8" font-family="Times,serif" font-size="14.00">Virtual</text>
<text text-anchor="middle" x="148.5" y="-445.8" font-family="Times,serif" font-size="14.00">Image</text>
</g>
<!-- N0&#45;&gt;V0 -->
<g id="edge2" class="edge"><title>N0&#45;&gt;V0</title>
<path fill="none" stroke="black" d="M148.5,-511.718C148.5,-503.529 148.5,-494.458 148.5,-486.138"/>
<polygon fill="black" stroke="black" points="152,-486.124 148.5,-476.124 145,-486.124 152,-486.124"/>
</g>
<!-- N1 -->
<g id="node2" class="node"><title>N1</title>
<g id="a_node2">
<ellipse fill="lightblue" stroke="black" cx="148.5" cy="-384" rx="27" ry="18"/>
<text text-anchor="middle" x="148.5" y="-380.3" font-family="Times,serif" font-size="14.00">Blur</text>
</g>
</g>
<!-- V1 -->
<g id="node10" class="node"><title>V1</title>
<polygon fill="lightgrey" stroke="black" points="176.5,-330 120.5,-330 120.5,-292 176.5,-292 176.5,-330"/>
<text text-anchor="middle" x="148.5" y="-314.8" font-family="Times,serif" font-size="14.00">Virtual</text>
<text text-anchor="middle" x="148.5" y="-299.8" font-family="Times,serif" font-size="14.00">Image</text>
</g>
<!-- N1&#45;&gt;V1 -->
<g id="edge4" class="edge"><title>N1&#45;&gt;V1</title>
<path fill="none" stroke="black" d="M148.5,-365.813C148.5,-358.11 148.5,-348.823 148.5,-340.149"/>
<polygon fill="black" stroke="black" points="152,-340.02 148.5,-330.02 145,-340.02 152,-340.02"/>
</g>
<!-- N2 -->
<g id="node3" class="node"><title>N2</title>
<g id="a_node3">
<ellipse fill="lightblue" stroke="black" cx="148.5" cy="-238" rx="46.5926" ry="18"/>
<text text-anchor="middle" x="148.5" y="-234.3" font-family="Times,serif" font-size="14.00">Gradients</text>
</g>
</g>
<!-- V2 -->
<g id="node11" class="node"><title>V2</title>
<polygon fill="lightgrey" stroke="black" points="139.5,-184 83.5,-184 83.5,-146 139.5,-146 139.5,-184"/>
<text text-anchor="middle" x="111.5" y="-168.8" font-family="Times,serif" font-size="14.00">Virtual</text>
<text text-anchor="middle" x="111.5" y="-153.8" font-family="Times,serif" font-size="14.00">Image</text>
</g>
<!-- N2&#45;&gt;V2 -->
<g id="edge6" class="edge"><title>N2&#45;&gt;V2</title>
<path fill="none" stroke="black" d="M139.732,-220.174C135.544,-212.139 130.427,-202.32 125.706,-193.259"/>
<polygon fill="black" stroke="black" points="128.709,-191.448 120.983,-184.198 122.501,-194.683 128.709,-191.448"/>
</g>
<!-- V3 -->
<g id="node12" class="node"><title>V3</title>
<polygon fill="lightgrey" stroke="black" points="213.5,-184 157.5,-184 157.5,-146 213.5,-146 213.5,-184"/>
<text text-anchor="middle" x="185.5" y="-168.8" font-family="Times,serif" font-size="14.00">Virtual</text>
<text text-anchor="middle" x="185.5" y="-153.8" font-family="Times,serif" font-size="14.00">Image</text>
</g>
<!-- N2&#45;&gt;V3 -->
<g id="edge7" class="edge"><title>N2&#45;&gt;V3</title>
<path fill="none" stroke="black" d="M157.268,-220.174C161.456,-212.139 166.573,-202.32 171.294,-193.259"/>
<polygon fill="black" stroke="black" points="174.499,-194.683 176.017,-184.198 168.291,-191.448 174.499,-194.683"/>
</g>
<!-- N3 -->
<g id="node4" class="node"><title>N3</title>
<g id="a_node4">
<ellipse fill="lightblue" stroke="black" cx="99.5" cy="-92" rx="49.2915" ry="18"/>
<text text-anchor="middle" x="99.5" y="-88.3" font-family="Times,serif" font-size="14.00">Magnitude</text>
</g>
</g>
<!-- I1 -->
<g id="node7" class="node"><title>I1</title>
<polygon fill="lightgrey" stroke="black" points="141,-38 0,-38 0,-0 141,-0 141,-38"/>
<text text-anchor="middle" x="70.5" y="-22.8" font-family="Times,serif" font-size="14.00">VX_DF_IMAGE_S16</text>
<text text-anchor="middle" x="70.5" y="-7.8" font-family="Times,serif" font-size="14.00">Image</text>
</g>
<!-- N3&#45;&gt;I1 -->
<g id="edge9" class="edge"><title>N3&#45;&gt;I1</title>
<path fill="none" stroke="black" d="M92.6274,-74.174C89.3801,-66.2237 85.4193,-56.5267 81.751,-47.5456"/>
<polygon fill="black" stroke="black" points="84.9544,-46.1319 77.9329,-38.1978 78.4741,-48.7788 84.9544,-46.1319"/>
</g>
<!-- N4 -->
<g id="node5" class="node"><title>N4</title>
<g id="a_node5">
<ellipse fill="lightblue" stroke="black" cx="198.5" cy="-92" rx="31.6951" ry="18"/>
<text text-anchor="middle" x="198.5" y="-88.3" font-family="Times,serif" font-size="14.00">Phase</text>
</g>
</g>
<!-- I2 -->
<g id="node8" class="node"><title>I2</title>
<polygon fill="lightgrey" stroke="black" points="296,-38 159,-38 159,-0 296,-0 296,-38"/>
<text text-anchor="middle" x="227.5" y="-22.8" font-family="Times,serif" font-size="14.00">VX_DF_IMAGE_U8</text>
<text text-anchor="middle" x="227.5" y="-7.8" font-family="Times,serif" font-size="14.00">Image</text>
</g>
<!-- N4&#45;&gt;I2 -->
<g id="edge12" class="edge"><title>N4&#45;&gt;I2</title>
<path fill="none" stroke="black" d="M205.373,-74.174C208.62,-66.2237 212.581,-56.5267 216.249,-47.5456"/>
<polygon fill="black" stroke="black" points="219.526,-48.7788 220.067,-38.1978 213.046,-46.1319 219.526,-48.7788"/>
</g>
<!-- I0 -->
<g id="node6" class="node"><title>I0</title>
<polygon fill="lightgrey" stroke="black" points="175.5,-639.74 121.5,-639.74 121.5,-601.74 175.5,-601.74 175.5,-639.74"/>
<text text-anchor="middle" x="148.5" y="-624.54" font-family="Times,serif" font-size="14.00">UYVY</text>
<text text-anchor="middle" x="148.5" y="-609.54" font-family="Times,serif" font-size="14.00">Image</text>
</g>
<!-- I0&#45;&gt;N0 -->
<g id="edge1" class="edge"><title>I0&#45;&gt;N0</title>
<path fill="none" stroke="black" d="M148.5,-601.616C148.5,-594.008 148.5,-584.875 148.5,-575.997"/>
<polygon fill="black" stroke="black" points="152,-575.796 148.5,-565.796 145,-575.796 152,-575.796"/>
</g>
<!-- V0&#45;&gt;N1 -->
<g id="edge3" class="edge"><title>V0&#45;&gt;N1</title>
<path fill="none" stroke="black" d="M148.5,-437.716C148.5,-429.973 148.5,-420.789 148.5,-412.274"/>
<polygon fill="black" stroke="black" points="152,-412.003 148.5,-402.003 145,-412.003 152,-412.003"/>
</g>
<!-- V1&#45;&gt;N2 -->
<g id="edge5" class="edge"><title>V1&#45;&gt;N2</title>
<path fill="none" stroke="black" d="M148.5,-291.716C148.5,-283.973 148.5,-274.789 148.5,-266.274"/>
<polygon fill="black" stroke="black" points="152,-266.003 148.5,-256.003 145,-266.003 152,-266.003"/>
</g>
<!-- V2&#45;&gt;N3 -->
<g id="edge8" class="edge"><title>V2&#45;&gt;N3</title>
<path fill="none" stroke="black" d="M108.41,-145.716C107.087,-137.887 105.514,-128.585 104.062,-119.99"/>
<polygon fill="black" stroke="black" points="107.491,-119.28 102.374,-110.003 100.589,-120.447 107.491,-119.28"/>
</g>
<!-- V2&#45;&gt;N4 -->
<g id="edge11" class="edge"><title>V2&#45;&gt;N4</title>
<path fill="none" stroke="black" d="M133.905,-145.716C145.964,-135.874 160.878,-123.703 173.336,-113.536"/>
<polygon fill="black" stroke="black" points="175.579,-116.224 181.113,-107.189 171.153,-110.8 175.579,-116.224"/>
</g>
<!-- V3&#45;&gt;N3 -->
<g id="edge10" class="edge"><title>V3&#45;&gt;N3</title>
<path fill="none" stroke="black" d="M163.353,-145.716C152.112,-136.435 138.361,-125.083 126.504,-115.294"/>
<polygon fill="black" stroke="black" points="128.591,-112.478 118.651,-108.811 124.135,-117.877 128.591,-112.478"/>
</g>
<!-- V3&#45;&gt;N4 -->
<g id="edge13" class="edge"><title>V3&#45;&gt;N4</title>
<path fill="none" stroke="black" d="M188.848,-145.716C190.281,-137.887 191.984,-128.585 193.558,-119.99"/>
<polygon fill="black" stroke="black" points="197.028,-120.47 195.387,-110.003 190.143,-119.21 197.028,-120.47"/>
</g>
</g>
</svg>
