<?xml version="1.0" encoding="UTF-8" standalone="no"?>
<!DOCTYPE svg PUBLIC "-//W3C//DTD SVG 1.1//EN"
 "http://www.w3.org/Graphics/SVG/1.1/DTD/svg11.dtd">
<!-- Generated by graphviz version 2.38.0 (20140413.2041)
 -->
<!-- Title: user_nodes Pages: 1 -->
<svg width="76pt" height="216pt"
 viewBox="0.00 0.00 76.30 216.00" xmlns="http://www.w3.org/2000/svg" xmlns:xlink="http://www.w3.org/1999/xlink">
<g id="graph0" class="graph" transform="scale(0.260486 0.260486) rotate(0) translate(4 825.22)">
<title>user_nodes</title>
<polygon fill="white" stroke="none" points="-4,4 -4,-825.22 288.922,-825.22 288.922,4 -4,4"/>
<!-- N0 -->
<g id="node1" class="node"><title>N0</title>
<g id="a_node1">
<ellipse fill="lightblue" stroke="black" cx="128.847" cy="-720.35" rx="41.0244" ry="26.7407"/>
<text text-anchor="middle" x="128.847" y="-724.15" font-family="Times,serif" font-size="14.00">Luma</text>
<text text-anchor="middle" x="128.847" y="-709.15" font-family="Times,serif" font-size="14.00">Extract</text>
</g>
</g>
<!-- V0 -->
<g id="node10" class="node"><title>V0</title>
<polygon fill="lightgrey" stroke="black" points="156.847,-657.48 100.847,-657.48 100.847,-619.48 156.847,-619.48 156.847,-657.48"/>
<text text-anchor="middle" x="128.847" y="-642.28" font-family="Times,serif" font-size="14.00">Virtual</text>
<text text-anchor="middle" x="128.847" y="-627.28" font-family="Times,serif" font-size="14.00">Image</text>
</g>
<!-- N0&#45;&gt;V0 -->
<g id="edge2" class="edge"><title>N0&#45;&gt;V0</title>
<path fill="none" stroke="black" d="M128.847,-693.198C128.847,-685.009 128.847,-675.938 128.847,-667.618"/>
<polygon fill="black" stroke="black" points="132.347,-667.604 128.847,-657.604 125.347,-667.604 132.347,-667.604"/>
</g>
<!-- N1 -->
<g id="node2" class="node"><title>N1</title>
<g id="a_node2">
<ellipse fill="lightblue" stroke="black" cx="101.847" cy="-565.48" rx="27" ry="18"/>
<text text-anchor="middle" x="101.847" y="-561.78" font-family="Times,serif" font-size="14.00">Blur</text>
</g>
</g>
<!-- V1 -->
<g id="node11" class="node"><title>V1</title>
<polygon fill="lightgrey" stroke="black" points="112.847,-503.61 56.8472,-503.61 56.8472,-465.61 112.847,-465.61 112.847,-503.61"/>
<text text-anchor="middle" x="84.8472" y="-488.41" font-family="Times,serif" font-size="14.00">Virtual</text>
<text text-anchor="middle" x="84.8472" y="-473.41" font-family="Times,serif" font-size="14.00">Image</text>
</g>
<!-- N1&#45;&gt;V1 -->
<g id="edge4" class="edge"><title>N1&#45;&gt;V1</title>
<path fill="none" stroke="black" d="M98.1584,-547.367C96.0351,-537.516 93.3145,-524.894 90.8869,-513.631"/>
<polygon fill="black" stroke="black" points="94.2939,-512.826 88.7653,-503.788 87.451,-514.301 94.2939,-512.826"/>
</g>
<!-- N2 -->
<g id="node3" class="node"><title>N2</title>
<g id="a_node3">
<ellipse fill="lightblue" stroke="black" cx="84.8472" cy="-402.74" rx="46.5926" ry="18"/>
<text text-anchor="middle" x="84.8472" y="-399.04" font-family="Times,serif" font-size="14.00">Gradients</text>
</g>
</g>
<!-- V2 -->
<g id="node12" class="node"><title>V2</title>
<polygon fill="lightgrey" stroke="black" points="72.8472,-347.74 16.8472,-347.74 16.8472,-309.74 72.8472,-309.74 72.8472,-347.74"/>
<text text-anchor="middle" x="44.8472" y="-332.54" font-family="Times,serif" font-size="14.00">Virtual</text>
<text text-anchor="middle" x="44.8472" y="-317.54" font-family="Times,serif" font-size="14.00">Image</text>
</g>
<!-- N2&#45;&gt;V2 -->
<g id="edge6" class="edge"><title>N2&#45;&gt;V2</title>
<path fill="none" stroke="black" d="M75.5698,-385.041C70.8826,-376.604 65.0799,-366.159 59.7841,-356.627"/>
<polygon fill="black" stroke="black" points="62.8311,-354.904 54.915,-347.862 56.712,-358.304 62.8311,-354.904"/>
</g>
<!-- V3 -->
<g id="node13" class="node"><title>V3</title>
<polygon fill="lightgrey" stroke="black" points="146.847,-347.74 90.8472,-347.74 90.8472,-309.74 146.847,-309.74 146.847,-347.74"/>
<text text-anchor="middle" x="118.847" y="-332.54" font-family="Times,serif" font-size="14.00">Virtual</text>
<text text-anchor="middle" x="118.847" y="-317.54" font-family="Times,serif" font-size="14.00">Image</text>
</g>
<!-- N2&#45;&gt;V3 -->
<g id="edge7" class="edge"><title>N2&#45;&gt;V3</title>
<path fill="none" stroke="black" d="M92.9047,-384.677C96.7815,-376.467 101.526,-366.421 105.892,-357.175"/>
<polygon fill="black" stroke="black" points="109.148,-358.476 110.253,-347.939 102.818,-355.487 109.148,-358.476"/>
</g>
<!-- N3 -->
<g id="node4" class="node"><title>N3</title>
<g id="a_node4">
<ellipse fill="lightblue" stroke="black" cx="130.847" cy="-255.74" rx="49.2915" ry="18"/>
<text text-anchor="middle" x="130.847" y="-252.04" font-family="Times,serif" font-size="14.00">Magnitude</text>
</g>
</g>
<!-- V4 -->
<g id="node14" class="node"><title>V4</title>
<polygon fill="lightgrey" stroke="black" points="158.847,-201.74 102.847,-201.74 102.847,-163.74 158.847,-163.74 158.847,-201.74"/>
<text text-anchor="middle" x="130.847" y="-186.54" font-family="Times,serif" font-size="14.00">Virtual</text>
<text text-anchor="middle" x="130.847" y="-171.54" font-family="Times,serif" font-size="14.00">Image</text>
</g>
<!-- N3&#45;&gt;V4 -->
<g id="edge9" class="edge"><title>N3&#45;&gt;V4</title>
<path fill="none" stroke="black" d="M130.847,-237.553C130.847,-229.85 130.847,-220.563 130.847,-211.889"/>
<polygon fill="black" stroke="black" points="134.347,-211.76 130.847,-201.76 127.347,-211.76 134.347,-211.76"/>
</g>
<!-- N4 -->
<g id="node5" class="node"><title>N4</title>
<g id="a_node5">
<ellipse fill="lightblue" stroke="black" cx="31.8472" cy="-255.74" rx="31.6951" ry="18"/>
<text text-anchor="middle" x="31.8472" y="-252.04" font-family="Times,serif" font-size="14.00">Phase</text>
</g>
</g>
<!-- V5 -->
<g id="node15" class="node"><title>V5</title>
<polygon fill="lightgrey" stroke="black" points="72.8472,-201.74 16.8472,-201.74 16.8472,-163.74 72.8472,-163.74 72.8472,-201.74"/>
<text text-anchor="middle" x="44.8472" y="-186.54" font-family="Times,serif" font-size="14.00">Virtual</text>
<text text-anchor="middle" x="44.8472" y="-171.54" font-family="Times,serif" font-size="14.00">Image</text>
</g>
<!-- N4&#45;&gt;V5 -->
<g id="edge12" class="edge"><title>N4&#45;&gt;V5</title>
<path fill="none" stroke="black" d="M34.9941,-237.553C36.42,-229.766 38.1423,-220.359 39.7454,-211.603"/>
<polygon fill="black" stroke="black" points="43.1895,-212.227 41.5478,-201.76 36.3039,-210.966 43.1895,-212.227"/>
</g>
<!-- N5 -->
<g id="node6" class="node"><title>N5</title>
<ellipse fill="lightblue" stroke="black" cx="130.847" cy="-100.87" rx="82.0488" ry="26.7407"/>
<text text-anchor="middle" x="130.847" y="-104.67" font-family="Times,serif" font-size="14.00">vxMyKernelNode</text>
<text text-anchor="middle" x="130.847" y="-89.6701" font-family="Times,serif" font-size="14.00">(User)</text>
</g>
<!-- I1 -->
<g id="node9" class="node"><title>I1</title>
<polygon fill="lightgrey" stroke="black" points="199.347,-38 62.3472,-38 62.3472,-0 199.347,-0 199.347,-38"/>
<text text-anchor="middle" x="130.847" y="-22.8" font-family="Times,serif" font-size="14.00">VX_DF_IMAGE_U8</text>
<text text-anchor="middle" x="130.847" y="-7.8" font-family="Times,serif" font-size="14.00">Image</text>
</g>
<!-- N5&#45;&gt;I1 -->
<g id="edge15" class="edge"><title>N5&#45;&gt;I1</title>
<path fill="none" stroke="black" d="M130.847,-73.7176C130.847,-65.5285 130.847,-56.4581 130.847,-48.1381"/>
<polygon fill="black" stroke="black" points="134.347,-48.1237 130.847,-38.1238 127.347,-48.1238 134.347,-48.1237"/>
</g>
<!-- N6 -->
<g id="node7" class="node"><title>N6</title>
<ellipse fill="lightblue" stroke="black" cx="207.847" cy="-484.61" rx="77.1494" ry="26.7407"/>
<text text-anchor="middle" x="207.847" y="-488.41" font-family="Times,serif" font-size="14.00">vxMyFilterNode</text>
<text text-anchor="middle" x="207.847" y="-473.41" font-family="Times,serif" font-size="14.00">(User)</text>
</g>
<!-- V6 -->
<g id="node16" class="node"><title>V6</title>
<polygon fill="lightgrey" stroke="black" points="235.847,-421.74 179.847,-421.74 179.847,-383.74 235.847,-383.74 235.847,-421.74"/>
<text text-anchor="middle" x="207.847" y="-406.54" font-family="Times,serif" font-size="14.00">Virtual</text>
<text text-anchor="middle" x="207.847" y="-391.54" font-family="Times,serif" font-size="14.00">Image</text>
</g>
<!-- N6&#45;&gt;V6 -->
<g id="edge19" class="edge"><title>N6&#45;&gt;V6</title>
<path fill="none" stroke="black" d="M207.847,-457.458C207.847,-449.269 207.847,-440.198 207.847,-431.878"/>
<polygon fill="black" stroke="black" points="211.347,-431.864 207.847,-421.864 204.347,-431.864 211.347,-431.864"/>
</g>
<!-- I0 -->
<g id="node8" class="node"><title>I0</title>
<polygon fill="lightgrey" stroke="black" points="155.847,-821.22 101.847,-821.22 101.847,-783.22 155.847,-783.22 155.847,-821.22"/>
<text text-anchor="middle" x="128.847" y="-806.02" font-family="Times,serif" font-size="14.00">UYVY</text>
<text text-anchor="middle" x="128.847" y="-791.02" font-family="Times,serif" font-size="14.00">Image</text>
</g>
<!-- I0&#45;&gt;N0 -->
<g id="edge1" class="edge"><title>I0&#45;&gt;N0</title>
<path fill="none" stroke="black" d="M128.847,-783.097C128.847,-775.488 128.847,-766.356 128.847,-757.477"/>
<polygon fill="black" stroke="black" points="132.347,-757.277 128.847,-747.277 125.347,-757.277 132.347,-757.277"/>
</g>
<!-- V0&#45;&gt;N1 -->
<g id="edge3" class="edge"><title>V0&#45;&gt;N1</title>
<path fill="none" stroke="black" d="M121.894,-619.196C118.806,-611.076 115.115,-601.371 111.747,-592.513"/>
<polygon fill="black" stroke="black" points="114.957,-591.106 108.131,-583.003 108.414,-593.594 114.957,-591.106"/>
</g>
<!-- V0&#45;&gt;N6 -->
<g id="edge18" class="edge"><title>V0&#45;&gt;N6</title>
<path fill="none" stroke="black" d="M138.22,-619.462C150.887,-595.11 173.733,-551.191 189.792,-520.319"/>
<polygon fill="black" stroke="black" points="193.03,-521.68 194.539,-511.193 186.82,-518.449 193.03,-521.68"/>
</g>
<!-- V1&#45;&gt;N2 -->
<g id="edge5" class="edge"><title>V1&#45;&gt;N2</title>
<path fill="none" stroke="black" d="M84.8472,-465.486C84.8472,-455.372 84.8472,-442.564 84.8472,-431.239"/>
<polygon fill="black" stroke="black" points="88.3473,-430.971 84.8472,-420.971 81.3473,-430.971 88.3473,-430.971"/>
</g>
<!-- V2&#45;&gt;N3 -->
<g id="edge8" class="edge"><title>V2&#45;&gt;N3</title>
<path fill="none" stroke="black" d="M66.9943,-309.456C78.2356,-300.175 91.9858,-288.823 103.843,-279.034"/>
<polygon fill="black" stroke="black" points="106.213,-281.617 111.696,-272.551 101.756,-276.219 106.213,-281.617"/>
</g>
<!-- V2&#45;&gt;N4 -->
<g id="edge11" class="edge"><title>V2&#45;&gt;N4</title>
<path fill="none" stroke="black" d="M41.4994,-309.456C40.066,-301.627 38.3628,-292.325 36.789,-283.73"/>
<polygon fill="black" stroke="black" points="40.2044,-282.95 34.9605,-273.744 33.3188,-284.21 40.2044,-282.95"/>
</g>
<!-- V3&#45;&gt;N3 -->
<g id="edge10" class="edge"><title>V3&#45;&gt;N3</title>
<path fill="none" stroke="black" d="M121.937,-309.456C123.261,-301.627 124.833,-292.325 126.285,-283.73"/>
<polygon fill="black" stroke="black" points="129.758,-284.187 127.973,-273.744 122.856,-283.02 129.758,-284.187"/>
</g>
<!-- V3&#45;&gt;N4 -->
<g id="edge13" class="edge"><title>V3&#45;&gt;N4</title>
<path fill="none" stroke="black" d="M96.4425,-309.456C84.3829,-299.614 69.4692,-287.443 57.0113,-277.276"/>
<polygon fill="black" stroke="black" points="59.1945,-274.54 49.234,-270.929 54.7686,-279.964 59.1945,-274.54"/>
</g>
<!-- V4&#45;&gt;N5 -->
<g id="edge14" class="edge"><title>V4&#45;&gt;N5</title>
<path fill="none" stroke="black" d="M130.847,-163.616C130.847,-156.008 130.847,-146.875 130.847,-137.997"/>
<polygon fill="black" stroke="black" points="134.347,-137.796 130.847,-127.796 127.347,-137.796 134.347,-137.796"/>
</g>
<!-- V5&#45;&gt;N5 -->
<g id="edge16" class="edge"><title>V5&#45;&gt;N5</title>
<path fill="none" stroke="black" d="M64.3619,-163.616C73.9451,-154.716 85.7734,-143.731 96.7838,-133.505"/>
<polygon fill="black" stroke="black" points="99.2924,-135.952 104.238,-126.583 94.5288,-130.823 99.2924,-135.952"/>
</g>
<!-- V6&#45;&gt;N5 -->
<g id="edge17" class="edge"><title>V6&#45;&gt;N5</title>
<path fill="none" stroke="black" d="M207.713,-383.6C206.799,-342.66 201.076,-240.668 167.847,-163.74 163.832,-154.445 158.66,-144.846 153.463,-136.064"/>
<polygon fill="black" stroke="black" points="156.283,-133.966 148.085,-127.254 150.308,-137.613 156.283,-133.966"/>
</g>
</g>
</svg>
