<svg width="2711" height="1609" xmlns="http://www.w3.org/2000/svg" xmlns:xlink="http://www.w3.org/1999/xlink" xml:space="preserve" overflow="hidden"><defs><clipPath id="clip0"><rect x="845" y="349" width="2711" height="1609"/></clipPath></defs><g clip-path="url(#clip0)" transform="translate(-845 -349)"><rect x="2112.5" y="965.5" width="497" height="296" stroke="#2F528F" stroke-width="4.58333" stroke-miterlimit="8" fill="#4472C4"/><text fill="#FFFFFF" font-family="Calibri,Calibri_MSFontService,sans-serif" font-weight="400" font-size="83" transform="matrix(1 0 0 1 2248.38 1091)">Virtual<tspan font-size="83" x="1.42065" y="99">Object</tspan></text><path d="M1211.5 793.5C1211.5 698.507 1342.23 621.5 1503.5 621.5 1664.77 621.5 1795.5 698.507 1795.5 793.5 1795.5 888.493 1664.77 965.5 1503.5 965.5 1342.23 965.5 1211.5 888.493 1211.5 793.5Z" stroke="#2F528F" stroke-width="4.58333" stroke-miterlimit="8" fill="#4472C4" fill-rule="evenodd"/><text fill="#FFFFFF" font-family="Calibri,Calibri_MSFontService,sans-serif" font-weight="400" font-size="83" transform="matrix(1 0 0 1 1350.06 771)">Required<tspan font-size="83" x="61.875" y="99">Node</tspan></text><path d="M1211.5 1433.5C1211.5 1338.51 1342.23 1261.5 1503.5 1261.5 1664.77 1261.5 1795.5 1338.51 1795.5 1433.5 1795.5 1528.49 1664.77 1605.5 1503.5 1605.5 1342.23 1605.5 1211.5 1528.49 1211.5 1433.5Z" stroke="#A6A6A6" stroke-width="4.58333" stroke-miterlimit="8" fill="#A6A6A6" fill-rule="evenodd"/><path d="M2068.5 523.5C2068.5 428.507 2199.23 351.5 2360.5 351.5 2521.77 351.5 2652.5 428.507 2652.5 523.5 2652.5 618.493 2521.77 695.5 2360.5 695.5 2199.23 695.5 2068.5 618.493 2068.5 523.5Z" stroke="#00B050" stroke-width="4.58333" stroke-miterlimit="8" fill="#00B050" fill-rule="evenodd"/><text fill="#FFFFFF" font-family="Calibri,Calibri_MSFontService,sans-serif" font-weight="400" font-size="83" transform="matrix(1 0 0 1 2269.58 551)">Node</text><path d="M2068.5 1703.5C2068.5 1608.51 2199.23 1531.5 2360.5 1531.5 2521.77 1531.5 2652.5 1608.51 2652.5 1703.5 2652.5 1798.49 2521.77 1875.5 2360.5 1875.5 2199.23 1875.5 2068.5 1798.49 2068.5 1703.5Z" stroke="#A6A6A6" stroke-width="4.58333" stroke-miterlimit="8" fill="#A6A6A6" fill-rule="evenodd"/><path d="M2969.5 793.5C2969.5 698.507 3100.23 621.5 3261.5 621.5 3422.77 621.5 3553.5 698.507 3553.5 793.5 3553.5 888.493 3422.77 965.5 3261.5 965.5 3100.23 965.5 2969.5 888.493 2969.5 793.5Z" stroke="#2F528F" stroke-width="4.58333" stroke-miterlimit="8" fill="#4472C4" fill-rule="evenodd"/><text fill="#FFFFFF" font-family="Calibri,Calibri_MSFontService,sans-serif" font-weight="400" font-size="83" transform="matrix(1 0 0 1 3108.58 771)">Required<tspan font-size="83" x="61.875" y="99">Node</tspan></text><path d="M2969.5 1433.5C2969.5 1338.51 3100.23 1261.5 3261.5 1261.5 3422.77 1261.5 3553.5 1338.51 3553.5 1433.5 3553.5 1528.49 3422.77 1605.5 3261.5 1605.5 3100.23 1605.5 2969.5 1528.49 2969.5 1433.5Z" stroke="#2F528F" stroke-width="4.58333" stroke-miterlimit="8" fill="#4472C4" fill-rule="evenodd"/><text fill="#FFFFFF" font-family="Calibri,Calibri_MSFontService,sans-serif" font-weight="400" font-size="83" transform="matrix(1 0 0 1 3116.32 1411)">Optional<tspan font-size="83" x="54.1521" y="99">Node</tspan></text><path d="M1711.02 911.418 2076.34 1091.79 2073.3 1097.95 1707.98 917.582ZM2080.85 1072.29 2111.81 1113.13 2060.56 1113.39Z" fill="#4472C4"/><path d="M2610.9 1110.36 3018.76 1292.19 3015.97 1298.47 2608.1 1116.64ZM3022.51 1272.54 3055.04 1312.13 3003.85 1314.4Z" fill="#4472C4"/><path d="M1.3997-3.13962 409.265 178.694 406.466 184.974-1.3997 3.13962ZM413.01 159.037 445.541 198.63 394.348 200.899Z" fill="#4472C4" transform="matrix(1 0 0 -1 2609.5 1113.13)"/><path d="M1.52181-3.08229 366.84 177.286 363.796 183.451-1.52181 3.08229ZM371.354 157.791 402.306 198.63 351.063 198.888Z" fill="#4472C4" transform="matrix(1 0 0 -1 1709.5 1312.13)"/><path d="M3.43756 41.25 3.43781 228.456-3.43719 228.456-3.43744 41.25ZM-22.9166 45.8334 0 0 22.9167 45.8333ZM22.917 223.873 0.000360892 269.706-22.9164 223.873Z" fill="#4472C4" transform="matrix(1 0 0 -1 2360.5 1531.21)"/><path d="M3.43756 41.25 3.43781 228.456-3.43719 228.456-3.43744 41.25ZM-22.9166 45.8334 0 0 22.9167 45.8333ZM22.917 223.873 0.000360892 269.706-22.9164 223.873Z" fill="#4472C4" transform="matrix(1 0 0 -1 2360.5 1531.21)"/><path d="M2357.06 923.956 2357.06 736.75 2363.94 736.75 2363.94 923.956ZM2383.42 919.373 2360.5 965.206 2337.58 919.373ZM2337.58 741.333 2360.5 695.5 2383.42 741.333Z" fill="#4472C4"/><path d="M1308.48 1226.67 1322.53 1214.79 1500.5 1425.25 1678.47 1214.79 1692.52 1226.67 1512.55 1439.5 1692.52 1652.33 1678.47 1664.21 1500.5 1453.75 1322.53 1664.21 1308.48 1652.33 1488.45 1439.5Z" stroke="#FF0000" stroke-width="4.58333" stroke-miterlimit="8" fill="#FF0000" fill-rule="evenodd"/><path d="M2162.24 1490.66 2176.29 1478.8 2354 1689.26 2531.71 1478.8 2545.76 1490.66 2366.03 1703.5 2545.76 1916.34 2531.71 1928.2 2354 1717.74 2176.29 1928.2 2162.24 1916.34 2341.97 1703.5Z" stroke="#FF0000" stroke-width="4.58333" stroke-miterlimit="8" fill="#FF0000" fill-rule="evenodd"/><rect x="847.5" y="1032.5" width="337" height="199" stroke="#2F528F" stroke-width="4.58333" stroke-miterlimit="8" fill="none"/><path d="M1018 1232.2 1018.6 1325.01 1214.71 1398.44" stroke="#2F528F" stroke-width="4.58333" stroke-miterlimit="8" fill="none" fill-rule="evenodd"/><text font-family="Calibri,Calibri_MSFontService,sans-serif" font-weight="400" font-size="64" transform="matrix(1 0 0 1 889.248 1114)">At most 1 <tspan font-size="64" x="46.4063" y="77">writer</tspan></text><rect x="1643.5" y="1742.5" width="320" height="199" stroke="#2F528F" stroke-width="4.58333" stroke-miterlimit="8" fill="none"/><path d="M1804.16 1742.89 1833.91 1667.19 2072.9 1668.67" stroke="#2F528F" stroke-width="4.58333" stroke-miterlimit="8" fill="none" fill-rule="evenodd"/><text font-family="Calibri,Calibri_MSFontService,sans-serif" font-weight="400" font-size="64" transform="matrix(1 0 0 1 1676.77 1825)">At most 1 <tspan font-size="64" x="14.8959" y="77">modifier</tspan></text></g></svg>