
<svg width="448" height="256" xmlns="http://www.w3.org/2000/svg" xmlns:svg="http://www.w3.org/2000/svg">
 <g>

  <rect width="32" height="32" x="0" y="0" stroke="black" fill="white"/>
  <rect width="32" height="32" x="32" y="0" stroke="black" fill="white"/>
  <rect width="32" height="32" x="64" y="0" stroke="black" fill="white"/>
  <rect width="32" height="32" x="96" y="0" stroke="black" fill="white"/>
  <rect width="32" height="32" x="128" y="0" stroke="black" fill="white"/>
  <rect width="32" height="32" x="160" y="0" stroke="black" fill="white"/>
  <rect width="32" height="32" x="192" y="0" stroke="black" fill="white"/>
  <rect width="32" height="32" x="224" y="0" stroke="black" fill="white"/>
  <rect width="32" height="32" x="256" y="0" stroke="black" fill="white"/>
  <rect width="32" height="32" x="288" y="0" stroke="black" fill="white"/>
  <rect width="32" height="32" x="320" y="0" stroke="black" fill="white"/>
  <rect width="32" height="32" x="352" y="0" stroke="black" fill="white"/>
  <rect width="32" height="32" x="384" y="0" stroke="black" fill="white"/>
  <rect width="32" height="32" x="416" y="0" stroke="black" fill="white"/>
  <rect width="32" height="32" x="0" y="32" stroke="black" fill="white"/>
  <rect width="32" height="32" x="32" y="32" stroke="black" fill="blue"/>
  <rect width="32" height="32" x="64" y="32" stroke="black" fill="blue"/>
  <rect width="32" height="32" x="96" y="32" stroke="black" fill="blue"/>
  <rect width="32" height="32" x="128" y="32" stroke="black" fill="red"/>
  <rect width="32" height="32" x="160" y="32" stroke="black" fill="red"/>
  <rect width="32" height="32" x="192" y="32" stroke="black" fill="red"/>
  <rect width="32" height="32" x="224" y="32" stroke="black" fill="red"/>
  <rect width="32" height="32" x="256" y="32" stroke="black" fill="red"/>
  <rect width="32" height="32" x="288" y="32" stroke="black" fill="red"/>
  <rect width="32" height="32" x="320" y="32" stroke="black" fill="red"/>
  <rect width="32" height="32" x="352" y="32" stroke="black" fill="red"/>
  <rect width="32" height="32" x="384" y="32" stroke="black" fill="green"/>
  <rect width="32" height="32" x="416" y="32" stroke="black" fill="white"/>
  <rect width="32" height="32" x="0" y="64" stroke="black" fill="white"/>
  <rect width="32" height="32" x="32" y="64" stroke="black" fill="blue"/>
  <rect width="32" height="32" x="64" y="64" stroke="black" fill="blue"/>
  <rect width="32" height="32" x="96" y="64" stroke="black" fill="blue"/>
  <rect width="32" height="32" x="128" y="64" stroke="black" fill="red"/>
  <rect width="32" height="32" x="160" y="64" stroke="black" fill="red"/>
  <rect width="32" height="32" x="192" y="64" stroke="black" fill="red"/>
  <rect width="32" height="32" x="224" y="64" stroke="black" fill="red"/>
  <rect width="32" height="32" x="256" y="64" stroke="black" fill="red"/>
  <rect width="32" height="32" x="288" y="64" stroke="black" fill="red"/>
  <rect width="32" height="32" x="320" y="64" stroke="black" fill="red"/>
  <rect width="32" height="32" x="352" y="64" stroke="black" fill="red"/>
  <rect width="32" height="32" x="384" y="64" stroke="black" fill="green"/>
  <rect width="32" height="32" x="416" y="64" stroke="black" fill="white"/>
  <rect width="32" height="32" x="0" y="96" stroke="black" fill="white"/>
  <rect width="32" height="32" x="32" y="96" stroke="black" fill="blue"/>
  <rect width="32" height="32" x="64" y="96" stroke="black" fill="blue"/>
  <rect width="32" height="32" x="96" y="96" stroke="black" fill="blue"/>
  <rect width="32" height="32" x="128" y="96" stroke="black" fill="red"/>
  <rect width="32" height="32" x="160" y="96" stroke="black" fill="red"/>
  <rect width="32" height="32" x="192" y="96" stroke="black" fill="red"/>
  <rect width="32" height="32" x="224" y="96" stroke="black" fill="red"/>
  <rect width="32" height="32" x="256" y="96" stroke="black" fill="red"/>
  <rect width="32" height="32" x="288" y="96" stroke="black" fill="red"/>
  <rect width="32" height="32" x="320" y="96" stroke="black" fill="red"/>
  <rect width="32" height="32" x="352" y="96" stroke="black" fill="red"/>
  <rect width="32" height="32" x="384" y="96" stroke="black" fill="green"/>
  <rect width="32" height="32" x="416" y="96" stroke="black" fill="white"/>
  <rect width="32" height="32" x="0" y="128" stroke="black" fill="white"/>
  <rect width="32" height="32" x="32" y="128" stroke="black" fill="blue"/>
  <rect width="32" height="32" x="64" y="128" stroke="black" fill="blue"/>
  <rect width="32" height="32" x="96" y="128" stroke="black" fill="blue"/>
  <rect width="32" height="32" x="128" y="128" stroke="black" fill="red"/>
  <rect width="32" height="32" x="160" y="128" stroke="black" fill="red"/>
  <rect width="32" height="32" x="192" y="128" stroke="black" fill="red"/>
  <rect width="32" height="32" x="224" y="128" stroke="black" fill="red"/>
  <rect width="32" height="32" x="256" y="128" stroke="black" fill="red"/>
  <rect width="32" height="32" x="288" y="128" stroke="black" fill="red"/>
  <rect width="32" height="32" x="320" y="128" stroke="black" fill="red"/>
  <rect width="32" height="32" x="352" y="128" stroke="black" fill="red"/>
  <rect width="32" height="32" x="384" y="128" stroke="black" fill="green"/>
  <rect width="32" height="32" x="416" y="128" stroke="black" fill="white"/>
  <rect width="32" height="32" x="0" y="160" stroke="black" fill="white"/>
  <rect width="32" height="32" x="32" y="160" stroke="black" fill="blue"/>
  <rect width="32" height="32" x="64" y="160" stroke="black" fill="blue"/>
  <rect width="32" height="32" x="96" y="160" stroke="black" fill="blue"/>
  <rect width="32" height="32" x="128" y="160" stroke="black" fill="red"/>
  <rect width="32" height="32" x="160" y="160" stroke="black" fill="red"/>
  <rect width="32" height="32" x="192" y="160" stroke="black" fill="red"/>
  <rect width="32" height="32" x="224" y="160" stroke="black" fill="red"/>
  <rect width="32" height="32" x="256" y="160" stroke="black" fill="red"/>
  <rect width="32" height="32" x="288" y="160" stroke="black" fill="red"/>
  <rect width="32" height="32" x="320" y="160" stroke="black" fill="red"/>
  <rect width="32" height="32" x="352" y="160" stroke="black" fill="red"/>
  <rect width="32" height="32" x="384" y="160" stroke="black" fill="green"/>
  <rect width="32" height="32" x="416" y="160" stroke="black" fill="white"/>
  <rect width="32" height="32" x="0" y="192" stroke="black" fill="white"/>
  <rect width="32" height="32" x="32" y="192" stroke="black" fill="blue"/>
  <rect width="32" height="32" x="64" y="192" stroke="black" fill="blue"/>
  <rect width="32" height="32" x="96" y="192" stroke="black" fill="blue"/>
  <rect width="32" height="32" x="128" y="192" stroke="black" fill="red"/>
  <rect width="32" height="32" x="160" y="192" stroke="black" fill="red"/>
  <rect width="32" height="32" x="192" y="192" stroke="black" fill="red"/>
  <rect width="32" height="32" x="224" y="192" stroke="black" fill="red"/>
  <rect width="32" height="32" x="256" y="192" stroke="black" fill="red"/>
  <rect width="32" height="32" x="288" y="192" stroke="black" fill="red"/>
  <rect width="32" height="32" x="320" y="192" stroke="black" fill="red"/>
  <rect width="32" height="32" x="352" y="192" stroke="black" fill="red"/>
  <rect width="32" height="32" x="384" y="192" stroke="black" fill="green"/>
  <rect width="32" height="32" x="416" y="192" stroke="black" fill="white"/>
  <rect width="32" height="32" x="0" y="224" stroke="black" fill="white"/>
  <rect width="32" height="32" x="32" y="224" stroke="black" fill="white"/>
  <rect width="32" height="32" x="64" y="224" stroke="black" fill="white"/>
  <rect width="32" height="32" x="96" y="224" stroke="black" fill="white"/>
  <rect width="32" height="32" x="128" y="224" stroke="black" fill="white"/>
  <rect width="32" height="32" x="160" y="224" stroke="black" fill="white"/>
  <rect width="32" height="32" x="192" y="224" stroke="black" fill="white"/>
  <rect width="32" height="32" x="224" y="224" stroke="black" fill="white"/>
  <rect width="32" height="32" x="256" y="224" stroke="black" fill="white"/>
  <rect width="32" height="32" x="288" y="224" stroke="black" fill="white"/>
  <rect width="32" height="32" x="320" y="224" stroke="black" fill="white"/>
  <rect width="32" height="32" x="352" y="224" stroke="black" fill="white"/>
  <rect width="32" height="32" x="384" y="224" stroke="black" fill="white"/>
  <rect width="32" height="32" x="416" y="224" stroke="black" fill="white"/>

 </g>
</svg>

